<?xml version="1.0" encoding="iso-8859-1"?>
<!-- Generator: Adobe Illustrator 16.0.0, SVG Export Plug-In . SVG Version: 6.00 Build 0)  -->
<!DOCTYPE svg PUBLIC "-//W3C//DTD SVG 1.1//EN" "http://www.w3.org/Graphics/SVG/1.1/DTD/svg11.dtd">
<svg version="1.1" id="Layer_1" xmlns="http://www.w3.org/2000/svg" xmlns:xlink="http://www.w3.org/1999/xlink" x="0px" y="0px"
	 width="26.534px" height="28.604px" viewBox="0 0 26.534 28.604" style="enable-background:new 0 0 26.534 28.604;"
	 xml:space="preserve">
<g>
	<polygon style="fill:#070909;" points="24.711,22.448 24.711,21.896 26.534,21.896 26.534,21.165 0,21.165 0,21.896 0.015,21.896 
		0.015,27.874 0,27.874 0,28.604 26.534,28.604 26.534,27.874 24.711,27.874 24.711,27.547 1.867,27.547 1.867,27.309 1.836,27.309 
		1.836,27.168 24.711,27.168 24.711,26.862 1.847,26.862 1.847,26.749 1.836,26.749 1.836,26.608 1.847,26.608 1.847,26.56 
		24.711,26.56 24.711,26.137 1.807,26.137 1.807,26.059 1.793,26.059 1.793,25.919 1.807,25.919 1.807,25.834 24.711,25.834 
		24.711,25.451 1.787,25.451 1.787,25.149 24.711,25.149 24.711,24.786 1.787,24.786 1.787,24.483 24.711,24.483 24.711,24.102 
		1.827,24.102 1.827,23.799 24.711,23.799 24.711,23.416 1.807,23.416 1.807,23.114 24.711,23.114 24.711,22.751 1.807,22.751 
		1.807,22.448 	"/>
	<polygon style="fill:#070909;" points="23.174,20.283 23.163,20.283 23.163,16.522 23.174,16.522 23.174,16.061 12.443,16.061 
		2.671,16.061 2.671,16.522 4.079,16.522 4.079,16.847 21.969,16.847 21.969,17.15 4.079,17.15 4.079,17.512 21.969,17.512 
		21.969,17.814 4.079,17.814 4.079,18.198 21.929,18.198 21.929,18.363 21.955,18.363 21.955,18.5 4.079,18.5 4.079,18.882 
		21.95,18.882 21.95,19.009 21.955,19.009 21.955,19.146 21.95,19.146 21.95,19.185 4.079,19.185 4.079,19.547 21.95,19.547 
		21.95,19.698 21.955,19.698 21.955,19.836 21.95,19.836 21.95,19.85 4.079,19.85 4.079,20.283 2.671,20.283 2.671,20.743 
		23.174,20.743 	"/>
	<path style="fill:#070909;" d="M13.215,15.843v-0.511l0.636,0.195l-0.15-0.458c0.408,0.138,1.016,0.274,1.83,0.274
		c2.529,0,6.17-2.736,6.221-6.824c0.051-2.949-1.159-5.265-3.918-5.729c-2.117-0.356-3.864,0.614-4.565,1.085
		c0.029-0.617,0.061-1.298,0.077-1.694c0.021-0.534,0.96-0.815,1.413-1.248C15.027,0.678,14.75,0,14.75,0s-2.344,1.039-2.281,2.044
		c0.031,0.49,0.036,1.176,0.035,1.751c-0.658-0.438-2.047-1.155-4.005-1.062C5.794,2.861,4.021,4.848,4.071,7.796
		c0.05,4.087,3.678,7.539,6.208,7.539c0.622,0,1.132-0.079,1.527-0.177l-0.047,0.294l0.465-0.24l0.219,0.849l0.291-0.729
		L13.215,15.843z M7.8,11.416c-1.023-1.31-0.714-3.171-0.714-3.171s0.684,1.724,1.388,2.792c0.704,1.067,1.909,1.919,1.909,1.919
		S8.824,12.727,7.8,11.416z"/>
</g>
<g>
</g>
<g>
</g>
<g>
</g>
<g>
</g>
<g>
</g>
<g>
</g>
<g>
</g>
<g>
</g>
<g>
</g>
<g>
</g>
<g>
</g>
<g>
</g>
<g>
</g>
<g>
</g>
<g>
</g>
</svg>
