<?xml version="1.0" encoding="iso-8859-1"?>
<!-- Generator: Adobe Illustrator 16.0.0, SVG Export Plug-In . SVG Version: 6.00 Build 0)  -->
<!DOCTYPE svg PUBLIC "-//W3C//DTD SVG 1.1//EN" "http://www.w3.org/Graphics/SVG/1.1/DTD/svg11.dtd">
<svg version="1.1" id="Layer_1" xmlns="http://www.w3.org/2000/svg" xmlns:xlink="http://www.w3.org/1999/xlink" x="0px" y="0px"
	 width="31.386px" height="29.494px" viewBox="0 0 31.386 29.494" style="enable-background:new 0 0 31.386 29.494;"
	 xml:space="preserve">
<g>
	<path d="M26.017,26.068l3.744-15.817L18.692,9.166l0.559-0.837l-2.134-2.642l0.865-0.699l1.513,1.874l-0.432,0.349l1.279,1.585
		l1.344-1.086l-1.278-1.584L20.12,6.357l-1.514-1.873l0.528-0.426L18.48,3.247L6.762,12.711l0.653,0.811l1.777-1.435l2.134,2.642
		l0.41-0.171l-1.283,6.733l-0.001-0.001L0.228,22.804L13.869,27.7L26.017,26.068z M12.704,14.157l3.675-1.524l1.602-2.402
		l10.08,1.185L24.905,24.74l-13.511-3.822L12.704,14.157z M10.474,25.79l-3.349-1.278l1.615-0.215l3.756,1.253L10.474,25.79z"/>
	<polygon points="26.815,26.622 13.824,28.521 13.824,28.516 0,23.458 0,24.243 13.73,29.494 27.52,27.302 31.386,11.281 
		30.547,10.698 	"/>
	<path d="M5.344,19.464c0.295-0.07,0.564-0.192,0.806-0.35l0.433,0.321l0.257-0.345l2.147,1.591L9.61,19.84l-2.148-1.591
		l0.208-0.281L7.228,17.64c0.112-0.405,0.127-0.845,0.022-1.281c-0.332-1.382-1.724-2.237-3.106-1.905
		c-1.382,0.33-2.235,1.723-1.905,3.104C2.569,18.94,3.962,19.795,5.344,19.464z M4.394,15.5c0.806-0.193,1.616,0.305,1.809,1.11
		c0.193,0.805-0.304,1.615-1.109,1.807c-0.804,0.193-1.614-0.304-1.808-1.109C3.092,16.504,3.591,15.693,4.394,15.5z"/>
	<path d="M22.181,3.642c0.388,0.465,0.97,0.763,1.62,0.766c0.004,0,0.007,0.001,0.009,0.001h0.001h0.002
		c0.657,0,1.244-0.298,1.634-0.767c0.037-0.042,0.069-0.087,0.103-0.132c0.246-0.348,0.391-0.771,0.391-1.227
		c0-0.456-0.145-0.878-0.391-1.226c-0.033-0.045-0.065-0.089-0.103-0.133c-0.39-0.468-0.977-0.767-1.633-0.767h-0.003H23.81
		c-0.002,0-0.005,0-0.009,0c-0.65,0.004-1.232,0.301-1.62,0.767c-0.036,0.043-0.069,0.088-0.103,0.133
		c-0.245,0.347-0.392,0.77-0.392,1.226c0,0.456,0.146,0.879,0.392,1.227C22.111,3.555,22.145,3.6,22.181,3.642z M24.419,4.139
		c0.198-0.19,0.363-0.469,0.477-0.804c0.153,0.057,0.292,0.125,0.409,0.203C25.073,3.813,24.77,4.024,24.419,4.139z M25.407,3.405
		c-0.134-0.091-0.29-0.169-0.462-0.233c0.061-0.226,0.101-0.473,0.112-0.731h0.7C25.729,2.797,25.604,3.127,25.407,3.405z
		 M25.765,2.266h-0.704c-0.002-0.311-0.043-0.605-0.115-0.871c0.172-0.064,0.328-0.143,0.462-0.233
		C25.63,1.475,25.762,1.855,25.765,2.266z M25.305,1.03c-0.117,0.077-0.256,0.146-0.409,0.202c-0.113-0.335-0.278-0.614-0.477-0.804
		C24.77,0.543,25.074,0.754,25.305,1.03z M23.9,0.34c0.354,0.054,0.66,0.421,0.833,0.946C24.482,1.36,24.201,1.405,23.9,1.412V0.34z
		 M23.9,1.587c0.316-0.008,0.615-0.056,0.88-0.136c0.066,0.247,0.104,0.523,0.105,0.815H23.9V1.587z M23.9,2.44h0.981
		c-0.01,0.24-0.045,0.469-0.101,0.676c-0.266-0.08-0.564-0.129-0.881-0.137V2.44z M23.9,3.155c0.301,0.007,0.582,0.052,0.833,0.126
		c-0.173,0.525-0.479,0.892-0.833,0.946V3.155z M22.321,3.538c0.117-0.077,0.253-0.144,0.4-0.2c0.112,0.33,0.274,0.606,0.471,0.795
		C22.85,4.017,22.55,3.809,22.321,3.538z M23.727,4.229c-0.357-0.05-0.667-0.417-0.842-0.945c0.252-0.076,0.537-0.122,0.842-0.129
		V4.229z M23.727,2.979c-0.319,0.008-0.623,0.059-0.891,0.141c-0.055-0.209-0.091-0.438-0.102-0.68h0.992V2.979z M23.727,2.266
		h-0.995c0.001-0.293,0.039-0.57,0.105-0.819c0.268,0.082,0.571,0.132,0.89,0.14V2.266z M23.727,0.338v1.074
		c-0.305-0.008-0.589-0.053-0.842-0.128C23.061,0.754,23.369,0.388,23.727,0.338z M23.192,0.433
		c-0.196,0.189-0.358,0.465-0.471,0.795c-0.149-0.055-0.284-0.122-0.4-0.199C22.55,0.759,22.85,0.55,23.192,0.433z M22.219,1.162
		c0.132,0.089,0.285,0.166,0.454,0.229c-0.072,0.266-0.114,0.563-0.116,0.875h-0.695C21.865,1.855,21.998,1.475,22.219,1.162z
		 M22.56,2.44c0.013,0.261,0.052,0.509,0.113,0.735c-0.169,0.063-0.322,0.14-0.454,0.229c-0.195-0.278-0.321-0.608-0.35-0.965H22.56
		z"/>
	<path d="M25.767,6.685l-0.318,0.55l-0.816,0.327l0.414,1.033l0.817-0.329l0.609,0.178L29.22,7.34l0.244,0.608l0.829-0.333
		l-0.249-0.622l1.342-0.54l-0.695-1.73l-1.343,0.538l-0.273-0.68l-0.829,0.333l0.27,0.669L25.767,6.685z M29.124,7.103l-2.665,1.07
		L25.85,7.997l-0.662,0.266l-0.224-0.559l0.66-0.266l0.319-0.549l2.666-1.071L29.124,7.103z"/>
	<path d="M12.38,2.011c0.552-0.092,0.924-0.616,0.831-1.167c-0.092-0.55-0.615-0.924-1.167-0.831
		c-0.55,0.092-0.923,0.616-0.832,1.166C11.307,1.731,11.829,2.104,12.38,2.011z M12.132,0.533c0.266-0.044,0.516,0.134,0.561,0.4
		c0.045,0.264-0.135,0.516-0.399,0.561s-0.517-0.135-0.561-0.399C11.688,0.828,11.868,0.577,12.132,0.533z"/>
	<path d="M12.43,2.298c-0.553,0.092-0.925,0.616-0.832,1.167c0.092,0.55,0.615,0.923,1.167,0.83
		c0.551-0.092,0.924-0.616,0.829-1.166C13.502,2.578,12.979,2.206,12.43,2.298z M13.075,3.216c0.046,0.265-0.133,0.516-0.399,0.561
		c-0.264,0.044-0.516-0.136-0.56-0.4c-0.045-0.264,0.134-0.516,0.399-0.56C12.78,2.772,13.031,2.951,13.075,3.216z"/>
	<path d="M10.605,2.45L9.128,4.581l1.175-0.197l1.481-2.129L9.693,0.723l-1.2,0.097l2.116,1.63H10.605z M11.048,2.08
		c0.141-0.025,0.274,0.071,0.299,0.211c0.024,0.141-0.07,0.274-0.212,0.299c-0.142,0.023-0.274-0.071-0.297-0.212
		C10.813,2.236,10.908,2.102,11.048,2.08z"/>
	<path d="M25.076,13.478l-4.678-0.66l0.291,1.34l0.661,0.062l0.297,1.377l-0.58,0.315l0.299,1.383l3.991-2.513L25.076,13.478z
		 M22.518,15.129l-0.176-0.82l1.424,0.13l0.003,0.012L22.518,15.129z"/>
	<path d="M18.293,19.397c-0.057-0.071-0.122-0.129-0.197-0.176c-0.074-0.046-0.151-0.083-0.229-0.109
		c0.132-0.073,0.237-0.163,0.317-0.269c0.079-0.106,0.119-0.248,0.119-0.427c0-0.089-0.016-0.186-0.044-0.291
		c-0.031-0.104-0.088-0.201-0.173-0.291c-0.083-0.089-0.2-0.163-0.347-0.221c-0.148-0.058-0.338-0.087-0.569-0.087h-1.944v3.549
		h2.015c0.154,0,0.307-0.023,0.456-0.069s0.28-0.115,0.396-0.205c0.116-0.089,0.211-0.2,0.281-0.335
		c0.072-0.134,0.107-0.291,0.107-0.47c0-0.128-0.017-0.242-0.052-0.342C18.395,19.554,18.348,19.469,18.293,19.397z M16.319,18.371
		h0.576c0.114,0,0.203,0.019,0.271,0.055c0.068,0.036,0.102,0.099,0.102,0.189c0,0.115-0.032,0.193-0.099,0.232
		c-0.066,0.041-0.158,0.061-0.274,0.061h-0.576V18.371z M17.353,20.062c-0.022,0.043-0.054,0.077-0.094,0.102
		c-0.04,0.024-0.085,0.042-0.137,0.052c-0.052,0.01-0.105,0.015-0.161,0.015h-0.642v-0.662h0.687c0.254,0,0.381,0.108,0.381,0.323
		C17.387,19.961,17.376,20.018,17.353,20.062z"/>
	<path d="M3.271,8.75c0.216,0.244,0.456,0.44,0.718,0.585C4.25,9.482,4.521,9.569,4.805,9.596c0.281,0.028,0.564-0.006,0.851-0.1
		c0.289-0.094,0.567-0.26,0.836-0.499c0.241-0.214,0.421-0.445,0.538-0.693c0.118-0.247,0.183-0.494,0.195-0.74
		c0.013-0.245-0.021-0.479-0.101-0.703C7.045,6.639,6.932,6.443,6.785,6.276L5.78,7.165c0.054,0.091,0.097,0.182,0.131,0.273
		C5.945,7.53,5.963,7.62,5.965,7.706c0.002,0.087-0.015,0.171-0.05,0.252C5.879,8.04,5.818,8.118,5.731,8.195
		C5.61,8.302,5.486,8.366,5.358,8.383C5.232,8.402,5.105,8.389,4.98,8.346C4.855,8.301,4.735,8.234,4.617,8.145
		C4.5,8.056,4.391,7.956,4.292,7.844C4.193,7.731,4.107,7.613,4.033,7.485C3.959,7.357,3.908,7.229,3.878,7.1
		C3.85,6.97,3.852,6.844,3.885,6.719C3.92,6.596,3.997,6.48,4.118,6.374C4.224,6.281,4.327,6.225,4.43,6.205
		c0.102-0.019,0.196-0.02,0.283-0.003C4.801,6.22,4.874,6.248,4.938,6.289S5.05,6.363,5.085,6.388l0.993-0.881
		c-0.413-0.379-0.845-0.573-1.297-0.58C4.331,4.92,3.875,5.119,3.414,5.521C3.155,5.75,2.962,5.996,2.829,6.262
		c-0.131,0.266-0.204,0.54-0.216,0.822C2.601,7.366,2.649,7.65,2.758,7.933C2.87,8.217,3.04,8.488,3.271,8.75z"/>
</g>
<g>
</g>
<g>
</g>
<g>
</g>
<g>
</g>
<g>
</g>
<g>
</g>
<g>
</g>
<g>
</g>
<g>
</g>
<g>
</g>
<g>
</g>
<g>
</g>
<g>
</g>
<g>
</g>
<g>
</g>
</svg>
