<?xml version="1.0" encoding="iso-8859-1"?>
<!-- Generator: Adobe Illustrator 16.0.0, SVG Export Plug-In . SVG Version: 6.00 Build 0)  -->
<!DOCTYPE svg PUBLIC "-//W3C//DTD SVG 1.1//EN" "http://www.w3.org/Graphics/SVG/1.1/DTD/svg11.dtd">
<svg version="1.1" id="Layer_1" xmlns="http://www.w3.org/2000/svg" xmlns:xlink="http://www.w3.org/1999/xlink" x="0px" y="0px"
	 width="29.707px" height="29.707px" viewBox="0 0 29.707 29.707" style="enable-background:new 0 0 29.707 29.707;"
	 xml:space="preserve">
<g>
	<path d="M12.818,10.603l-2.419,12.695h-0.002L0.173,24.812l13.642,4.896l12.146-1.632l3.746-15.816L12.818,10.603z M10.419,27.798
		l-3.349-1.28l1.615-0.215l3.757,1.255L10.419,27.798z M24.852,26.748L11.34,22.925l0.704-3.635c0.014,0.021,0.021,0.04,0.036,0.061
		c0.16,0.227,0.389,0.456,0.692,0.692c0.329,0.256,0.637,0.426,0.923,0.508c0.286,0.085,0.544,0.112,0.773,0.085
		c0.229-0.025,0.428-0.092,0.595-0.2c0.167-0.106,0.299-0.22,0.395-0.344c0.118-0.15,0.198-0.292,0.246-0.419
		c0.048-0.129,0.073-0.246,0.077-0.351c0.005-0.106-0.008-0.2-0.037-0.281c-0.03-0.083-0.06-0.153-0.093-0.212
		c-0.032-0.06-0.062-0.105-0.087-0.139c-0.026-0.033-0.038-0.054-0.032-0.062l0.009-0.012c0.003-0.004,0.039,0.01,0.103,0.042
		c0.065,0.032,0.152,0.047,0.26,0.045c0.108-0.004,0.235-0.041,0.38-0.111c0.146-0.07,0.302-0.212,0.467-0.426
		c0.065-0.083,0.12-0.206,0.16-0.368c0.041-0.16,0.044-0.342,0.005-0.546c-0.035-0.203-0.125-0.42-0.267-0.651
		c-0.14-0.231-0.357-0.462-0.65-0.688c-0.229-0.179-0.466-0.317-0.711-0.418s-0.489-0.156-0.731-0.164
		c-0.245-0.005-0.48,0.046-0.705,0.15c-0.225,0.105-0.433,0.276-0.623,0.514l1.092,0.85c0.063-0.088,0.132-0.152,0.21-0.191
		c0.076-0.039,0.157-0.061,0.241-0.064c0.083-0.004,0.168,0.012,0.254,0.045c0.087,0.032,0.168,0.079,0.246,0.139
		c0.058,0.046,0.114,0.1,0.167,0.163c0.054,0.063,0.095,0.13,0.124,0.195c0.028,0.065,0.041,0.136,0.039,0.207
		c-0.004,0.072-0.029,0.14-0.078,0.202c-0.061,0.076-0.126,0.126-0.198,0.147c-0.073,0.022-0.147,0.024-0.222,0.009
		c-0.076-0.014-0.148-0.043-0.218-0.086c-0.07-0.042-0.137-0.086-0.198-0.135c-0.078-0.062-0.14-0.114-0.188-0.16
		c-0.047-0.048-0.092-0.088-0.131-0.125l-0.614,0.789c0.049,0.025,0.1,0.053,0.152,0.086c0.053,0.031,0.121,0.08,0.207,0.147
		c0.065,0.051,0.127,0.108,0.186,0.168c0.059,0.062,0.101,0.127,0.128,0.197c0.025,0.071,0.032,0.146,0.021,0.222
		c-0.01,0.079-0.05,0.162-0.12,0.253c-0.13,0.166-0.27,0.244-0.419,0.237c-0.149-0.008-0.308-0.075-0.475-0.206
		c-0.101-0.078-0.183-0.163-0.244-0.256c-0.063-0.09-0.094-0.19-0.098-0.299c-0.03-0.192,0.042-0.395,0.219-0.605l-0.871-0.677
		l1.071-5.527l14.495,1.703L24.852,26.748z"/>
	<path d="M3.921,18.997l0.96,0.565l0.639-1.088l2.676,1.572l0.814-1.388l-4.642-2.729l-0.643,1.095
		c0.185,0.121,0.318,0.261,0.401,0.421c0.084,0.158,0.126,0.326,0.128,0.5c0.002,0.176-0.027,0.353-0.088,0.532
		C4.106,18.657,4.024,18.831,3.921,18.997z"/>
	<path d="M20.039,17.99l3.883-2.798l-0.659-0.914c-0.165,0.106-0.327,0.167-0.486,0.177c-0.16,0.011-0.312-0.015-0.453-0.076
		c-0.144-0.061-0.276-0.147-0.401-0.262c-0.124-0.113-0.235-0.243-0.333-0.386l-0.804,0.578l0.654,0.908l-2.236,1.611L20.039,17.99z
		"/>
	<path d="M14.151,8.982c-0.029-0.106-0.035-0.204-0.016-0.292c0.02-0.087,0.06-0.166,0.115-0.232
		c0.057-0.068,0.125-0.127,0.207-0.175c0.082-0.049,0.171-0.089,0.264-0.117l-0.183-0.53l-0.6,0.206l-0.509-1.476L12.666,6.63
		l0.883,2.562L14.151,8.982z"/>
	<path d="M2.205,21.832c0.12,0.023,0.237,0.036,0.351,0.037s0.222-0.017,0.325-0.053c0.103-0.036,0.195-0.107,0.278-0.212
		c0.067-0.088,0.111-0.175,0.131-0.266c0.019-0.091,0.017-0.182-0.01-0.271c-0.025-0.09-0.071-0.176-0.137-0.263
		c-0.066-0.086-0.148-0.168-0.246-0.246c-0.111-0.087-0.223-0.149-0.337-0.188c-0.113-0.039-0.224-0.052-0.334-0.04
		c-0.108,0.013-0.213,0.051-0.313,0.114c-0.099,0.066-0.19,0.156-0.273,0.274l0.444,0.351c0.075-0.104,0.157-0.172,0.242-0.204
		c0.087-0.033,0.176-0.013,0.27,0.062c0.056,0.044,0.091,0.096,0.107,0.154c0.015,0.061-0.007,0.128-0.066,0.203
		c-0.023,0.029-0.053,0.051-0.086,0.062c-0.033,0.014-0.068,0.02-0.106,0.02s-0.076,0-0.114-0.006
		c-0.038-0.004-0.072-0.009-0.104-0.013c-0.076-0.009-0.155-0.02-0.234-0.03c-0.082-0.012-0.161-0.021-0.24-0.024
		c-0.078-0.005-0.156-0.005-0.233,0c-0.077,0.006-0.151,0.019-0.224,0.038c-0.084,0.024-0.164,0.061-0.238,0.111
		c-0.074,0.05-0.142,0.118-0.2,0.201l1.423,1.122l0.316-0.4l-0.744-0.587l0.003-0.002C1.969,21.79,2.087,21.808,2.205,21.832z"/>
	<path d="M26.159,4.103l0.707-0.39c-0.094-0.156-0.139-0.303-0.135-0.435c0.006-0.131,0.082-0.237,0.232-0.318
		c0.088-0.05,0.175-0.067,0.263-0.056c0.087,0.013,0.163,0.079,0.229,0.199c0.025,0.049,0.038,0.097,0.035,0.148
		c-0.003,0.051-0.015,0.101-0.035,0.15c-0.02,0.05-0.043,0.1-0.068,0.147c-0.031,0.047-0.055,0.091-0.076,0.129
		c-0.056,0.096-0.112,0.193-0.172,0.292c-0.06,0.102-0.115,0.201-0.164,0.304c-0.05,0.1-0.094,0.204-0.13,0.308
		c-0.034,0.104-0.06,0.211-0.074,0.315c-0.015,0.124-0.012,0.25,0.014,0.375c0.026,0.126,0.077,0.252,0.156,0.377l2.269-1.252
		l-0.354-0.639l-1.186,0.654L27.67,4.407c0.081-0.143,0.17-0.287,0.266-0.431c0.099-0.146,0.18-0.291,0.244-0.441
		c0.065-0.147,0.103-0.3,0.111-0.456c0.01-0.153-0.031-0.316-0.124-0.483c-0.077-0.14-0.17-0.245-0.278-0.322
		c-0.108-0.074-0.228-0.121-0.359-0.138c-0.132-0.015-0.273-0.002-0.424,0.035c-0.15,0.038-0.304,0.101-0.462,0.188
		c-0.175,0.098-0.318,0.21-0.434,0.34c-0.114,0.127-0.194,0.266-0.238,0.417c-0.043,0.151-0.051,0.309-0.021,0.476
		C25.98,3.757,26.048,3.928,26.159,4.103z"/>
	<path d="M0.568,10.523c0.144,0.151,0.292,0.262,0.441,0.325c0.148,0.066,0.293,0.094,0.432,0.089
		c0.141-0.006,0.263-0.03,0.364-0.07c0.125-0.05,0.224-0.106,0.299-0.169c0.074-0.062,0.132-0.123,0.17-0.185
		c0.041-0.063,0.066-0.126,0.078-0.186c0.012-0.061,0.017-0.115,0.018-0.161c0.002-0.05,0-0.088-0.003-0.116
		c-0.005-0.029-0.004-0.047,0.002-0.049l0.01-0.004c0.003-0.002,0.021,0.021,0.047,0.063c0.029,0.041,0.076,0.08,0.143,0.118
		c0.067,0.037,0.158,0.058,0.271,0.066c0.113,0.01,0.259-0.022,0.437-0.094c0.07-0.028,0.146-0.085,0.228-0.168
		C3.585,9.901,3.652,9.79,3.7,9.651C3.751,9.515,3.774,9.351,3.769,9.16C3.766,8.971,3.713,8.752,3.615,8.509
		C3.539,8.32,3.443,8.151,3.33,8.003C3.216,7.854,3.087,7.735,2.941,7.644c-0.147-0.089-0.31-0.142-0.482-0.157
		C2.284,7.471,2.097,7.501,1.896,7.579l0.365,0.904C2.331,8.451,2.396,8.438,2.458,8.44c0.061,0.003,0.116,0.02,0.169,0.047
		c0.052,0.027,0.099,0.066,0.14,0.117c0.04,0.051,0.074,0.107,0.1,0.172C2.886,8.823,2.9,8.878,2.911,8.936
		C2.921,8.993,2.923,9.047,2.918,9.1c-0.008,0.05-0.022,0.096-0.05,0.138C2.839,9.281,2.801,9.313,2.749,9.335
		C2.685,9.359,2.628,9.366,2.576,9.354s-0.1-0.037-0.14-0.073C2.396,9.243,2.363,9.202,2.335,9.15
		c-0.029-0.05-0.054-0.102-0.073-0.152C2.234,8.934,2.216,8.879,2.204,8.835C2.192,8.789,2.179,8.748,2.168,8.71L1.514,8.975
		c0.021,0.033,0.041,0.068,0.063,0.106C1.597,9.12,1.622,9.173,1.65,9.245c0.021,0.056,0.039,0.109,0.054,0.168
		C1.718,9.47,1.722,9.526,1.712,9.578c-0.008,0.053-0.031,0.1-0.066,0.145c-0.033,0.044-0.088,0.08-0.161,0.111
		C1.347,9.888,1.233,9.887,1.144,9.831c-0.088-0.061-0.16-0.156-0.217-0.295C0.894,9.452,0.874,9.371,0.869,9.293
		C0.863,9.216,0.88,9.143,0.915,9.075c0.05-0.128,0.165-0.225,0.349-0.29L0.896,7.871c-0.044,0.013-0.104,0.036-0.185,0.07
		C0.631,7.977,0.548,8.025,0.46,8.091c-0.086,0.068-0.168,0.15-0.246,0.251C0.137,8.442,0.079,8.565,0.042,8.709
		C0.001,8.854-0.009,9.023,0.007,9.217c0.018,0.196,0.076,0.418,0.178,0.67C0.294,10.16,0.422,10.372,0.568,10.523z"/>
	<path d="M13.174,2.715c0.068,0.097,0.167,0.195,0.298,0.297c0.141,0.11,0.272,0.184,0.396,0.219
		c0.123,0.036,0.234,0.048,0.332,0.036c0.099-0.011,0.184-0.039,0.255-0.086c0.072-0.046,0.13-0.095,0.171-0.147
		c0.05-0.065,0.084-0.126,0.104-0.181s0.032-0.105,0.034-0.149c0.003-0.046-0.005-0.087-0.017-0.122
		c-0.013-0.035-0.026-0.065-0.04-0.091s-0.025-0.044-0.037-0.059s-0.018-0.023-0.015-0.028l0.005-0.004
		c0.002-0.001,0.017,0.004,0.044,0.019c0.028,0.014,0.065,0.02,0.112,0.02c0.046-0.001,0.101-0.018,0.163-0.048
		c0.062-0.03,0.129-0.092,0.2-0.184c0.028-0.035,0.051-0.089,0.069-0.158c0.018-0.069,0.019-0.146,0.001-0.234
		c-0.015-0.089-0.053-0.181-0.113-0.279c-0.061-0.101-0.154-0.199-0.28-0.297c-0.099-0.076-0.201-0.136-0.306-0.18
		c-0.105-0.044-0.211-0.067-0.313-0.07c-0.105-0.002-0.208,0.021-0.304,0.064c-0.096,0.045-0.187,0.12-0.268,0.222l0.469,0.364
		c0.027-0.037,0.058-0.064,0.091-0.082c0.033-0.017,0.066-0.025,0.104-0.028c0.036-0.001,0.071,0.006,0.109,0.019
		c0.037,0.016,0.071,0.035,0.105,0.063c0.024,0.018,0.049,0.041,0.071,0.069c0.022,0.027,0.04,0.055,0.055,0.084
		c0.012,0.028,0.018,0.058,0.016,0.089c-0.002,0.03-0.014,0.06-0.033,0.086c-0.026,0.033-0.055,0.055-0.085,0.064
		c-0.031,0.008-0.063,0.01-0.097,0.004c-0.032-0.007-0.063-0.02-0.093-0.037c-0.031-0.019-0.059-0.038-0.086-0.06
		c-0.033-0.025-0.059-0.048-0.08-0.068c-0.02-0.021-0.04-0.037-0.057-0.054l-0.264,0.339c0.021,0.011,0.042,0.023,0.065,0.037
		c0.022,0.015,0.053,0.035,0.089,0.063c0.027,0.021,0.056,0.046,0.079,0.073c0.025,0.025,0.045,0.054,0.055,0.084
		c0.013,0.029,0.016,0.062,0.01,0.095c-0.004,0.034-0.021,0.07-0.052,0.109c-0.056,0.072-0.114,0.104-0.179,0.103
		c-0.064-0.004-0.134-0.032-0.204-0.089c-0.044-0.033-0.079-0.07-0.104-0.11c-0.028-0.04-0.042-0.082-0.043-0.129
		c-0.013-0.082,0.018-0.169,0.094-0.259l-0.473-0.37c-0.02,0.021-0.044,0.052-0.077,0.094c-0.03,0.044-0.059,0.095-0.085,0.156
		c-0.024,0.062-0.043,0.131-0.053,0.207s-0.002,0.158,0.021,0.248C13.06,2.524,13.105,2.616,13.174,2.715z"/>
	<path d="M16.855,6.789l3.737,0.528l1.226-0.784l-1.29-2.013l0.9-0.576L20.56,2.588l-0.898,0.577l-0.393-0.613L18.16,3.263
		l0.393,0.611l-2.528,1.617L16.855,6.789z M19.421,5.229l0.71,1.108l-1.98-0.294L19.421,5.229z"/>
	<path d="M10.293,11.802l-1.835-0.426l0.191-0.819L7.414,10.27l-0.188,0.819L6.667,10.96l-0.235,1.008l0.558,0.129L6.454,14.4
		l1.182,0.274l2.398-1.757L10.293,11.802z M7.956,13.541l0.268-1.157l1.011,0.234L7.956,13.541z"/>
	<path d="M23.696,20.396l-2.816-0.07l-0.844,0.688l1.132,1.384l-0.617,0.505l0.76,0.93l0.618-0.504l0.344,0.42l0.76-0.621
		l-0.343-0.422l1.735-1.418L23.696,20.396z M21.929,21.776l-0.623-0.763l1.495,0.049L21.929,21.776z"/>
	<path d="M3.247,5.935c0.191,0.273,0.45,0.552,0.779,0.836c0.383,0.333,0.767,0.581,1.149,0.747
		c0.382,0.164,0.747,0.253,1.095,0.261c0.347,0.009,0.673-0.057,0.978-0.197C7.555,7.443,7.824,7.236,8.06,6.965
		C8.33,6.652,8.521,6.34,8.627,6.028C8.734,5.718,8.772,5.421,8.74,5.137s-0.124-0.554-0.274-0.81
		C8.315,4.07,8.121,3.839,7.885,3.635C7.686,3.463,7.463,3.308,7.218,3.171C6.972,3.034,6.712,2.957,6.442,2.938L6.441,2.908
		l0.767-0.573l2.493,2.16l1.134-1.31L7.156,0L3.929,2.606l1.431,1.238C5.55,3.794,5.73,3.797,5.905,3.854
		C6.08,3.909,6.258,4.017,6.438,4.172c0.229,0.2,0.358,0.427,0.387,0.679C6.854,5.104,6.765,5.35,6.56,5.585
		C6.373,5.8,6.144,5.905,5.873,5.897C5.602,5.892,5.353,5.792,5.129,5.597c-0.118-0.101-0.216-0.211-0.298-0.33
		C4.751,5.148,4.7,5.025,4.677,4.896C4.64,4.713,4.671,4.532,4.77,4.357L3.246,3.038C3.16,3.115,3.075,3.224,2.99,3.362
		C2.907,3.5,2.838,3.661,2.782,3.842c-0.053,0.184-0.08,0.384-0.078,0.604c0.001,0.221,0.045,0.457,0.13,0.706
		S3.056,5.661,3.247,5.935z"/>
	<path d="M23.104,9.235c0.123,0.109,0.255,0.186,0.394,0.225c0.14,0.041,0.283,0.049,0.433,0.029
		c0.148-0.021,0.294-0.066,0.436-0.139c0.118-0.06,0.234-0.134,0.345-0.223c0.111-0.088,0.198-0.193,0.26-0.316l0.014,0.004
		l0.12,0.471l-1.491,0.747l0.393,0.783l2.2-1.104l-0.594-2.012L24.756,8.13c-0.013,0.1-0.05,0.182-0.109,0.253
		c-0.061,0.072-0.145,0.133-0.253,0.189c-0.137,0.067-0.268,0.084-0.392,0.048c-0.123-0.035-0.221-0.123-0.292-0.266
		c-0.064-0.129-0.069-0.256-0.014-0.382s0.15-0.223,0.285-0.29c0.07-0.035,0.141-0.059,0.212-0.073
		c0.071-0.016,0.138-0.016,0.203-0.002c0.093,0.019,0.171,0.067,0.234,0.147l0.911-0.456c-0.021-0.056-0.054-0.116-0.103-0.184
		c-0.05-0.065-0.109-0.129-0.184-0.189c-0.075-0.061-0.164-0.11-0.269-0.154c-0.103-0.042-0.222-0.066-0.354-0.074
		c-0.133-0.009-0.282,0.005-0.446,0.041c-0.165,0.036-0.345,0.104-0.542,0.202c-0.229,0.116-0.419,0.248-0.569,0.395
		c-0.153,0.146-0.264,0.3-0.333,0.461c-0.072,0.161-0.105,0.325-0.1,0.495c0.006,0.169,0.052,0.335,0.132,0.498
		C22.87,8.977,22.979,9.125,23.104,9.235z"/>
</g>
<g>
</g>
<g>
</g>
<g>
</g>
<g>
</g>
<g>
</g>
<g>
</g>
<g>
</g>
<g>
</g>
<g>
</g>
<g>
</g>
<g>
</g>
<g>
</g>
<g>
</g>
<g>
</g>
<g>
</g>
</svg>
