<?xml version="1.0" encoding="utf-8"?>
<!-- Generator: Adobe Illustrator 17.0.0, SVG Export Plug-In . SVG Version: 6.00 Build 0)  -->
<!DOCTYPE svg PUBLIC "-//W3C//DTD SVG 1.1//EN" "http://www.w3.org/Graphics/SVG/1.1/DTD/svg11.dtd">
<svg version="1.1" id="Layer_1" xmlns="http://www.w3.org/2000/svg" xmlns:xlink="http://www.w3.org/1999/xlink" x="0px" y="0px"
	 width="18.926px" height="14.479px" viewBox="0 0 18.926 14.479" enable-background="new 0 0 18.926 14.479" xml:space="preserve">
<g>
	<path fill="#070909" d="M7.637,10.157V6.679l0.254,0.279V1.733C8.915,0.871,10.17,0.43,11.629,0.43
		c1.108,0,2.013,0.261,2.345,0.371v4.204l1.023-0.53c0-1.374,0-2.465,0-2.617c0-0.2-0.226-0.33-0.594-0.409V0.503l-0.136-0.054
		C14.22,0.431,13.11,0,11.629,0c-1.585,0-2.951,0.483-4.064,1.436C6.453,0.483,5.088,0,3.501,0C2.02,0,0.911,0.431,0.865,0.449
		L0.728,0.503v0.875C0.279,1.461,0,1.612,0,1.857c0,1.276,0,9.017,0,9.017h6.641c0.23,0.206,0.565,0.336,0.942,0.336
		c0.349,0,0.61-0.08,0.838-0.26c0,0-0.193-0.673-0.197-1.029C8.135,9.953,7.781,10.094,7.637,10.157z M7.494,10.163
		c-0.551-0.228-2.45-0.949-4.352-0.949c-0.752,0-1.417,0.115-1.985,0.343V0.801C1.488,0.69,2.39,0.43,3.501,0.43
		c1.46,0,2.714,0.442,3.74,1.303v5.225l0.253-0.279V10.163z"/>
	<path fill="#070909" d="M16.652,6.779c-1.229-0.206-2.242,0.357-2.65,0.63c0.017-0.358,0.037-0.754,0.045-0.983
		c0.012-0.31,0.557-0.473,0.821-0.724c0.157-0.149-0.004-0.542-0.004-0.542s-1.36,0.603-1.324,1.187
		c0.017,0.285,0.021,0.682,0.02,1.015c-0.382-0.254-1.188-0.67-2.324-0.616c-1.57,0.074-2.599,1.227-2.569,2.938
		c0.03,2.371,2.134,4.374,3.602,4.374c0.361,0,0.656-0.046,0.887-0.103l-0.028,0.171l0.27-0.139l0.128,0.493l0.169-0.422
		l0.279,0.296v-0.296l0.369,0.113l-0.087-0.266c0.236,0.08,0.59,0.159,1.061,0.159c1.468,0,3.58-1.587,3.61-3.959
		C18.954,8.393,18.253,7.048,16.652,6.779z M10.83,11.784c-0.593-0.76-0.415-1.841-0.415-1.841s0.398,1.001,0.806,1.62
		c0.408,0.619,1.107,1.114,1.107,1.114S11.424,12.544,10.83,11.784z"/>
</g>
</svg>
