<?xml version="1.0" encoding="iso-8859-1"?>
<!-- Generator: Adobe Illustrator 16.0.0, SVG Export Plug-In . SVG Version: 6.00 Build 0)  -->
<!DOCTYPE svg PUBLIC "-//W3C//DTD SVG 1.1//EN" "http://www.w3.org/Graphics/SVG/1.1/DTD/svg11.dtd">
<svg version="1.1" id="Layer_1" xmlns="http://www.w3.org/2000/svg" xmlns:xlink="http://www.w3.org/1999/xlink" x="0px" y="0px"
	 width="30.694px" height="26.009px" viewBox="0 0 30.694 26.009" style="enable-background:new 0 0 30.694 26.009;"
	 xml:space="preserve">
<g>
	<path d="M17.246,6.077c0.023-0.013,0.045-0.027,0.069-0.042c0.112-0.068,0.234-0.133,0.36-0.2c0.126-0.067,0.261-0.13,0.397-0.193
		c0.069-0.032,0.141-0.06,0.212-0.089l0.107-0.044c0.046-0.018,0.075-0.025,0.113-0.039l0.215-0.071
		c0.075-0.021,0.148-0.042,0.222-0.063c0.148-0.042,0.292-0.078,0.431-0.107c0.279-0.063,0.541-0.109,0.768-0.144
		c0.451-0.069,0.759-0.082,0.759-0.082s-0.071,0.03-0.194,0.083c-0.124,0.051-0.301,0.121-0.513,0.201
		c-0.107,0.039-0.222,0.082-0.345,0.126c-0.122,0.043-0.25,0.089-0.384,0.136c-0.131,0.047-0.267,0.096-0.405,0.145
		c-0.135,0.046-0.276,0.1-0.418,0.155c-0.131,0.05-0.269,0.115-0.403,0.167c-0.133,0.061-0.362,0.141-0.491,0.197
		c-0.156,0.065-0.256,0.101-0.354,0.153c-1.112,0.647-1.603,1.795-1.903,3.009c-0.053-1.14-0.293-2.247-1.116-3.063
		c0,0,0.001-0.001,0.002-0.001c-0.111-0.104-0.228-0.217-0.347-0.338c-0.099-0.101-0.202-0.202-0.302-0.309
		c-0.104-0.101-0.206-0.212-0.309-0.31c-0.11-0.104-0.22-0.208-0.327-0.301c-0.109-0.099-0.215-0.195-0.319-0.289
		c-0.105-0.095-0.207-0.186-0.303-0.272c-0.096-0.087-0.186-0.17-0.269-0.248c-0.166-0.156-0.304-0.287-0.398-0.382
		c-0.094-0.096-0.146-0.15-0.146-0.15s0.279,0.13,0.67,0.365c0.195,0.118,0.42,0.262,0.653,0.426
		c0.118,0.08,0.236,0.168,0.358,0.263c0.06,0.048,0.12,0.096,0.181,0.143l0.171,0.148c0.03,0.027,0.054,0.044,0.089,0.079
		l0.083,0.082c0.056,0.053,0.111,0.107,0.163,0.163c0.102,0.111,0.203,0.22,0.293,0.33c0.091,0.111,0.179,0.217,0.256,0.323
		c0.016,0.023,0.032,0.043,0.048,0.066c0.243-0.396,0.253-1.578-0.797-2.375c-1.142-0.865-2.735-0.477-3.402-0.796
		c0.674,1.03,0.544,1.717,1.676,2.848c0.756,0.757,1.462,0.804,1.938,0.672C15,7.38,15.151,8.801,15.152,10.16
		c-0.1-0.081-0.22-0.144-0.358-0.144c-0.392,0-0.677,0.221-0.814,0.535c-0.862-0.293-1.434,0.389-1.484,0.963
		c-0.41-0.153-0.93,0.32-0.93,0.729c0,0.405,0.319,0.732,0.72,0.75l6.345,0.011c0,0,0.676-0.364,0.676-0.761
		c0-0.416-0.337-0.752-0.752-0.752c-0.057,0-0.113,0.008-0.166,0.02c0.003-0.029-0.073-1.308-1.182-0.793
		c-0.087-0.4-0.2-0.701-0.867-0.701c-0.328,0-0.551,0.12-0.693,0.241c0.278-1.413,0.707-2.889,1.958-3.619
		c0.014-0.007,0.021-0.019,0.03-0.028c0.387,0.311,1.063,0.551,2.066,0.134c1.478-0.614,1.62-1.299,2.636-1.994
		c-0.738,0.042-2.063-0.926-3.45-0.562C17.615,4.522,17.172,5.619,17.246,6.077z M15.438,10.509c0,0-0.004-0.008-0.007-0.015
		l0.041-0.041C15.451,10.485,15.438,10.509,15.438,10.509z"/>
	<path d="M28.526,16.182H2.168L0,26.009h30.694L28.526,16.182z M12.317,24.656l0.442-2.003h5.176l0.441,2.003H12.317z"/>
	<path d="M28.457,15.56V9.528h0V0h-9.889h-6.44H2.237v9.528v6.031H28.457L28.457,15.56z M26.593,14.004H4.103V1.864h8.422h5.645
		h8.423V14.004z"/>
</g>
<g>
</g>
<g>
</g>
<g>
</g>
<g>
</g>
<g>
</g>
<g>
</g>
<g>
</g>
<g>
</g>
<g>
</g>
<g>
</g>
<g>
</g>
<g>
</g>
<g>
</g>
<g>
</g>
<g>
</g>
</svg>
