<?xml version="1.0" encoding="utf-8"?>
<!-- Generator: Adobe Illustrator 17.0.0, SVG Export Plug-In . SVG Version: 6.00 Build 0)  -->
<!DOCTYPE svg PUBLIC "-//W3C//DTD SVG 1.1//EN" "http://www.w3.org/Graphics/SVG/1.1/DTD/svg11.dtd">
<svg version="1.1" id="Icons" xmlns="http://www.w3.org/2000/svg" xmlns:xlink="http://www.w3.org/1999/xlink" x="0px" y="0px"
	 width="29.934px" height="23px" viewBox="5.066 15.029 29.934 23" enable-background="new 5.066 15.029 29.934 23"
	 xml:space="preserve">
<path id="Github__x28_alt_x29_" d="M26.903,15.029c0.39,0.886,0.643,2.357,0.266,3.434c1.542,1.316,2.071,4.516,1.327,7.131
	c2.197,0.168,4.814-0.081,6.504,0.594c-1.579-0.203-3.736-0.601-5.773-0.463c-0.386,0.026-0.958-0.015-0.93,0.528
	c2.358,0.185,4.701,0.387,6.638,0.991c-1.92-0.314-4.251-0.791-6.638-0.858c-0.986,1.945-2.969,2.901-5.707,3.102
	c0.294,0.64,0.858,0.884,0.996,1.915c0.205,1.539-0.321,3.794,0.198,4.82c0.249,0.492,0.656,0.505,0.93,0.925
	c-0.671,0.794-2.334-0.089-2.523-0.925c-0.324-1.432,0.494-3.651-0.398-4.622c0.063,1.561-0.369,3.755,0.066,5.15
	c0.172,0.549,0.667,0.76,0.531,1.255c-3.117,0.317-1.815-4.035-2.324-6.603c-0.47,0.033-0.264,0.704-0.265,0.991
	c-0.013,2.508,0.513,5.948-2.19,5.612c-0.079-0.527,0.363-0.706,0.531-1.188c0.493-1.411-0.092-3.514,0.134-5.217
	c-1.032,0.778,0.108,3.493-0.531,4.886c-0.368,0.801-1.555,1.15-2.456,0.792c0.117-0.597,0.733-0.5,0.995-1.056
	c0.365-0.775,0.003-1.891,0.133-3.037c-1.91,0.381-3.391-0.055-4.116-1.255c-0.324-0.538-0.405-1.173-0.797-1.65
	c-0.39-0.477-1.013-0.542-1.194-1.188c2.365-0.569,2.456,2.434,4.58,2.508c0.651,0.024,0.99-0.188,1.593-0.33
	c0.169-0.757,0.53-1.322,1.062-1.718c-2.643-0.362-4.826-1.185-5.841-3.168c-2.403,0.118-4.601,0.439-6.638,0.924
	c1.848-0.671,4.128-0.912,6.572-0.991c-0.144-0.865-1.406-0.627-2.19-0.594C7.991,25.789,6.158,25.97,5,26.188
	c1.678-0.598,4.033-0.524,6.306-0.528c-0.695-2.18-0.454-5.643,1.062-6.933c-0.43-1.083-0.296-2.854,0.265-3.698
	c1.693,0.076,2.72,0.814,3.783,1.519c1.319-0.375,2.706-0.562,4.513-0.462c0.76,0.042,1.551,0.384,2.123,0.33
	c0.562-0.053,1.181-0.683,1.726-0.924C25.489,15.178,26.09,15.058,26.903,15.029z"/>
</svg>
