<?xml version="1.0" encoding="utf-8"?>
<!-- Generator: Adobe Illustrator 17.0.0, SVG Export Plug-In . SVG Version: 6.00 Build 0)  -->
<!DOCTYPE svg PUBLIC "-//W3C//DTD SVG 1.1//EN" "http://www.w3.org/Graphics/SVG/1.1/DTD/svg11.dtd">
<svg version="1.1" id="Icons" xmlns="http://www.w3.org/2000/svg" xmlns:xlink="http://www.w3.org/1999/xlink" x="0px" y="0px"
	 width="28.006px" height="28px" viewBox="0.144 0 28.006 28" enable-background="new 0.144 0 28.006 28" xml:space="preserve">
<path id="LinkedIn" d="M26.29,14.897v9.4h-5.206v-8.771c0-2.203-0.753-3.707-2.637-3.707c-1.439,0-2.294,1.014-2.671,1.994
	c-0.137,0.351-0.173,0.838-0.173,1.329v9.156h-5.208c0,0,0.07-14.855,0-16.394h5.206v2.324c-0.01,0.017-0.024,0.036-0.035,0.054
	h0.035v-0.054c0.692-1.116,1.927-2.709,4.692-2.709C23.723,7.517,26.29,9.861,26.29,14.897z M4.95,0
	C3.169,0,2.003,1.224,2.003,2.832c0,1.574,1.132,2.834,2.877,2.834h0.035c1.816,0,2.945-1.261,2.945-2.834
	C7.827,1.224,6.731,0,4.95,0z M2.313,24.297h5.205V7.903H2.313V24.297z"/>
</svg>
