<?xml version="1.0" encoding="utf-8"?>
<!-- Generator: Adobe Illustrator 17.0.0, SVG Export Plug-In . SVG Version: 6.00 Build 0)  -->
<!DOCTYPE svg PUBLIC "-//W3C//DTD SVG 1.1//EN" "http://www.w3.org/Graphics/SVG/1.1/DTD/svg11.dtd">
<svg version="1.1" id="Icons" xmlns="http://www.w3.org/2000/svg" xmlns:xlink="http://www.w3.org/1999/xlink" x="0px" y="0px"
	 width="28.081px" height="28px" viewBox="0 0 28.081 28" enable-background="new 0 0 28.081 28" xml:space="preserve">
<path id="LinkedIn" d="M27.989,17.166v10.833H21.99V17.891c0-2.539-0.868-4.272-3.039-4.272c-1.658,0-2.644,1.168-3.078,2.298
	c-0.158,0.404-0.199,0.966-0.199,1.532V28H9.672c0,0,0.081-17.119,0-18.893h6v2.678c-0.012,0.02-0.028,0.042-0.04,0.062h0.04v-0.062
	c0.797-1.286,2.221-3.122,5.407-3.122C25.03,8.661,27.989,11.362,27.989,17.166z M3.396-0.002C1.343-0.002,0,1.408,0,3.262
	c0,1.814,1.304,3.266,3.316,3.266h0.04c2.093,0,3.394-1.453,3.394-3.266C6.711,1.408,5.449-0.002,3.396-0.002z M0.357,27.998h5.998
	V9.106H0.357V27.998z"/>
</svg>
