<?xml version="1.0" encoding="utf-8"?>
<!-- Generator: Adobe Illustrator 17.0.0, SVG Export Plug-In . SVG Version: 6.00 Build 0)  -->
<!DOCTYPE svg PUBLIC "-//W3C//DTD SVG 1.1//EN" "http://www.w3.org/Graphics/SVG/1.1/DTD/svg11.dtd">
<svg version="1.1" id="Icons" xmlns="http://www.w3.org/2000/svg" xmlns:xlink="http://www.w3.org/1999/xlink" x="0px" y="0px"
	 width="28.012px" height="28.013px" viewBox="4.672 5.4 28.012 28.013" enable-background="new 4.672 5.4 28.012 28.013"
	 xml:space="preserve">
<path id="Skype" d="M31.515,21.434c0.105-0.661,0.16-1.338,0.16-2.029c0-7.178-5.818-12.996-12.997-12.996
	c-0.689,0-1.367,0.057-2.028,0.16C15.452,5.829,14.04,5.4,12.526,5.4c-4.338,0-7.854,3.516-7.854,7.854
	c0,1.514,0.429,2.925,1.169,4.125c-0.102,0.662-0.159,1.337-0.159,2.027c0,7.178,5.818,12.995,12.995,12.995
	c0.689,0,1.368-0.053,2.029-0.157c1.198,0.739,2.61,1.169,4.124,1.169c4.338,0,7.854-3.517,7.854-7.855
	C32.684,24.044,32.256,22.633,31.515,21.434z M24.848,25.316c-0.55,0.792-1.357,1.41-2.413,1.855
	c-1.058,0.446-2.307,0.668-3.751,0.668c-1.73,0-3.162-0.303-4.293-0.914c-0.801-0.438-1.453-1.025-1.954-1.757
	c-0.502-0.733-0.757-1.45-0.757-2.15c0-0.413,0.157-0.772,0.464-1.064c0.31-0.295,0.708-0.443,1.179-0.443
	c0.386,0,0.717,0.116,0.986,0.346c0.268,0.23,0.492,0.564,0.676,1.006c0.22,0.511,0.459,0.939,0.713,1.28
	c0.253,0.337,0.608,0.618,1.069,0.838c0.456,0.221,1.062,0.331,1.821,0.331c1.038,0,1.878-0.224,2.52-0.668
	c0.646-0.447,0.956-0.991,0.956-1.649c0-0.524-0.167-0.941-0.51-1.266c-0.346-0.329-0.793-0.579-1.347-0.754
	c-0.557-0.176-1.304-0.364-2.24-0.561c-1.257-0.274-2.309-0.594-3.161-0.961c-0.853-0.369-1.532-0.872-2.035-1.508
	c-0.505-0.642-0.756-1.44-0.756-2.385c0-0.901,0.265-1.708,0.797-2.409c0.531-0.703,1.3-1.242,2.302-1.617
	c0.999-0.375,2.175-0.562,3.522-0.562c1.077,0,2.009,0.124,2.798,0.373c0.787,0.25,1.442,0.58,1.966,0.993
	c0.521,0.413,0.904,0.848,1.147,1.305c0.242,0.458,0.365,0.906,0.365,1.342c0,0.406-0.157,0.774-0.464,1.097
	c-0.307,0.323-0.699,0.488-1.157,0.486c-0.413,0-0.737-0.095-0.962-0.297c-0.219-0.195-0.449-0.506-0.697-0.939
	c-0.314-0.604-0.69-1.075-1.128-1.412c-0.426-0.33-1.129-0.502-2.107-0.5c-0.905,0-1.629,0.185-2.176,0.547
	c-0.55,0.368-0.813,0.794-0.814,1.294c0.001,0.313,0.091,0.577,0.272,0.803c0.184,0.228,0.44,0.425,0.769,0.592
	c0.329,0.169,0.664,0.3,1,0.394c0.34,0.096,0.905,0.236,1.689,0.42c0.984,0.212,1.877,0.449,2.679,0.707
	c0.801,0.26,1.484,0.573,2.048,0.946c0.569,0.372,1.014,0.846,1.331,1.419c0.319,0.574,0.479,1.274,0.479,2.098
	C25.676,23.634,25.399,24.526,24.848,25.316z"/>
</svg>
