<?xml version="1.0" encoding="utf-8"?>
<!-- Generator: Adobe Illustrator 16.0.4, SVG Export Plug-In . SVG Version: 6.00 Build 0)  -->
<!DOCTYPE svg PUBLIC "-//W3C//DTD SVG 1.1//EN" "http://www.w3.org/Graphics/SVG/1.1/DTD/svg11.dtd">
<svg version="1.1" id="Capa_1" xmlns="http://www.w3.org/2000/svg" xmlns:xlink="http://www.w3.org/1999/xlink" x="0px" y="0px"
	 width="100px" height="100px" viewBox="0 0 100 100" enable-background="new 0 0 100 100" xml:space="preserve">
<g id="Layer_8">
	<path d="M31.125,45.125v2.451h35.25v-2.451H75.5v2.451h6.018c3.98,0,7.295-2.881,7.982-6.666V26.434H63.167v-6.367
		c0-0.828-0.672-1.5-1.5-1.5H38.501c-0.828,0-1.5,0.672-1.5,1.5v6.367H10.5v15.768c1.129,3.129,4.119,5.375,7.633,5.375H22v-2.451
		L31.125,45.125L31.125,45.125z M40.001,21.566h20.166v4.867H40.001V21.566z M75.5,55.875v-6.299h6.018
		c3.244,0,6.129-1.541,7.982-3.922v35.78h-79V46.08c1.857,2.137,4.587,3.496,7.633,3.496H22v6.299h9.125v-6.299h35.25v6.299H75.5z"
		/>
</g>
</svg>
