<?xml version="1.0" encoding="utf-8"?>
<!-- Generator: Adobe Illustrator 17.0.0, SVG Export Plug-In . SVG Version: 6.00 Build 0)  -->
<!DOCTYPE svg PUBLIC "-//W3C//DTD SVG 1.1//EN" "http://www.w3.org/Graphics/SVG/1.1/DTD/svg11.dtd">
<svg version="1.1" id="Layer_1" xmlns="http://www.w3.org/2000/svg" xmlns:xlink="http://www.w3.org/1999/xlink" x="0px" y="0px"
	 width="28.092px" height="29.702px" viewBox="4.337 2.752 28.092 29.702" enable-background="new 4.337 2.752 28.092 29.702"
	 xml:space="preserve">
<g>
	<g>
		<path d="M11.495,20.232c0.052,0.38,0.138,0.769,0.222,1.143l0.003,0.018c0.358,1.597,0.64,2.857-1.317,3.602l-0.379,0.175
			c-0.13,0.017-0.26,0.026-0.388,0.026c-3.218-0.002-5.19-5.163-5.3-7.814C4.163,11.87,5.499,8.73,8.302,8.054
			c0.483-0.098,1.416-0.211,2.459-0.211c1.258,0,3.518,0.173,4.522,1.327c0.43,0.493,0.593,1.134,0.486,1.905
			c-0.218,1.571-1.115,2.634-2.066,3.758C12.509,16.247,11.273,17.706,11.495,20.232z M11.792,21.378L11.792,21.378L11.792,21.378
			L11.792,21.378z"/>
	</g>
	<g>
		<path d="M15.672,7.32c-0.137,0-0.27-0.023-0.394-0.067c-0.4-0.142-0.704-0.498-0.855-1.001c-0.16-0.535-0.13-1.161,0.085-1.767
			c0.362-1.021,1.161-1.733,1.946-1.733c0.136,0,0.268,0.024,0.394,0.067c0.858,0.305,1.203,1.547,0.77,2.769
			C17.257,6.607,16.458,7.32,15.672,7.32z"/>
	</g>
	<g>
		<path d="M11.398,4.617c0.126-0.551,0.512-0.966,0.898-0.966c0.039,0,0.077,0.005,0.114,0.013c0.416,0.096,0.638,0.678,0.496,1.299
			c-0.135,0.594-0.609,1.048-1.012,0.953C11.478,5.82,11.255,5.238,11.398,4.617z"/>
	</g>
	<g>
		<path d="M8.853,5.013C8.838,4.751,8.896,4.504,9.017,4.317c0.106-0.166,0.244-0.254,0.412-0.265
			c0.316,0.002,0.607,0.409,0.636,0.889c0.016,0.262-0.042,0.509-0.163,0.696C9.798,5.798,9.66,5.891,9.517,5.9L9.492,5.901
			C9.17,5.902,8.882,5.503,8.853,5.013z"/>
	</g>
	<g>
		<path d="M6.496,5.04C6.569,4.862,6.687,4.744,6.83,4.705C6.862,4.698,6.896,4.694,6.93,4.694c0.301,0,0.612,0.321,0.725,0.749
			c0.077,0.293,0.049,0.597-0.077,0.81C7.529,6.339,7.438,6.449,7.295,6.486C7.263,6.495,7.231,6.498,7.197,6.498
			c-0.298,0-0.616-0.327-0.726-0.746C6.404,5.497,6.415,5.245,6.496,5.04z"/>
	</g>
	<g>
		<path d="M4.69,6.548c0.049-0.124,0.129-0.206,0.222-0.229c0.024-0.006,0.045-0.009,0.067-0.009c0.209,0,0.434,0.24,0.514,0.547
			c0.049,0.187,0.043,0.373-0.018,0.523C5.427,7.502,5.346,7.584,5.252,7.609C5.036,7.662,4.76,7.407,4.673,7.071
			C4.624,6.884,4.629,6.697,4.69,6.548z"/>
	</g>
	<g>
		<path d="M27.114,32.454c-0.129,0-0.259-0.009-0.388-0.025l-0.395-0.182c-1.941-0.739-1.658-1.999-1.298-3.611
			c0.084-0.375,0.17-0.764,0.222-1.157c0.222-2.514-1.013-3.974-2.209-5.387c-0.951-1.125-1.848-2.185-2.065-3.758
			c-0.107-0.77,0.056-1.412,0.486-1.905c1.005-1.154,3.265-1.326,4.522-1.326c1.044,0,1.975,0.111,2.45,0.207
			c2.81,0.677,4.147,3.817,3.974,9.329C32.304,27.291,30.331,32.454,27.114,32.454z"/>
	</g>
	<g>
		<path d="M20.295,10.009c0.785,0,1.585,0.712,1.947,1.733c0.215,0.606,0.245,1.232,0.084,1.766
			c-0.151,0.504-0.455,0.859-0.855,1.001c-0.126,0.044-0.259,0.067-0.394,0.067c-0.785,0-1.585-0.712-1.946-1.732
			c-0.433-1.224-0.087-2.465,0.771-2.769C20.027,10.031,20.159,10.009,20.295,10.009z"/>
	</g>
	<g>
		<path d="M24.455,10.91c0.386,0,0.772,0.415,0.899,0.964c0.142,0.62-0.081,1.204-0.498,1.299c-0.035,0.009-0.073,0.013-0.11,0.013
			c-0.382,0-0.779-0.423-0.902-0.966c-0.144-0.621,0.08-1.203,0.497-1.299C24.376,10.914,24.415,10.91,24.455,10.91z"/>
	</g>
	<g>
		<path d="M26.686,12.197c0.029-0.496,0.321-0.886,0.664-0.888c0.144,0.011,0.282,0.104,0.385,0.265
			c0.12,0.185,0.178,0.433,0.162,0.695c-0.029,0.49-0.315,0.889-0.637,0.889h-0.025c-0.145-0.009-0.283-0.104-0.387-0.265
			C26.728,12.707,26.669,12.461,26.686,12.197z"/>
	</g>
	<g>
		<path d="M29.097,13.078c0.111-0.426,0.421-0.749,0.723-0.749c0.034,0,0.067,0.005,0.101,0.013
			c0.142,0.037,0.263,0.155,0.333,0.335c0.082,0.206,0.091,0.457,0.025,0.709c-0.121,0.467-0.508,0.817-0.824,0.736
			c-0.144-0.039-0.234-0.148-0.284-0.234C29.047,13.675,29.02,13.373,29.097,13.078z"/>
	</g>
	<g>
		<path d="M31.257,14.493c0.08-0.307,0.307-0.547,0.515-0.547c0.022,0,0.043,0.002,0.064,0.008c0.095,0.025,0.175,0.107,0.223,0.229
			c0.06,0.153,0.067,0.338,0.018,0.524c-0.079,0.305-0.307,0.545-0.518,0.545c-0.021,0-0.041-0.003-0.06-0.008
			c-0.095-0.025-0.175-0.107-0.223-0.229C31.214,14.865,31.208,14.68,31.257,14.493z"/>
	</g>
</g>
</svg>
