<?xml version="1.0" encoding="utf-8"?>
<!-- Generator: Adobe Illustrator 17.0.0, SVG Export Plug-In . SVG Version: 6.00 Build 0)  -->
<!DOCTYPE svg PUBLIC "-//W3C//DTD SVG 1.1//EN" "http://www.w3.org/Graphics/SVG/1.1/DTD/svg11.dtd">
<svg version="1.1" id="Layer_1" xmlns="http://www.w3.org/2000/svg" xmlns:xlink="http://www.w3.org/1999/xlink" x="0px" y="0px"
	 width="28.119px" height="32.09px" viewBox="0 0 28.119 32.09" enable-background="new 0 0 28.119 32.09" xml:space="preserve">
<g>
	<path d="M14.584,4.651c0.052-0.036,0.092-0.082,0.123-0.14c0.031-0.057,0.052-0.122,0.062-0.193
		c0.011-0.072,0.016-0.143,0.016-0.214c0-0.071-0.006-0.143-0.016-0.214c-0.011-0.071-0.032-0.135-0.062-0.191
		c-0.031-0.056-0.072-0.102-0.123-0.137c-0.051-0.036-0.119-0.054-0.202-0.054s-0.151,0.018-0.202,0.054
		c-0.052,0.036-0.092,0.081-0.123,0.137c-0.031,0.056-0.052,0.12-0.062,0.191c-0.011,0.071-0.016,0.143-0.016,0.214
		c0,0.072,0.006,0.143,0.016,0.214c0.011,0.072,0.032,0.135,0.062,0.193c0.031,0.057,0.072,0.104,0.123,0.14
		c0.051,0.036,0.119,0.053,0.202,0.053S14.533,4.687,14.584,4.651z"/>
	<polygon points="16.597,9.197 16.17,10.558 17.005,10.558 16.609,9.197 	"/>
	<path d="M25.111,10.426c0.044,0.001,0.085-0.003,0.123-0.015c0.038-0.013,0.071-0.034,0.099-0.064
		c0.028-0.031,0.049-0.075,0.063-0.133c0.044-0.177-0.038-0.292-0.247-0.344l-0.564-0.143l-0.137,0.545l0.527,0.133
		C25.021,10.416,25.067,10.423,25.111,10.426z"/>
	<path d="M16.981,1.766c0.054-0.012,0.096-0.027,0.125-0.044c0.029-0.017,0.043-0.047,0.044-0.09
		c0.001-0.029-0.013-0.057-0.042-0.082C17.081,1.524,17.044,1.51,17,1.509c-0.056-0.001-0.104,0.014-0.143,0.045
		c-0.039,0.032-0.062,0.082-0.067,0.149l-0.003,0.118c0.03-0.014,0.062-0.025,0.095-0.034C16.915,1.781,16.948,1.774,16.981,1.766z"
		/>
	<path d="M25.433,9.312c0.062-0.019,0.106-0.076,0.13-0.171c0.019-0.074,0.004-0.133-0.044-0.177
		c-0.048-0.044-0.119-0.077-0.211-0.101l-0.474-0.12l-0.111,0.441l0.474,0.12C25.292,9.328,25.37,9.331,25.433,9.312z"/>
	<path d="M24.819,14.463c-0.032-0.015-0.065-0.023-0.102-0.023c-0.036,0.001-0.073,0.008-0.111,0.021
		c-0.038,0.014-0.075,0.031-0.11,0.05c-0.035,0.019-0.069,0.042-0.101,0.067c-0.032,0.025-0.059,0.053-0.078,0.084
		c-0.019,0.031-0.032,0.064-0.035,0.1c-0.004,0.035,0.006,0.073,0.029,0.114c0.023,0.042,0.05,0.07,0.082,0.086
		c0.032,0.015,0.066,0.022,0.102,0.022c0.037-0.001,0.075-0.009,0.113-0.022c0.039-0.014,0.075-0.031,0.11-0.05
		c0.035-0.019,0.069-0.042,0.101-0.067s0.059-0.052,0.077-0.083c0.019-0.031,0.03-0.064,0.034-0.099s-0.006-0.073-0.029-0.115
		C24.878,14.508,24.851,14.479,24.819,14.463z"/>
	<path d="M20.925,9.664c0.095,0,0.177-0.028,0.243-0.085c0.066-0.057,0.102-0.143,0.107-0.258V9.119
		c-0.051,0.025-0.105,0.046-0.161,0.061c-0.056,0.015-0.113,0.03-0.169,0.044c-0.093,0.022-0.163,0.049-0.211,0.08
		c-0.048,0.031-0.072,0.083-0.072,0.157c0,0.051,0.025,0.097,0.075,0.139S20.848,9.664,20.925,9.664z"/>
	<path d="M28.003,10.051c-0.546-2.684-0.198-8.302-9.488-9.784C9.226-1.215,0.856,3.498,2.961,13.8c0,1.878-3.718,4.793-2.822,5.778
		c0.896,0.985,2.416,1.023,2.416,1.023s-0.988,1.878-0.544,2.396s1.68,0.297,1.68,0.297s-1.148,0.827-1.148,1.469
		c0,0.642,1.939,1.496,1.939,1.496s-0.355,3.553,2.556,3.307s3.401-1.069,3.401-1.069l0.864,3.593h11.266l-0.396-7.808
		C22.172,24.283,29.09,16.772,28.003,10.051z M23.344,13.795c-0.092-0.072-0.171-0.166-0.237-0.286
		c-0.075-0.133-0.118-0.263-0.13-0.391s-0.001-0.248,0.037-0.362c0.037-0.114,0.098-0.219,0.183-0.313
		c0.085-0.095,0.187-0.177,0.308-0.244c0.128-0.072,0.257-0.117,0.384-0.136c0.128-0.019,0.249-0.014,0.365,0.016
		c0.115,0.032,0.222,0.087,0.32,0.165c0.097,0.079,0.181,0.182,0.252,0.31c0.125,0.227,0.165,0.434,0.121,0.62
		c-0.044,0.186-0.163,0.347-0.358,0.484l-0.273-0.492c0.014-0.011,0.032-0.029,0.054-0.051c0.022-0.023,0.042-0.051,0.056-0.085
		c0.015-0.034,0.023-0.074,0.025-0.118c0.001-0.044-0.012-0.092-0.041-0.144c-0.033-0.06-0.074-0.102-0.122-0.128
		c-0.048-0.025-0.1-0.038-0.157-0.038c-0.056,0-0.113,0.01-0.173,0.029c-0.059,0.018-0.118,0.044-0.172,0.075
		c-0.055,0.03-0.106,0.066-0.155,0.107c-0.047,0.04-0.086,0.084-0.115,0.132c-0.03,0.047-0.047,0.099-0.051,0.153
		c-0.004,0.054,0.011,0.111,0.044,0.171c0.024,0.043,0.051,0.075,0.082,0.098c0.03,0.021,0.063,0.037,0.1,0.044
		c0.037,0.007,0.075,0.008,0.115,0.002c0.041-0.006,0.083-0.015,0.125-0.029l0.276,0.496c-0.082,0.046-0.174,0.075-0.273,0.087
		c-0.1,0.013-0.199,0.005-0.3-0.022C23.531,13.917,23.435,13.867,23.344,13.795z M24.364,15.682l-0.244-0.439l0.131-0.073
		l-0.002-0.005c-0.027-0.004-0.054-0.009-0.082-0.016c-0.029-0.006-0.059-0.019-0.088-0.037c-0.03-0.017-0.06-0.043-0.091-0.075
		c-0.031-0.033-0.062-0.077-0.092-0.133c-0.047-0.084-0.069-0.168-0.067-0.252c0.002-0.085,0.022-0.163,0.06-0.238
		c0.037-0.075,0.088-0.144,0.151-0.206c0.064-0.063,0.133-0.115,0.209-0.156c0.07-0.039,0.147-0.072,0.229-0.097
		c0.082-0.025,0.164-0.036,0.244-0.031c0.08,0.005,0.158,0.03,0.234,0.075c0.075,0.044,0.14,0.117,0.195,0.216
		c0.038,0.069,0.059,0.139,0.062,0.212c0.004,0.072-0.011,0.14-0.042,0.204l0.003,0.004l0.579-0.322l0.253,0.455L24.364,15.682z
		 M25.707,8.224c0.191,0.048,0.341,0.111,0.449,0.19c0.11,0.078,0.189,0.163,0.24,0.254c0.051,0.091,0.078,0.183,0.081,0.274
		c0.002,0.092-0.005,0.175-0.024,0.249c-0.037,0.147-0.099,0.256-0.186,0.327C26.18,9.589,26.075,9.64,25.95,9.673
		c0.06,0.039,0.116,0.084,0.167,0.138c0.052,0.053,0.094,0.115,0.125,0.186c0.032,0.071,0.051,0.15,0.059,0.239
		s-0.001,0.186-0.028,0.292c-0.037,0.147-0.099,0.269-0.185,0.364c-0.087,0.096-0.187,0.168-0.3,0.218
		c-0.114,0.049-0.237,0.077-0.369,0.085c-0.133,0.007-0.263-0.006-0.391-0.038l-1.655-0.417l0.735-2.917L25.707,8.224z
		 M18.285,6.896h-0.626l-0.279-0.494l-0.092,0.1v0.394h-0.52V5.019h0.52v0.907l0.331-0.394h0.589l-0.487,0.516L18.285,6.896z
		 M16.772,1.247c0.006,0.018,0.011,0.039,0.014,0.06c0.002,0.022,0.003,0.043,0.001,0.061h0.005
		c0.054-0.058,0.118-0.097,0.189-0.116c0.072-0.019,0.148-0.028,0.227-0.026c0.062,0.001,0.12,0.01,0.175,0.027
		c0.054,0.016,0.1,0.041,0.141,0.074c0.04,0.034,0.072,0.075,0.094,0.123c0.023,0.049,0.033,0.107,0.032,0.175
		c-0.001,0.068-0.015,0.124-0.041,0.168c-0.025,0.044-0.058,0.081-0.099,0.111c-0.041,0.029-0.087,0.051-0.138,0.067
		c-0.052,0.015-0.104,0.027-0.158,0.035c-0.054,0.009-0.106,0.015-0.158,0.019c-0.052,0.005-0.099,0.011-0.14,0.017
		c-0.033,0.006-0.064,0.015-0.092,0.029c-0.028,0.014-0.043,0.041-0.044,0.082c-0.001,0.043,0.015,0.074,0.048,0.092
		c0.033,0.019,0.07,0.029,0.109,0.03c0.038,0.001,0.069-0.002,0.092-0.01c0.024-0.008,0.042-0.018,0.057-0.031
		c0.014-0.013,0.024-0.027,0.029-0.043c0.005-0.015,0.008-0.03,0.009-0.043l0.454,0.011c-0.006,0.09-0.029,0.163-0.072,0.217
		C17.461,2.43,17.409,2.472,17.345,2.5c-0.063,0.028-0.134,0.046-0.21,0.054c-0.077,0.008-0.153,0.011-0.229,0.009
		c-0.153-0.004-0.27-0.021-0.352-0.052c-0.082-0.031-0.14-0.071-0.178-0.12c-0.037-0.048-0.057-0.102-0.061-0.163
		c-0.004-0.059-0.006-0.12-0.004-0.181l0.014-0.525c0.001-0.047-0.001-0.097-0.005-0.148c-0.004-0.051-0.02-0.098-0.047-0.139
		L16.772,1.247z M7.538,5.285l0.41,0.249l0.167-0.275L8.43,5.451L8.264,5.726l0.469,0.285c0.063,0.037,0.115,0.055,0.155,0.053
		c0.041-0.003,0.081-0.037,0.121-0.102c0.022-0.038,0.044-0.079,0.063-0.122l0.389,0.236C9.429,6.128,9.399,6.183,9.37,6.243
		C9.341,6.302,9.31,6.36,9.276,6.415s-0.07,0.107-0.11,0.157c-0.04,0.051-0.087,0.089-0.14,0.115C8.972,6.714,8.91,6.724,8.84,6.719
		c-0.071-0.005-0.152-0.035-0.244-0.09l-0.644-0.39L7.814,6.468L7.498,6.276l0.138-0.229l-0.41-0.249L7.538,5.285z M8.221,8.12
		L7.964,8.546L6.579,8.148L6.576,8.153l1.188,0.72l-0.326,0.54L5.585,8.289l0.492-0.812l1.251,0.396l0.003-0.005L6.402,6.942
		L6.894,6.13l1.853,1.123L8.42,7.793l-1.189-0.72L7.228,7.078L8.221,8.12z M9.457,10.682l-0.983-0.447l1.612-3.545l0.983,0.446
		L9.457,10.682z M11.233,5.393c-0.269,0-0.509-0.045-0.717-0.135S10.132,5.046,9.988,4.89C9.844,4.736,9.734,4.551,9.659,4.339
		C9.585,4.127,9.548,3.898,9.548,3.653c0-0.261,0.039-0.498,0.119-0.712c0.079-0.214,0.192-0.397,0.34-0.549
		c0.148-0.152,0.324-0.269,0.53-0.353c0.206-0.084,0.438-0.125,0.695-0.125c0.459,0.003,0.813,0.119,1.063,0.346
		c0.249,0.228,0.396,0.552,0.439,0.97h-0.995c-0.006-0.031-0.017-0.074-0.032-0.128c-0.015-0.054-0.044-0.107-0.084-0.161
		c-0.04-0.053-0.094-0.1-0.161-0.14c-0.067-0.04-0.153-0.06-0.258-0.06c-0.12,0-0.221,0.027-0.302,0.079
		c-0.08,0.053-0.145,0.123-0.193,0.209c-0.048,0.087-0.083,0.184-0.105,0.293c-0.021,0.109-0.032,0.219-0.032,0.33
		c0,0.112,0.011,0.222,0.032,0.33c0.021,0.108,0.057,0.206,0.105,0.293c0.048,0.087,0.113,0.157,0.193,0.209
		c0.081,0.052,0.181,0.079,0.302,0.079c0.087,0,0.161-0.014,0.221-0.042c0.061-0.028,0.112-0.067,0.153-0.116
		c0.042-0.049,0.076-0.109,0.102-0.177c0.027-0.068,0.047-0.141,0.062-0.219h1.005c0,0.167-0.033,0.333-0.1,0.497
		c-0.067,0.164-0.164,0.312-0.293,0.444c-0.129,0.132-0.287,0.238-0.477,0.318C11.69,5.353,11.474,5.393,11.233,5.393z
		 M12.254,11.616l-0.296-0.478l0.606-0.375l-0.003-0.005c-0.074-0.01-0.144-0.036-0.212-0.075c-0.068-0.039-0.134-0.111-0.196-0.212
		c-0.035-0.057-0.059-0.116-0.075-0.179c-0.014-0.062-0.016-0.125-0.006-0.186c0.009-0.061,0.034-0.12,0.072-0.176
		c0.039-0.056,0.094-0.106,0.166-0.151l0.86-0.532l0.296,0.478l-0.657,0.406c-0.035,0.021-0.067,0.044-0.096,0.066
		s-0.05,0.045-0.065,0.07c-0.015,0.025-0.022,0.051-0.021,0.078c0,0.028,0.011,0.059,0.034,0.095
		c0.013,0.02,0.029,0.041,0.049,0.059c0.021,0.019,0.045,0.032,0.075,0.039c0.029,0.008,0.063,0.009,0.102,0
		c0.039-0.007,0.083-0.026,0.133-0.057l0.661-0.409l0.296,0.479L12.254,11.616z M13.521,8.709l-1.134-1.134l-0.428,0.427
		l-0.391-0.391l1.325-1.325l0.391,0.391l-0.427,0.427l1.134,1.134L13.521,8.709z M13.623,5.26c-0.127-0.076-0.233-0.175-0.316-0.298
		c-0.084-0.123-0.147-0.259-0.188-0.411c-0.042-0.152-0.063-0.304-0.063-0.456c0-0.143,0.015-0.288,0.047-0.437
		c0.031-0.149,0.085-0.284,0.163-0.404c0.077-0.121,0.183-0.221,0.316-0.298s0.301-0.117,0.502-0.117
		c0.14,0,0.267,0.029,0.381,0.086c0.115,0.057,0.208,0.138,0.279,0.239h0.009V1.992h0.921v3.322h-0.889V5.049h-0.009
		c-0.028,0.037-0.059,0.075-0.095,0.114c-0.036,0.039-0.08,0.074-0.133,0.105s-0.118,0.057-0.196,0.077
		c-0.077,0.02-0.172,0.031-0.284,0.031C13.9,5.375,13.751,5.336,13.623,5.26z M17.462,12.134l-0.186-0.631h-1.403l-0.198,0.631
		H14.31l1.626-4.415h1.329l1.607,4.415H17.462z M18.756,5.1l2.711-2.71l0.799,0.8l-0.874,0.874l2.321,2.322l-0.962,0.962
		l-2.322-2.322L19.556,5.9L18.756,5.1z M19.809,9.496c0-0.115,0.02-0.212,0.061-0.29c0.041-0.077,0.096-0.143,0.165-0.194
		c0.07-0.052,0.148-0.092,0.235-0.12c0.087-0.028,0.177-0.051,0.269-0.067c0.092-0.016,0.182-0.03,0.27-0.04
		c0.089-0.01,0.168-0.021,0.239-0.036c0.057-0.011,0.108-0.029,0.156-0.053c0.048-0.024,0.072-0.072,0.072-0.142
		c0-0.074-0.029-0.125-0.087-0.156C21.13,8.366,21.068,8.35,21,8.35c-0.064,0-0.117,0.007-0.156,0.021
		c-0.039,0.014-0.071,0.032-0.095,0.055c-0.024,0.023-0.04,0.047-0.049,0.075c-0.009,0.027-0.013,0.052-0.013,0.074h-0.778
		c0.006-0.155,0.044-0.279,0.114-0.374c0.07-0.095,0.159-0.167,0.267-0.218c0.107-0.051,0.226-0.085,0.358-0.102
		s0.262-0.026,0.391-0.026c0.262,0,0.464,0.025,0.605,0.075c0.14,0.049,0.244,0.115,0.309,0.196
		c0.064,0.082,0.102,0.174,0.112,0.277c0.01,0.103,0.015,0.206,0.015,0.311v0.9c0,0.082,0.005,0.166,0.015,0.254
		s0.039,0.166,0.087,0.237h-0.854c-0.011-0.031-0.019-0.065-0.025-0.104c-0.006-0.039-0.007-0.072-0.004-0.104h-0.009
		c-0.09,0.102-0.196,0.171-0.32,0.207c-0.123,0.037-0.252,0.055-0.387,0.055c-0.107,0-0.207-0.013-0.3-0.038
		c-0.093-0.025-0.175-0.065-0.245-0.12s-0.126-0.124-0.167-0.207C19.829,9.711,19.809,9.611,19.809,9.496z M21.968,12.894
		l-0.355,1.139l-0.634-0.197l0.272-0.871c0.015-0.047,0.026-0.092,0.034-0.133c0.009-0.042,0.009-0.08,0.004-0.113
		c-0.006-0.034-0.021-0.062-0.042-0.087c-0.021-0.024-0.057-0.044-0.103-0.058c-0.027-0.009-0.057-0.014-0.09-0.014
		c-0.033-0.001-0.065,0.006-0.097,0.022c-0.032,0.015-0.062,0.042-0.091,0.078s-0.054,0.088-0.075,0.154l-0.274,0.877l-0.634-0.197
		l0.713-2.285l0.634,0.198L20.98,12.21l0.006,0.002c0.074-0.047,0.156-0.079,0.248-0.097c0.091-0.017,0.205-0.004,0.34,0.037
		c0.075,0.024,0.143,0.057,0.203,0.103c0.061,0.044,0.111,0.098,0.15,0.161c0.039,0.063,0.063,0.134,0.072,0.214
		C22.008,12.71,21.997,12.798,21.968,12.894z"/>
</g>
</svg>
