<svg width="28.182" xmlns="http://www.w3.org/2000/svg" height="22.103"><g fill="#231f20"><path d="M23.517 17.4c2.791 0 4.665-3.039 4.665-5.877 0-2.059-1.271-2.338-2.514-2.338-.356 0-.738.024-1.143.049-.327.018-.665.034-1.008.042l.004-.091h-23.366c0 4.397 2.47 8.221 6.109 10.183-3.727.245-6.264.727-6.264 1.281 0 .804 5.3 1.453 11.838 1.453s11.837-.649 11.837-1.453c0-.556-2.549-1.038-6.29-1.282 1.087-.586 2.074-1.331 2.919-2.214.987.247 2.156.247 3.213.247zm-.042-7.312c.377-.009.746-.025 1.098-.048.392-.021.764-.043 1.095-.043 1.178 0 1.705.221 1.705 1.526 0 2.397-1.583 5.068-3.856 5.068-.998 0-1.872-.021-2.587-.139 1.439-1.767 2.358-3.963 2.545-6.364zM10.13 6.908c-.057-.056-1.373-1.425.016-3.104 1.697-2.047.001-3.787-.016-3.804l-.368.368c.057.055 1.373 1.426-.017 3.104-1.697 2.05-.001 3.791.017 3.807l.368-.371zM12.152 6.908c-.057-.056-1.373-1.425.017-3.104 1.695-2.047 0-3.787-.017-3.804l-.369.368c.057.055 1.373 1.426-.016 3.104-1.695 2.051-.001 3.791.017 3.808l.368-.372zM14.354 6.908c-.057-.056-1.373-1.425.016-3.104 1.696-2.047 0-3.787-.016-3.804l-.37.368c.056.055 1.374 1.426-.017 3.104-1.695 2.051 0 3.791.018 3.808l.369-.372z"/></g></svg>