<?xml version="1.0" encoding="utf-8"?>
<!-- Generator: Adobe Illustrator 17.0.0, SVG Export Plug-In . SVG Version: 6.00 Build 0)  -->
<!DOCTYPE svg PUBLIC "-//W3C//DTD SVG 1.1//EN" "http://www.w3.org/Graphics/SVG/1.1/DTD/svg11.dtd">
<svg version="1.1" id="Capa_1" xmlns="http://www.w3.org/2000/svg" xmlns:xlink="http://www.w3.org/1999/xlink" x="0px" y="0px"
	 width="27.944px" height="27.704px" viewBox="5.687 4.132 27.944 27.704" enable-background="new 5.687 4.132 27.944 27.704"
	 xml:space="preserve">
<g>
	<path d="M33.328,18.453c-0.357-0.529-0.99-0.845-1.692-0.845h-3.425c0.036-0.516,0.05-0.944,0.053-1.25
		c0.003-0.291-0.24-0.528-0.532-0.528H6.472c-0.292,0-0.535,0.236-0.531,0.528c0.03,2.281,0.616,11.279,7.909,13.471H7.017
		c-0.432,0-0.911,0.326-1.067,0.729l-0.213,0.549c-0.157,0.403,0.065,0.73,0.498,0.73h21.734c0.432,0,0.655-0.327,0.498-0.73
		l-0.214-0.549c-0.157-0.403-0.634-0.729-1.067-0.729h-6.499c2.477-0.776,4.147-2.402,5.271-4.287
		c4.708-0.133,6.734-3.388,7.524-5.35C33.724,19.59,33.669,18.956,33.328,18.453z M32.012,19.6
		c-0.718,1.784-2.201,3.868-5.218,4.289c0.683-1.621,1.052-3.296,1.249-4.697h3.593c0.208,0,0.332,0.076,0.38,0.147
		C32.058,19.402,32.057,19.489,32.012,19.6z"/>
	<path d="M16.901,15.142c0.111,0.128,0.268,0.194,0.424,0.194c0.131,0,0.262-0.045,0.367-0.137c0.234-0.203,0.26-0.557,0.056-0.791
		c-0.013-0.017-1.499-1.773-0.544-2.975c1.274-1.603,0.498-2.912-0.091-3.38c-0.241-0.193-0.595-0.153-0.788,0.089
		c-0.191,0.241-0.153,0.591,0.086,0.784c0.136,0.116,0.765,0.738-0.086,1.809C14.792,12.665,16.815,15.041,16.901,15.142z"/>
	<path d="M19.9,5.127c0.238-0.194,0.276-0.543,0.084-0.784c-0.193-0.242-0.545-0.282-0.788-0.089
		c-0.588,0.468-1.363,1.777-0.09,3.38c0.955,1.202-0.531,2.958-0.545,2.975c-0.202,0.234-0.177,0.588,0.056,0.791
		c0.106,0.092,0.237,0.137,0.367,0.137c0.157,0,0.314-0.065,0.424-0.194c0.087-0.1,2.109-2.476,0.577-4.407
		C19.134,5.865,19.764,5.243,19.9,5.127z"/>
</g>
</svg>
