<?xml version="1.0" encoding="utf-8"?>
<!-- Generator: Adobe Illustrator 17.0.0, SVG Export Plug-In . SVG Version: 6.00 Build 0)  -->
<!DOCTYPE svg PUBLIC "-//W3C//DTD SVG 1.1//EN" "http://www.w3.org/Graphics/SVG/1.1/DTD/svg11.dtd">
<svg version="1.1" id="Capa_1" xmlns="http://www.w3.org/2000/svg" xmlns:xlink="http://www.w3.org/1999/xlink" x="0px" y="0px"
	 width="28.167px" height="29.101px" viewBox="5 3.158 28.167 29.101" enable-background="new 5 3.158 28.167 29.101"
	 xml:space="preserve">
<g>
	<path d="M33.167,21.402c0-2.35-1.535-4.326-5.207-4.926c0.015-0.841,0.015-1.653,0.015-2.414H5c0,6.989,0,18.197,11.488,18.197
		c5.363,0,8.221-2.443,9.746-5.759C31.161,26.292,33.167,24.092,33.167,21.402z M10.662,27.858
		c-2.166-3.199-2.986-6.977-2.978-10.801c0.003-1.609,2.5-1.61,2.496,0c-0.007,3.419,0.702,6.682,2.638,9.541
		C13.722,27.936,11.559,29.183,10.662,27.858z M27.051,24.224c0.487-1.766,0.717-3.656,0.826-5.492
		c1.919,0.477,2.358,1.459,2.335,2.723C30.186,22.894,29.654,23.873,27.051,24.224z"/>
	<path d="M13.817,11.648c0.399-1.151,0.292-2.268-0.145-3.391c-0.485-1.247-1.123-2.084-0.231-3.3c0.954-1.3-1.214-2.543-2.155-1.26
		c-0.806,1.098-1.027,2.286-0.683,3.601c0.339,1.295,1.289,2.296,0.807,3.686C10.881,12.509,13.292,13.158,13.817,11.648z"/>
	<path d="M18.309,11.648c0.399-1.151,0.292-2.268-0.145-3.391c-0.485-1.247-1.123-2.084-0.231-3.3c0.954-1.3-1.214-2.543-2.155-1.26
		c-0.806,1.098-1.027,2.286-0.683,3.601c0.339,1.295,1.289,2.296,0.807,3.686C15.374,12.509,17.785,13.158,18.309,11.648z"/>
	<path d="M22.802,11.648c0.399-1.151,0.292-2.268-0.145-3.391c-0.485-1.247-1.123-2.084-0.231-3.3c0.954-1.3-1.214-2.543-2.155-1.26
		c-0.806,1.098-1.027,2.286-0.683,3.601c0.339,1.295,1.289,2.296,0.807,3.686C19.866,12.509,22.278,13.158,22.802,11.648z"/>
</g>
</svg>
