<?xml version="1.0" encoding="iso-8859-1"?>
<!-- Generator: Adobe Illustrator 16.0.0, SVG Export Plug-In . SVG Version: 6.00 Build 0)  -->
<!DOCTYPE svg PUBLIC "-//W3C//DTD SVG 1.1//EN" "http://www.w3.org/Graphics/SVG/1.1/DTD/svg11.dtd">
<svg version="1.1" id="Layer_1" xmlns="http://www.w3.org/2000/svg" xmlns:xlink="http://www.w3.org/1999/xlink" x="0px" y="0px"
	 width="27.095px" height="35.955px" viewBox="0 0 27.095 35.955" style="enable-background:new 0 0 27.095 35.955;"
	 xml:space="preserve">
<g>
	<path d="M24.431,19.498c0.198-0.969,0.271-1.869,0.272-2.728H23.36l-0.195-0.741c0,0-0.705-0.408-1.058-0.612
		c-0.009-0.203-0.031-0.404-0.073-0.598c0.279-0.24,0.838-0.719,0.838-0.719v-0.964l-1.377-1.606h-0.966
		c0,0-0.458,0.392-0.686,0.588c-0.248-0.12-0.51-0.219-0.784-0.294c-0.022-0.271-0.066-0.815-0.066-0.815l-0.683-0.683l-2.107,0.171
		l-0.682,0.682c0,0,0.058,0.716,0.086,1.074c-0.207,0.117-0.401,0.25-0.583,0.396c-0.296-0.135-0.89-0.406-0.89-0.406l-0.934,0.245
		l-0.882,1.924l-0.031,0.131l0.276,0.802c0,0,0.688,0.314,1.033,0.473c0.015,0.227,0.05,0.447,0.106,0.662
		c-0.093,0.079-0.219,0.186-0.343,0.291h-1.299l-0.088-0.338c0,0-0.383-0.221-0.574-0.332c-0.005-0.109-0.018-0.219-0.04-0.324
		c0.151-0.13,0.455-0.391,0.455-0.391v-0.522l-0.747-0.872h-0.524c0,0-0.249,0.213-0.373,0.319
		c-0.134-0.065-0.277-0.118-0.425-0.159c-0.012-0.147-0.036-0.443-0.036-0.443l-0.37-0.37l-1.144,0.093l-0.37,0.371
		c0,0,0.031,0.388,0.046,0.582c-0.112,0.063-0.218,0.136-0.316,0.215c-0.161-0.072-0.483-0.221-0.483-0.221l-0.506,0.134
		l-0.479,1.044L6.07,15.627l0.15,0.435c0,0,0.374,0.17,0.561,0.257c0.008,0.122,0.027,0.242,0.058,0.358
		c-0.031,0.026-0.07,0.06-0.11,0.094H2.229L20.86,4.157C16.751-1.94,9.277-0.854,3.749,4.332c-6.174,5.79-3.08,9.802-2.134,12.075
		c0.066,0.141,0.147,0.273,0.226,0.408c-0.436,5.857,5.305,12.113,5.305,12.113l-0.355,7.026h10.137l0.776-3.231
		c0,0,0.44,0.738,3.059,0.96c2.62,0.222,2.3-2.976,2.3-2.976s1.744-0.769,1.744-1.346s-1.032-1.322-1.032-1.322
		s1.11,0.2,1.511-0.267c0.399-0.467-0.49-2.155-0.49-2.155s1.368-0.034,2.174-0.922C27.775,23.811,24.431,21.188,24.431,19.498z
		 M15.608,15.594c0-1.176,0.952-2.128,2.127-2.128c1.176,0,2.128,0.952,2.128,2.128c0,0.436-0.132,0.84-0.356,1.177h-3.542
		C15.74,16.434,15.608,16.029,15.608,15.594z M7.872,16.196c0-0.638,0.517-1.154,1.154-1.154c0.638,0,1.155,0.517,1.155,1.154
		c0,0.214-0.074,0.402-0.175,0.574H8.046C7.945,16.599,7.872,16.41,7.872,16.196z"/>
	<path d="M14.856,11.506l0.252-0.066l0.286-0.494l-0.066-0.252c0,0-0.19-0.109-0.285-0.164c-0.003-0.056-0.009-0.109-0.021-0.162
		c0.075-0.064,0.226-0.194,0.226-0.194V9.914L14.877,9.48h-0.26c0,0-0.124,0.105-0.185,0.158C14.365,9.606,14.294,9.58,14.22,9.56
		c-0.006-0.073-0.018-0.22-0.018-0.22l-0.184-0.185L13.45,9.201l-0.184,0.186c0,0,0.016,0.191,0.023,0.289
		c-0.055,0.031-0.108,0.066-0.156,0.106c-0.081-0.036-0.241-0.11-0.241-0.11L12.64,9.739l-0.238,0.519l-0.008,0.035l0.075,0.216
		c0,0,0.186,0.085,0.279,0.128c0.004,0.061,0.013,0.121,0.028,0.178c-0.071,0.061-0.212,0.181-0.212,0.181v0.26l0.368,0.437
		c0,0,0.214,0.025,0.226,0.018c0.011-0.006,0.035-0.018,0.035-0.018s0.134-0.115,0.202-0.171c0.057,0.025,0.116,0.046,0.178,0.062
		c0.007,0.077,0.021,0.23,0.021,0.23l0.184,0.185l0.568-0.052l0.184-0.185c0,0-0.018-0.197-0.027-0.296
		c0.046-0.025,0.091-0.055,0.133-0.088C14.708,11.42,14.856,11.506,14.856,11.506z M13.863,11.15c-0.316,0-0.574-0.258-0.574-0.574
		s0.257-0.574,0.574-0.574c0.317,0,0.574,0.258,0.574,0.574S14.18,11.15,13.863,11.15z"/>
	<path d="M20.459,6.613c-0.105-0.051-0.217-0.093-0.333-0.124c-0.01-0.115-0.028-0.347-0.028-0.347l-0.29-0.29l-0.895,0.073
		l-0.29,0.291c0,0,0.024,0.303,0.036,0.455c-0.087,0.05-0.17,0.105-0.247,0.168c-0.126-0.058-0.378-0.174-0.378-0.174l-0.396,0.105
		l-0.375,0.816L17.25,7.644l0.118,0.34c0,0,0.292,0.134,0.438,0.201c0.007,0.096,0.021,0.19,0.045,0.28
		C17.74,8.561,17.518,8.75,17.518,8.75v0.408l0.58,0.687c0,0,0.337,0.041,0.356,0.029c0.018-0.01,0.054-0.029,0.054-0.029
		s0.211-0.18,0.317-0.269c0.09,0.04,0.183,0.071,0.28,0.098c0.011,0.121,0.034,0.363,0.034,0.363l0.289,0.289l0.894-0.082
		l0.29-0.289c0,0-0.028-0.312-0.042-0.466c0.073-0.041,0.143-0.088,0.209-0.14c0.116,0.068,0.349,0.203,0.349,0.203l0.397-0.104
		l0.45-0.776l-0.104-0.397c0,0-0.299-0.173-0.449-0.259c-0.004-0.088-0.014-0.172-0.032-0.254c0.119-0.102,0.356-0.307,0.356-0.307
		V7.047L21.16,6.364h-0.41C20.75,6.364,20.556,6.531,20.459,6.613z M19.563,8.993c-0.498,0-0.903-0.405-0.903-0.903
		c0-0.499,0.405-0.904,0.903-0.904c0.499,0,0.904,0.405,0.904,0.904C20.467,8.588,20.063,8.993,19.563,8.993z"/>
</g>
<g>
</g>
<g>
</g>
<g>
</g>
<g>
</g>
<g>
</g>
<g>
</g>
<g>
</g>
<g>
</g>
<g>
</g>
<g>
</g>
<g>
</g>
<g>
</g>
<g>
</g>
<g>
</g>
<g>
</g>
</svg>
