<?xml version="1.0" encoding="utf-8"?>
<!-- Generator: Adobe Illustrator 17.0.0, SVG Export Plug-In . SVG Version: 6.00 Build 0)  -->
<!DOCTYPE svg PUBLIC "-//W3C//DTD SVG 1.1//EN" "http://www.w3.org/Graphics/SVG/1.1/DTD/svg11.dtd">
<svg version="1.1" id="Layer_1" xmlns="http://www.w3.org/2000/svg" xmlns:xlink="http://www.w3.org/1999/xlink" x="0px" y="0px"
	 width="29.68px" height="25.288px" viewBox="7.206 9.813 29.68 25.288" enable-background="new 7.206 9.813 29.68 25.288"
	 xml:space="preserve">
<g>
	<path d="M30.175,13.918c-2.149-0.622-4.291,0.539-5.005,2.335c-0.773,1.941,0.47,4.448-0.05,5.643
		c-0.738,1.7-2.878,4.307,0.05,6.04c2.707,1.602,4.661-0.917,6.077-3.175c1.082-1.728,2.209-3.481,2.652-5.303
		C34.241,18.044,34.423,15.148,30.175,13.918z"/>
	<path d="M26.054,14.015c1.041,0,1.388-0.798,1.388-1.783c0-0.986-0.844-1.784-1.885-1.784c-1.041,0-1.884,0.798-1.884,1.784
		C23.673,13.217,25.014,14.015,26.054,14.015z"/>
	<path d="M29.41,13.242c0.862,0,1.561-1.181,1.561-2.127c0-0.947-0.699-1.302-1.561-1.302c-0.862,0-1.56,0.356-1.56,1.302
		S28.548,13.242,29.41,13.242z"/>
	<path d="M33.802,13.158c0.486-0.597,0.227-1.179-0.316-1.622c-0.544-0.442-1.166-0.578-1.653,0.019
		c-0.485,0.597-0.651,1.7-0.108,2.142C32.269,14.141,33.317,13.755,33.802,13.158z"/>
	<path d="M35.709,13.616c-0.439-0.485-0.993-0.697-1.527-0.216c-0.532,0.481-0.842,1.474-0.403,1.961
		c0.439,0.485,1.459,0.276,1.991-0.205C36.304,14.675,36.147,14.102,35.709,13.616z"/>
	<path d="M36.809,16.424c-0.162-0.494-0.497-0.826-1.039-0.648c-0.542,0.179-1.086,0.8-0.924,1.295
		c0.162,0.492,0.97,0.67,1.511,0.493C36.899,17.385,36.971,16.919,36.809,16.424z"/>
	<path d="M18.845,22.913c-0.714-1.795-2.857-2.956-5.005-2.335c-4.248,1.231-4.066,4.126-3.723,5.538
		c0.442,1.822,1.569,3.575,2.652,5.303c1.416,2.26,3.37,4.777,6.077,3.175c2.928-1.733,0.788-4.34,0.05-6.04
		C18.375,27.36,19.617,24.853,18.845,22.913z"/>
	<path d="M18.458,17.109c-1.041,0-1.885,0.798-1.885,1.784c0,0.985,0.347,1.783,1.388,1.783c1.041,0,2.381-0.798,2.381-1.783
		C20.343,17.907,19.498,17.109,18.458,17.109z"/>
	<path d="M14.605,19.903c0.862,0,1.56-1.181,1.56-2.127c0-0.947-0.699-1.302-1.56-1.302c-0.862,0-1.561,0.356-1.561,1.302
		C13.044,18.722,13.743,19.903,14.605,19.903z"/>
	<path d="M12.29,20.358c0.543-0.442,0.378-1.545-0.108-2.142c-0.486-0.598-1.11-0.462-1.653-0.019
		c-0.543,0.443-0.802,1.025-0.316,1.622C10.699,20.416,11.746,20.801,12.29,20.358z"/>
	<path d="M9.833,20.061C9.3,19.58,8.745,19.792,8.306,20.277c-0.439,0.486-0.594,1.059-0.062,1.541s1.553,0.689,1.991,0.205
		C10.675,21.536,10.365,20.542,9.833,20.061z"/>
	<path d="M8.245,22.437c-0.542-0.178-0.877,0.155-1.039,0.648c-0.162,0.495-0.09,0.961,0.451,1.139
		c0.541,0.177,1.35-0.001,1.511-0.493C9.331,23.237,8.787,22.615,8.245,22.437z"/>
</g>
</svg>
