<?xml version="1.0" encoding="utf-8"?>
<!-- Generator: Adobe Illustrator 17.0.0, SVG Export Plug-In . SVG Version: 6.00 Build 0)  -->
<!DOCTYPE svg PUBLIC "-//W3C//DTD SVG 1.1//EN" "http://www.w3.org/Graphics/SVG/1.1/DTD/svg11.dtd">
<svg version="1.1" id="Layer_1" xmlns="http://www.w3.org/2000/svg" xmlns:xlink="http://www.w3.org/1999/xlink" x="0px" y="0px"
	 width="28.267px" height="28.374px" viewBox="0 0 28.267 28.374" enable-background="new 0 0 28.267 28.374" xml:space="preserve">
<path d="M20.025,9.402l0.907,2.093l-1.15,0.119l-0.135-1.482l-0.451,1.062l-1.677-0.781l-0.14-1.771c0,0,1.341-0.045,1.349,0.047
	c0.007,0.091,0.145,1.863,0.145,1.863l0.446-1.524L20.025,9.402z M17.153,10.014l-0.102-1.296l-1.232,2.051l0.459,1.028
	L17.153,10.014z M18.012,16.639l-0.954-1.532l-0.091-1.836l-0.728-0.019l-0.318,1.263l-0.422-0.079l0.192-0.972l0.44-1.583
	L15.787,11.3l-0.908,0.093l-0.485,1.005l-0.176,1.688l0.07,0.559l0.252,0.682l0.11,0.01l1.087,0.429l0.635-0.696l0.068,1.763
	l-0.713-0.717l0.041,0.907l0.479,1.119l-0.553,0.884l0.153,1.811l1.505,0.001l-0.214-1.957l-0.437-0.109l-0.239,0.732l0.027-1.017
	l0.857,0.28l0.306,2.183l1.289-1.056L17.712,18.3L18.012,16.639z M14.675,15.83l-0.388,0.589l0.305,2.422l1.038-0.107l-0.209-2.655
	L14.675,15.83z M19.627,16.019l-1.201,0.054l-0.129,0.538l1.104,0.684l1.991-0.114l0.095-1.547l-1.601-0.989L19.627,16.019z
	 M19.522,17.867l-0.585-0.431l-0.72,0.075l0.067,0.854l1.241,1.41l1.295-1.671l-0.389-0.39L19.522,17.867z M17.468,13.495
	l0.255,1.881l0.774,0.228l0.827-0.086l0.285-1.505l0.646,0.425l0.869,0.511l0.286-0.964l-0.14-1.972l-1.651,0.149l-0.696,1.66
	l-0.224-0.455l0.342-1.63l-0.489-0.23l-0.237,0.43l-0.411-0.087l0.167-0.787l-0.868-0.449l-0.69,1.337l0.393,0.892l0.964,0.25
	l-0.107,0.37L17.468,13.495z M8.229,11.76l0.134-1.482l0.451,1.062l1.678-0.781l0.138-1.771c0,0-1.342-0.046-1.349,0.047
	c-0.007,0.09-0.146,1.862-0.146,1.862L8.689,9.173L7.986,9.549l-0.907,2.093L8.229,11.76z M12.86,8.354l0.624-1.351l0.068,1.152
	l1.842-0.175l0.724-1.622c0,0-1.25-0.492-1.288-0.408c-0.036,0.082-0.76,1.705-0.76,1.705l0.091-1.583l-0.788,0.117L11.817,7.86
	L12.86,8.354z M12.192,10.915l-1.233-2.051l-0.101,1.296l0.876,1.783L12.192,10.915z M10.531,8.419l1.536-1.217l-1.064,0.053
	l-1.355,0.9L10.531,8.419z M17.479,8.419l0.884-0.264l-1.356-0.9l-1.064-0.053L17.479,8.419z M10.871,19.029l-0.212,1.956
	l1.504-0.001l0.153-1.811l-0.554-0.884l0.479-1.119l0.042-0.907l-0.713,0.717l0.069-1.764l0.634,0.697l1.087-0.429l-0.038-0.014
	l0.365-0.532l0.131-0.672l-0.131-1.754l-0.556-0.974l-0.908-0.093l-0.341,0.581l0.44,1.583l0.191,0.973l-0.422,0.08l-0.318-1.263
	l-0.727,0.019l-0.091,1.836l-0.955,1.531l0.3,1.661L9.07,20.041l1.288,1.057l0.307-2.183l0.856-0.28l0.028,1.017l-0.239-0.733
	L10.871,19.029z M13.336,15.975l-0.747,0.249L12.38,18.88l1.038,0.107l0.435-2.716L13.336,15.975z M9.714,16.756l-0.129-0.538
	l-1.201-0.054L8.125,14.79l-1.602,0.989l0.095,1.547L8.61,17.44L9.714,16.756z M12.862,10.257l0.522,1.11l0.366-0.365l-0.263-2.37
	l-1.543-0.287l-0.392,0.583l0.855,1.834L12.862,10.257z M14.465,8.563l-0.263,2.37l0.366,0.366l0.522-1.111l0.452,0.505l0.855-1.836
	l-0.39-0.581L14.465,8.563z M9.795,17.656l-0.721-0.075l-0.585,0.431l-0.907-0.155l-0.389,0.39l1.295,1.672l1.242-1.41L9.795,17.656
	z M12.571,20.341l-0.115,0.785l-0.714,0.664l-0.007,0.592l1.952,0.032l-0.076-1.999l-0.507-0.632L12.571,20.341z M14.907,19.782
	l-0.507,0.633l-0.076,1.999l1.954-0.032l-0.009-0.592l-0.713-0.664l-0.116-0.785L14.907,19.782z M11.5,12.098l-0.689-1.337
	L9.942,11.21l0.167,0.787l-0.411,0.088l-0.236-0.432l-0.489,0.232l0.342,1.63l-0.224,0.454l-0.697-1.66l-1.651-0.148l-0.141,1.971
	l0.287,0.964l0.868-0.51l0.645-0.426l0.286,1.505l0.828,0.086l0.772-0.228l0.255-1.881l-0.293-0.03l-0.106-0.37l0.963-0.248
	L11.5,12.098z M15.63,23.509L15.63,23.509c-0.101,0.018-0.253,0.02-0.52,0.022l-0.03,0.003l0.093-0.725h-0.516l-0.099,0.773
	l-0.648,0.061l-0.168,0.016l-0.167-0.85h-0.522l0.176,0.899l-0.595,0.055c-0.092,0-0.177,0.003-0.254,0.005V22.81h-1.007v1.041
	c0,0.412,0.132,0.645,0.315,0.777v0.735l4.774-0.529l-0.019-0.585l0.191-0.111V22.81H15.63V23.509z M11.691,26.119L11.691,26.119
	c-0.043,0.185,0.015,0.439,0.052,0.566l0.058,0.204l4.42-0.491l0.216-0.068l0.011-0.215c0.011-0.067,0.024-0.201,0.022-0.604v-0.279
	l-4.78,0.53L11.691,26.119L11.691,26.119z M12.126,27.65c0.428,0.475,1.099,0.72,1.99,0.724h0.026c1.518,0,2.04-0.675,2.207-1.241
	l0.108-0.362l-4.659,0.514L12.126,27.65z M14.512,0h-0.923v4.903h0.923V0z M20.108,0.89l-0.855-0.348l-1.845,4.543l0.854,0.348
	L20.108,0.89z M24.316,3.369L20.86,6.847l0.655,0.649l3.455-3.478L24.316,3.369z M27.515,7.928l-4.6,1.697l0.319,0.867l4.6-1.697
	L27.515,7.928z M23.46,13.015l-0.182,0.905l4.807,0.967l0.182-0.905L23.46,13.015z M10.858,5.433L9.014,0.89L8.159,1.237
	l1.844,4.543L10.858,5.433z M7.405,7.193L3.949,3.715l-0.655,0.65l3.456,3.478L7.405,7.193z M0.432,9.143l4.6,1.696l0.319-0.867
	l-4.6-1.696L0.432,9.143z M0.001,14.329l0.182,0.905l4.807-0.967l-0.182-0.906L0.001,14.329z"/>
</svg>
