<?xml version="1.0" encoding="utf-8"?>
<!-- Generator: Adobe Illustrator 16.0.4, SVG Export Plug-In . SVG Version: 6.00 Build 0)  -->
<!DOCTYPE svg PUBLIC "-//W3C//DTD SVG 1.1//EN" "http://www.w3.org/Graphics/SVG/1.1/DTD/svg11.dtd">
<svg version="1.1" id="Layer_1" xmlns="http://www.w3.org/2000/svg" xmlns:xlink="http://www.w3.org/1999/xlink" x="0px" y="0px"
	 width="31.863px" height="31.986px" viewBox="0 0 31.863 31.986" enable-background="new 0 0 31.863 31.986" xml:space="preserve">
<path d="M22.574,10.599l1.022,2.359l-1.296,0.134l-0.152-1.671l-0.508,1.197l-1.89-0.88l-0.158-1.997c0,0,1.512-0.051,1.521,0.053
	c0.008,0.103,0.164,2.1,0.164,2.1l0.503-1.718L22.574,10.599z M19.336,11.289l-0.115-1.461l-1.389,2.312l0.517,1.159L19.336,11.289z
	 M20.305,18.757l-1.076-1.727l-0.103-2.07l-0.821-0.021l-0.359,1.424l-0.476-0.089l0.217-1.096l0.496-1.785l-0.386-0.655
	l-1.024,0.105l-0.547,1.133l-0.198,1.903l0.079,0.63l0.284,0.769l0.124,0.011l1.225,0.484l0.716-0.785l0.077,1.987l-0.804-0.808
	l0.046,1.023l0.54,1.262l-0.623,0.996l0.173,2.042l1.697,0.001l-0.241-2.206l-0.493-0.123l-0.269,0.825l0.03-1.146l0.966,0.316
	l0.345,2.461l1.453-1.19l-1.386-1.799L20.305,18.757z M16.543,17.845l-0.437,0.664l0.344,2.73l1.17-0.121l-0.236-2.993
	L16.543,17.845z M22.125,18.058l-1.354,0.061l-0.145,0.606l1.244,0.771l2.245-0.128l0.107-1.744l-1.805-1.115L22.125,18.058z
	 M22.007,20.141l-0.66-0.486l-0.812,0.084l0.076,0.963l1.399,1.589l1.46-1.884l-0.438-0.44L22.007,20.141z M19.691,15.213
	l0.288,2.121l0.872,0.257l0.932-0.097l0.321-1.697l0.728,0.479l0.98,0.576l0.322-1.087l-0.158-2.223l-1.861,0.168l-0.785,1.871
	l-0.253-0.513l0.386-1.838l-0.551-0.259l-0.267,0.485l-0.463-0.098l0.188-0.887l-0.979-0.506l-0.778,1.507l0.443,1.006l1.087,0.282
	l-0.121,0.417L19.691,15.213z M9.276,13.257l0.151-1.671l0.508,1.197l1.892-0.88l0.156-1.996c0,0-1.513-0.052-1.521,0.053
	c-0.008,0.102-0.165,2.099-0.165,2.099l-0.502-1.718l-0.792,0.423L7.98,13.123L9.276,13.257z M14.497,9.418L15.2,7.895l0.077,1.299
	l2.076-0.197l0.816-1.828c0,0-1.409-0.555-1.452-0.46c-0.041,0.093-0.857,1.922-0.857,1.922l0.103-1.784l-0.888,0.132L13.321,8.86
	L14.497,9.418z M13.744,12.304l-1.39-2.312l-0.114,1.461l0.988,2.01L13.744,12.304z M11.872,9.491l1.731-1.372l-1.199,0.06
	l-1.528,1.015L11.872,9.491z M19.704,9.491L20.7,9.193l-1.529-1.015l-1.199-0.06L19.704,9.491z M12.255,21.451l-0.239,2.205
	l1.696-0.001l0.173-2.042l-0.624-0.996l0.54-1.262l0.047-1.022l-0.804,0.808l0.078-1.988l0.715,0.786l1.225-0.484l-0.043-0.016
	l0.411-0.6l0.148-0.757l-0.148-1.977l-0.627-1.098l-1.024-0.105l-0.384,0.655l0.496,1.784l0.215,1.097l-0.476,0.09l-0.359-1.424
	l-0.82,0.021l-0.103,2.07l-1.077,1.726l0.338,1.873l-1.385,1.798l1.452,1.191l0.346-2.461l0.965-0.316l0.032,1.147l-0.269-0.826
	L12.255,21.451z M15.033,18.009l-0.842,0.281l-0.235,2.993l1.17,0.121l0.49-3.062L15.033,18.009z M10.95,18.889l-0.145-0.606
	l-1.354-0.061l-0.292-1.549l-1.806,1.115l0.107,1.744l2.246,0.128L10.95,18.889z M14.499,11.563l0.588,1.251l0.413-0.412
	L15.204,9.73l-1.739-0.324l-0.442,0.657l0.964,2.068L14.499,11.563z M16.306,9.653l-0.297,2.672l0.413,0.413l0.589-1.252l0.51,0.569
	l0.964-2.07l-0.44-0.655L16.306,9.653z M11.042,19.903l-0.813-0.084l-0.66,0.486l-1.023-0.175l-0.439,0.44l1.46,1.885l1.4-1.59
	L11.042,19.903z M14.171,22.93l-0.13,0.885l-0.805,0.748l-0.008,0.667l2.201,0.036l-0.086-2.253L14.772,22.3L14.171,22.93z
	 M16.804,22.3l-0.572,0.714l-0.086,2.253l2.203-0.036l-0.01-0.667l-0.804-0.748l-0.131-0.885L16.804,22.3z M12.964,13.638
	l-0.777-1.507l-0.979,0.506l0.188,0.887l-0.463,0.099l-0.266-0.487l-0.551,0.261l0.385,1.838l-0.252,0.512l-0.786-1.871
	l-1.861-0.167l-0.159,2.222l0.324,1.087l0.979-0.575l0.727-0.48l0.322,1.697l0.933,0.097l0.87-0.257l0.288-2.121l-0.33-0.034
	l-0.12-0.417l1.086-0.28L12.964,13.638z M17.62,26.502L17.62,26.502c-0.114,0.02-0.285,0.023-0.586,0.025L17,26.53l0.105-0.817
	h-0.582l-0.112,0.871l-0.73,0.069l-0.189,0.018l-0.188-0.958h-0.588l0.198,1.013l-0.671,0.062c-0.104,0-0.2,0.003-0.286,0.006v-1.08
	h-1.135v1.174c0,0.464,0.149,0.727,0.355,0.876v0.829l5.382-0.596l-0.021-0.66l0.215-0.125v-1.498H17.62V26.502z M13.179,29.444
	L13.179,29.444c-0.049,0.208,0.017,0.495,0.059,0.638l0.065,0.23l4.983-0.554l0.243-0.077l0.012-0.242
	c0.012-0.075,0.027-0.227,0.025-0.681v-0.314l-5.388,0.598V29.444z M13.67,31.17c0.483,0.536,1.239,0.812,2.243,0.816h0.029
	c1.711,0,2.3-0.761,2.488-1.399l0.122-0.408L13.3,30.758L13.67,31.17z M16.359,0h-1.041v5.527h1.041V0z M22.668,1.003l-0.964-0.392
	l-2.08,5.121l0.963,0.392L22.668,1.003z M27.411,3.798l-3.896,3.921l0.738,0.732l3.895-3.921L27.411,3.798z M31.017,8.937
	l-5.186,1.913l0.36,0.977l5.186-1.913L31.017,8.937z M26.446,14.672l-0.205,1.02l5.419,1.09l0.205-1.02L26.446,14.672z M12.24,6.125
	l-2.079-5.122L9.198,1.394l2.079,5.121L12.24,6.125z M8.348,8.109L4.452,4.188L3.714,4.921L7.61,8.842L8.348,8.109z M0.487,10.307
	l5.186,1.912l0.36-0.977L0.847,9.33L0.487,10.307z M0.001,16.153l0.205,1.02l5.419-1.09L5.42,15.062L0.001,16.153z"/>
</svg>
