<?xml version="1.0" encoding="utf-8"?>
<!-- Generator: Adobe Illustrator 17.0.0, SVG Export Plug-In . SVG Version: 6.00 Build 0)  -->
<!DOCTYPE svg PUBLIC "-//W3C//DTD SVG 1.1//EN" "http://www.w3.org/Graphics/SVG/1.1/DTD/svg11.dtd">
<svg version="1.1" id="Capa_1" xmlns="http://www.w3.org/2000/svg" xmlns:xlink="http://www.w3.org/1999/xlink" x="0px" y="0px"
	 width="27.951px" height="30.957px" viewBox="0 0 27.951 30.957" enable-background="new 0 0 27.951 30.957" xml:space="preserve">
<path d="M26.12,17.414c2.207,0,0.967,5.804-0.967,5.804c0.967,0,0,4.837-1.935,4.837c0,1.935-1.935,2.902-3.87,2.902
	c-8.173,0-5.298-2.045-13.544-2.902V12.577c7.284-2.185,14.511-7.661,14.511-12.576c1.602,0,5.804,1.935,0,11.609
	c0,0,4.837,0,5.804,0C29.022,11.61,28.055,17.414,26.12,17.414z M3.87,12.577v15.478h1.935v0.967h-3.87
	C0.871,29.022,0,27.716,0,26.12V14.512c0-1.596,0.871-2.902,1.935-2.902h3.87v0.967C5.805,12.577,3.87,12.577,3.87,12.577z"/>
</svg>
