<?xml version="1.0" encoding="utf-8"?>
<!-- Generator: Adobe Illustrator 17.0.0, SVG Export Plug-In . SVG Version: 6.00 Build 0)  -->
<!DOCTYPE svg PUBLIC "-//W3C//DTD SVG 1.1//EN" "http://www.w3.org/Graphics/SVG/1.1/DTD/svg11.dtd">
<svg version="1.1" id="Layer_1" xmlns="http://www.w3.org/2000/svg" xmlns:xlink="http://www.w3.org/1999/xlink" x="0px" y="0px"
	 width="28.51px" height="31.511px" viewBox="49.607 146.455 28.51 31.511" enable-background="new 49.607 146.455 28.51 31.511"
	 xml:space="preserve">
<path d="M67.613,173.839c0,0.414-0.336,0.75-0.75,0.75H60.86c-0.414,0-0.75-0.336-0.75-0.75s0.336-0.75,0.75-0.75h6.002
	C67.277,173.089,67.613,173.425,67.613,173.839z M66.863,174.964H60.86c-0.494,0-0.876,0.477-0.712,0.995
	c0.099,0.312,0.415,0.506,0.743,0.506h0.011c0.433,0,0.829,0.245,1.023,0.632l0.008,0.016c0.261,0.522,0.795,0.852,1.379,0.852
	h1.095c0.584,0,1.118-0.33,1.379-0.852l0.008-0.016c0.194-0.388,0.59-0.632,1.023-0.632h0.011c0.328,0,0.644-0.193,0.743-0.506
	C67.738,175.441,67.356,174.964,66.863,174.964z M63.862,150.956c0.414,0,0.75-0.336,0.75-0.75v-3.001c0-0.414-0.336-0.75-0.75-0.75
	c-0.414,0-0.75,0.336-0.75,0.75v3.001C63.111,150.62,63.447,150.956,63.862,150.956z M55.904,153.813
	c0.146,0.147,0.338,0.22,0.53,0.22c0.192,0,0.384-0.073,0.53-0.22c0.293-0.293,0.293-0.768,0-1.061l-2.122-2.122
	c-0.293-0.293-0.768-0.293-1.061,0c-0.293,0.293-0.293,0.768,0,1.061L55.904,153.813z M54.108,160.71c0-0.414-0.336-0.75-0.75-0.75
	h-3.001c-0.414,0-0.75,0.336-0.75,0.75s0.336,0.75,0.75,0.75h3.001C53.772,161.46,54.108,161.124,54.108,160.71z M55.904,167.606
	l-2.122,2.122c-0.293,0.293-0.293,0.768,0,1.061c0.146,0.147,0.338,0.22,0.53,0.22c0.192,0,0.384-0.073,0.53-0.22l2.122-2.122
	c0.293-0.293,0.293-0.768,0-1.061C56.672,167.313,56.197,167.313,55.904,167.606z M71.819,167.606c-0.293-0.293-0.768-0.293-1.061,0
	c-0.293,0.293-0.293,0.768,0,1.061l2.122,2.122c0.147,0.147,0.338,0.22,0.53,0.22c0.192,0,0.384-0.073,0.53-0.22
	c0.293-0.293,0.293-0.768,0-1.061L71.819,167.606z M77.366,159.959h-3.001c-0.414,0-0.75,0.336-0.75,0.75s0.336,0.75,0.75,0.75
	h3.001c0.414,0,0.75-0.336,0.75-0.75S77.78,159.959,77.366,159.959z M71.289,154.033c0.192,0,0.384-0.073,0.53-0.22l2.122-2.122
	c0.293-0.293,0.293-0.768,0-1.061c-0.293-0.293-0.768-0.293-1.061,0l-2.122,2.122c-0.293,0.293-0.293,0.768,0,1.061
	C70.905,153.96,71.097,154.033,71.289,154.033z M67.613,171.963c0,0.414-0.336,0.75-0.75,0.75H60.86c-0.414,0-0.75-0.336-0.75-0.75
	c0-0.4,0.313-0.723,0.707-0.746c-0.467-4.222-4.834-5.162-4.834-10.133c0-4.351,3.527-7.878,7.878-7.878s7.878,3.527,7.878,7.878
	c0,4.971-4.366,5.911-4.834,10.133C67.3,171.24,67.613,171.564,67.613,171.963z M62.133,155.312
	c-0.117-0.288-0.444-0.426-0.733-0.31c-1.917,0.777-3.371,2.438-3.888,4.442c-0.078,0.301,0.104,0.608,0.404,0.685
	c0.047,0.012,0.094,0.018,0.141,0.018c0.251,0,0.479-0.168,0.545-0.422c0.428-1.661,1.633-3.037,3.221-3.68
	C62.11,155.928,62.249,155.6,62.133,155.312z"/>
</svg>
