<?xml version="1.0" encoding="utf-8"?>
<!-- Generator: Adobe Illustrator 17.0.0, SVG Export Plug-In . SVG Version: 6.00 Build 0)  -->
<!DOCTYPE svg PUBLIC "-//W3C//DTD SVG 1.1//EN" "http://www.w3.org/Graphics/SVG/1.1/DTD/svg11.dtd">
<svg version="1.1" id="Capa_1" xmlns="http://www.w3.org/2000/svg" xmlns:xlink="http://www.w3.org/1999/xlink" x="0px" y="0px"
	 width="27.328px" height="24.378px" viewBox="13.208 15.219 27.328 24.378" enable-background="new 13.208 15.219 27.328 24.378"
	 xml:space="preserve">
<path d="M40.307,33.762c-0.973-1.756-5.232-2.875-8.994-3.087c-0.34-0.364-0.685-0.747-1.039-1.149
	c-3.232-3.696-4.541-9.067-5.03-11.912c-0.058-0.603-0.122-1.104-0.176-1.478c-0.044-0.297-0.135-0.917-0.779-0.917
	c-0.206,0-0.405,0.089-0.547,0.246c-0.23,0.262-0.195,0.544-0.155,0.87c0.046,0.373,0.115,0.873,0.213,1.443
	c0.275,2.889,0.405,8.389-1.818,12.759c-0.232,0.455-0.463,0.893-0.692,1.31c-4.161,1.21-7.518,3.368-8.01,5.158
	c-0.178,0.648-0.023,1.269,0.437,1.75c0.535,0.559,1.167,0.843,1.878,0.843c1.969,0,4.212-2.192,6.669-6.514
	c1.094-0.288,2.18-0.488,3.23-0.594c0.409-0.041,1.071-0.128,1.478-0.19c1.121-0.173,2.389-0.243,3.692-0.2
	c3.016,3.135,5.482,4.725,7.33,4.725c0.992-0.001,1.814-0.485,2.312-1.362C40.612,34.918,40.614,34.314,40.307,33.762z
	 M15.594,38.144c-0.308,0-0.571-0.125-0.829-0.394c-0.105-0.11-0.129-0.204-0.085-0.36c0.254-0.922,2.383-2.502,5.496-3.649
	C18.418,36.516,16.735,38.144,15.594,38.144z M26.748,30.865c-0.386,0.06-1.014,0.141-1.402,0.182
	c-0.705,0.07-1.43,0.181-2.162,0.331c0.031-0.06,0.061-0.12,0.092-0.18c1.09-2.142,1.766-4.711,2.016-7.655
	c1,2.8,2.305,5.128,3.889,6.94c0.046,0.054,0.095,0.108,0.142,0.163C28.408,30.667,27.545,30.742,26.748,30.865z M39.039,34.748
	c-0.241,0.427-0.584,0.625-1.076,0.625h-0.001c-1.155,0-2.931-1.093-5.057-3.098c3.291,0.413,5.7,1.409,6.132,2.19
	C39.1,34.579,39.1,34.639,39.039,34.748z"/>
</svg>
