<?xml version="1.0" encoding="utf-8"?>
<!-- Generator: Adobe Illustrator 17.0.0, SVG Export Plug-In . SVG Version: 6.00 Build 0)  -->
<!DOCTYPE svg PUBLIC "-//W3C//DTD SVG 1.1//EN" "http://www.w3.org/Graphics/SVG/1.1/DTD/svg11.dtd">
<svg version="1.1" id="Capa_1" xmlns="http://www.w3.org/2000/svg" xmlns:xlink="http://www.w3.org/1999/xlink" x="0px" y="0px"
	 width="28.299px" height="32.685px" viewBox="0 0 28.299 32.685" enable-background="new 0 0 28.299 32.685" xml:space="preserve">
<path fill="#1D1D1B" d="M21.678,19.345c0.23-0.193,0.444-0.405,0.668-0.604C21.497,19.575,21.046,19.928,21.678,19.345z
	 M28.29,21.821c0.052,0.81-0.113,1.686-0.551,2.384c-0.45,0.731-1.139,1.232-1.879,1.542c-0.742,0.311-1.527,0.45-2.304,0.502
	c-1.288,0.084-2.56-0.074-3.803-0.328c-1.346,3.518-3.378,5.763-5.651,5.763c-2.21,0-4.19-2.136-5.535-5.493
	c-1.136,0.256-2.298,0.419-3.478,0.384c-0.776-0.025-1.57-0.137-2.319-0.422c-0.75-0.284-1.456-0.761-1.933-1.475
	c-0.465-0.682-0.657-1.552-0.633-2.363c0.019-0.821,0.215-1.613,0.491-2.36c0.534-1.428,1.341-2.717,2.259-3.899
	c-0.12-0.139-0.245-0.276-0.362-0.418c-0.226,0.126-0.483,0.204-0.762,0.204c-0.872,0-1.58-0.708-1.58-1.58
	c0-0.503,0.241-0.947,0.607-1.236c-0.053-0.105-0.115-0.203-0.164-0.31c-0.328-0.709-0.584-1.464-0.668-2.264
	c-0.086-0.793,0.029-1.65,0.445-2.382c0.408-0.736,1.092-1.29,1.831-1.637C3.043,6.082,3.84,5.902,4.632,5.812
	c1.264-0.138,2.525-0.062,3.76,0.132C9.736,2.326,11.795,0,14.103,0c2.259,0,4.281,2.222,5.625,5.705
	c1.165-0.212,2.356-0.31,3.556-0.224c0.795,0.064,1.596,0.214,2.351,0.541c0.752,0.323,1.447,0.843,1.892,1.579
	c0.432,0.703,0.582,1.566,0.523,2.36c-0.054,0.803-0.286,1.565-0.587,2.284c-0.534,1.255-1.3,2.373-2.143,3.419
	c0.957,1.151,1.807,2.409,2.393,3.818C28.015,20.217,28.242,21.002,28.29,21.821z M20.058,6.644
	c0.506,1.527,0.888,3.254,1.117,5.118c1.45,1.113,2.814,2.339,4.013,3.737c0.003,0.004,0.007,0.009,0.01,0.013
	c0.783-1.056,1.462-2.189,1.915-3.404c0.256-0.703,0.437-1.437,0.449-2.168c0.015-0.73-0.147-1.441-0.549-2.03
	c-0.382-0.565-0.985-0.986-1.647-1.231c-0.668-0.252-1.399-0.357-2.128-0.378C22.179,6.271,21.11,6.416,20.058,6.644z
	 M15.268,23.622c-0.309,0.163-0.618,0.327-0.933,0.479c1.509,0.637,3.065,1.156,4.667,1.491c0.085,0.018,0.171,0.029,0.256,0.045
	c0.82-2.209,1.367-4.951,1.527-7.96c-0.703-0.159-1.229-0.785-1.229-1.537c0-0.761,0.539-1.395,1.255-1.544
	c-0.021-0.595-0.054-1.183-0.105-1.757c-1.062-0.809-2.171-1.563-3.319-2.234c-1.091-0.647-2.22-1.225-3.37-1.75
	c-1.134,0.565-2.243,1.182-3.31,1.868C9.59,11.432,8.515,12.22,7.489,13.06c-0.074,0.904-0.118,1.831-0.118,2.783
	c0,1.512,0.1,2.969,0.283,4.349c0.131,0.146,0.12,0.17,0.012,0.107c0.283,2.087,0.761,3.977,1.382,5.58
	c0.192-0.041,0.384-0.076,0.574-0.121c1.59-0.391,3.126-0.965,4.612-1.655c-1.273-0.565-2.515-1.202-3.71-1.911
	c1.211,0.708,2.469,1.338,3.761,1.887c0.325-0.151,0.644-0.317,0.964-0.48c-0.202-0.265-0.326-0.593-0.326-0.952
	c0-0.873,0.708-1.581,1.581-1.581c0.667,0,1.234,0.414,1.467,0.998c0.002-0.001,0.004-0.002,0.006-0.003
	c-0.002,0.001-0.004,0.002-0.006,0.003c0.072,0.181,0.114,0.376,0.114,0.583c0,0.873-0.708,1.581-1.581,1.581
	C15.999,24.228,15.557,23.988,15.268,23.622z M6.777,15.843c0-0.77,0.034-1.522,0.084-2.264c-1.067,0.914-2.086,1.89-2.991,2.958
	c-0.034,0.041-0.066,0.084-0.1,0.125c1.591,1.395,2.614,2.315,3.218,2.877C6.854,18.351,6.777,17.118,6.777,15.843z M10.071,9.72
	c0.826-0.523,1.682-1.001,2.553-1.455C11.477,7.808,10.31,7.406,9.115,7.11C8.952,7.071,8.789,7.042,8.627,7.006
	C8.204,8.345,7.873,9.839,7.659,11.45C8.44,10.843,9.24,10.258,10.071,9.72z M20.53,11.278c-0.227-1.64-0.581-3.152-1.023-4.502
	c-0.219,0.054-0.439,0.105-0.656,0.164c-1.183,0.338-2.335,0.78-3.465,1.276c0.885,0.422,1.757,0.87,2.601,1.362
	C18.861,10.104,19.704,10.679,20.53,11.278z M8.952,6.044C9.08,6.068,9.211,6.086,9.338,6.112c1.601,0.336,3.153,0.844,4.654,1.47
	c1.478-0.679,3.011-1.243,4.6-1.635c0.191-0.046,0.385-0.082,0.577-0.124c-1.235-3.198-3.046-5.23-5.066-5.23
	C12.038,0.594,10.188,2.717,8.952,6.044z M3.071,15.902c0.003-0.004,0.007-0.009,0.01-0.013c1.161-1.455,2.497-2.741,3.925-3.914
	C7.221,10.13,7.58,8.41,8.066,6.886c-1.115-0.212-2.243-0.332-3.36-0.261C3.975,6.674,3.249,6.804,2.592,7.079
	C1.935,7.351,1.354,7.782,0.984,8.374C0.61,8.963,0.47,9.69,0.511,10.416c0.04,0.729,0.244,1.457,0.528,2.15
	c0.038,0.092,0.087,0.178,0.127,0.268c0.203-0.095,0.427-0.151,0.666-0.151c0.872,0,1.58,0.708,1.58,1.58
	c0,0.519-0.254,0.976-0.64,1.263C2.868,15.655,2.972,15.776,3.071,15.902z M8.487,25.997C7.802,24.231,7.3,22.134,7.022,19.84
	c-0.097-0.074-0.195-0.15-0.295-0.23c-1.092-0.855-2.124-1.788-3.079-2.799c-0.873,1.062-1.665,2.199-2.196,3.445
	c-0.567,1.327-0.852,2.887-0.106,4.12c0.348,0.585,0.94,1.049,1.605,1.333c0.67,0.293,1.413,0.437,2.16,0.497
	C6.231,26.289,7.366,26.198,8.487,25.997z M19.193,25.802c-0.076-0.018-0.152-0.031-0.227-0.049
	c-1.609-0.397-3.168-0.958-4.68-1.626c-1.488,0.721-3.027,1.336-4.622,1.79c-0.18,0.05-0.364,0.092-0.546,0.137
	c1.233,3.084,3.008,5.037,4.985,5.037C16.135,31.091,17.957,29.035,19.193,25.802z M26.972,19.804
	c-0.575-1.227-1.405-2.336-2.317-3.366c-0.72,0.819-1.497,1.58-2.309,2.303c0.616-0.605,1.441-1.464,2.219-2.408
	c-0.047-0.053-0.092-0.108-0.14-0.161c-0.943-1.038-1.997-1.977-3.094-2.853c0.031,0.419,0.057,0.841,0.073,1.271
	c0.744,0.128,1.311,0.772,1.311,1.552c0,0.789-0.581,1.437-1.336,1.554c-0.163,3.021-0.721,5.782-1.559,8.041
	c1.231,0.2,2.48,0.279,3.707,0.145c0.745-0.086,1.481-0.256,2.139-0.573c0.656-0.308,1.232-0.793,1.561-1.391
	C27.927,22.659,27.584,21.111,26.972,19.804z"/>
</svg>
