<?xml version="1.0" encoding="utf-8"?>
<!-- Generator: Adobe Illustrator 17.0.0, SVG Export Plug-In . SVG Version: 6.00 Build 0)  -->
<!DOCTYPE svg PUBLIC "-//W3C//DTD SVG 1.1//EN" "http://www.w3.org/Graphics/SVG/1.1/DTD/svg11.dtd">
<svg version="1.1" id="Capa_1" xmlns="http://www.w3.org/2000/svg" xmlns:xlink="http://www.w3.org/1999/xlink" x="0px" y="0px"
	 width="11.959px" height="9.517px" viewBox="0 0 11.959 9.517" enable-background="new 0 0 11.959 9.517" xml:space="preserve">
<g id="Layer_8">
	<path d="M3.122,4.02v0.371h5.336V4.02H9.84v0.371h0.911c0.602,0,1.104-0.436,1.208-1.009V1.19H7.973V0.227
		C7.973,0.102,7.871,0,7.746,0H4.239C4.114,0,4.012,0.102,4.012,0.227v0.964H0v2.387c0.171,0.473,0.624,0.813,1.156,0.813h0.585
		V4.02H3.122L3.122,4.02z M4.466,0.454h3.053V1.19H4.466V0.454z M9.84,5.648V4.694h0.911c0.491,0,0.928-0.233,1.208-0.593v5.416H0
		V4.165c0.281,0.324,0.695,0.529,1.155,0.529H1.74v0.953h1.381V4.694h5.336v0.953H9.84z"/>
</g>
</svg>
