<?xml version="1.0" encoding="utf-8"?>
<!-- Generator: Adobe Illustrator 15.0.0, SVG Export Plug-In . SVG Version: 6.00 Build 0)  -->
<!DOCTYPE svg PUBLIC "-//W3C//DTD SVG 1.1//EN" "http://www.w3.org/Graphics/SVG/1.1/DTD/svg11.dtd">
<svg version="1.1" id="Layer_1" xmlns="http://www.w3.org/2000/svg" xmlns:xlink="http://www.w3.org/1999/xlink" x="0px" y="0px"
	 width="64px" height="64px" viewBox="0 0 64 64" enable-background="new 0 0 64 64" xml:space="preserve">
<g>
	<g>
		<path d="M18.45,37.179c0.102,0.749,0.271,1.514,0.438,2.252l0.006,0.035c0.706,3.145,1.26,5.627-2.593,7.095l-0.747,0.345
			c-0.257,0.034-0.513,0.052-0.764,0.052C8.453,46.954,4.569,36.79,4.351,31.568c-0.341-10.858,2.29-17.043,7.81-18.374
			c0.951-0.193,2.789-0.415,4.843-0.415c2.477,0,6.929,0.341,8.907,2.614c0.846,0.971,1.167,2.234,0.957,3.751
			c-0.429,3.095-2.197,5.187-4.069,7.401C20.446,29.331,18.013,32.204,18.45,37.179z M19.034,39.437L19.034,39.437L19.034,39.437
			L19.034,39.437z"/>
	</g>
	<g>
		<path d="M26.677,11.748c-0.269,0-0.531-0.046-0.776-0.131c-0.788-0.28-1.386-0.98-1.684-1.972
			c-0.315-1.053-0.256-2.287,0.167-3.48c0.712-2.01,2.287-3.413,3.833-3.413c0.268,0,0.528,0.047,0.776,0.131
			c1.689,0.601,2.369,3.046,1.517,5.453C29.799,10.344,28.224,11.748,26.677,11.748z"/>
	</g>
	<g>
		<path d="M18.258,6.426c0.248-1.085,1.009-1.902,1.768-1.902c0.076,0,0.151,0.009,0.225,0.026c0.82,0.19,1.257,1.336,0.977,2.559
			c-0.266,1.17-1.199,2.065-1.993,1.876C18.416,8.795,17.978,7.649,18.258,6.426z"/>
	</g>
	<g>
		<path d="M13.246,7.205c-0.029-0.516,0.085-1.003,0.324-1.371c0.208-0.327,0.481-0.501,0.811-0.522
			c0.622,0.003,1.196,0.805,1.252,1.75c0.032,0.516-0.082,1.003-0.321,1.371c-0.204,0.318-0.476,0.502-0.758,0.519l-0.05,0.003
			C13.87,8.956,13.304,8.171,13.246,7.205z"/>
	</g>
	<g>
		<path d="M8.604,7.258c0.143-0.35,0.376-0.583,0.657-0.659c0.064-0.015,0.131-0.023,0.198-0.023c0.592,0,1.205,0.633,1.427,1.476
			c0.151,0.578,0.096,1.176-0.152,1.596c-0.096,0.169-0.274,0.385-0.557,0.458c-0.062,0.018-0.125,0.023-0.193,0.023
			c-0.586,0-1.213-0.645-1.429-1.47C8.423,8.159,8.444,7.663,8.604,7.258z"/>
	</g>
	<g>
		<path d="M5.048,10.228c0.096-0.245,0.254-0.405,0.438-0.452c0.047-0.012,0.088-0.018,0.131-0.018c0.412,0,0.855,0.473,1.012,1.077
			c0.097,0.368,0.085,0.735-0.035,1.03c-0.096,0.242-0.254,0.403-0.44,0.452c-0.426,0.105-0.969-0.396-1.141-1.059
			C4.917,10.89,4.928,10.522,5.048,10.228z"/>
	</g>
	<g>
		<path d="M49.211,61.25c-0.254,0-0.511-0.018-0.765-0.05l-0.778-0.359c-3.822-1.455-3.265-3.938-2.556-7.112
			c0.166-0.738,0.335-1.505,0.438-2.278c0.438-4.951-1.995-7.827-4.35-10.61c-1.873-2.215-3.639-4.304-4.067-7.401
			c-0.21-1.517,0.111-2.78,0.957-3.752c1.979-2.272,6.43-2.611,8.907-2.611c2.057,0,3.889,0.219,4.825,0.408
			c5.534,1.333,8.168,7.518,7.827,18.374C59.434,51.082,55.548,61.25,49.211,61.25z"/>
	</g>
	<g>
		<path d="M35.782,17.045c1.546,0,3.122,1.403,3.834,3.414c0.423,1.193,0.483,2.427,0.166,3.478
			c-0.298,0.992-0.896,1.692-1.684,1.972c-0.248,0.087-0.511,0.131-0.776,0.131c-1.546,0-3.121-1.403-3.833-3.411
			c-0.852-2.41-0.172-4.854,1.518-5.453C35.254,17.089,35.514,17.045,35.782,17.045z"/>
	</g>
	<g>
		<path d="M43.975,18.819c0.761,0,1.52,0.817,1.771,1.899c0.28,1.222-0.16,2.372-0.98,2.558c-0.069,0.018-0.143,0.026-0.216,0.026
			c-0.753,0-1.534-0.834-1.776-1.902c-0.283-1.223,0.157-2.369,0.978-2.559C43.819,18.828,43.896,18.819,43.975,18.819z"/>
	</g>
	<g>
		<path d="M48.368,21.354c0.058-0.977,0.633-1.745,1.307-1.748c0.283,0.021,0.555,0.204,0.759,0.522
			c0.236,0.365,0.35,0.852,0.32,1.368c-0.058,0.965-0.621,1.75-1.254,1.75h-0.05c-0.286-0.018-0.558-0.205-0.762-0.522
			C48.452,22.358,48.336,21.874,48.368,21.354z"/>
	</g>
	<g>
		<path d="M53.117,23.09c0.219-0.84,0.829-1.476,1.424-1.476c0.067,0,0.131,0.009,0.198,0.026c0.28,0.073,0.517,0.306,0.656,0.659
			c0.161,0.405,0.179,0.901,0.05,1.397c-0.239,0.919-1.001,1.61-1.622,1.45c-0.283-0.076-0.461-0.292-0.56-0.461
			C53.019,24.266,52.966,23.671,53.117,23.09z"/>
	</g>
	<g>
		<path d="M57.371,25.876c0.157-0.604,0.604-1.077,1.015-1.077c0.044,0,0.085,0.003,0.126,0.015c0.187,0.05,0.344,0.21,0.44,0.452
			c0.119,0.301,0.131,0.665,0.035,1.033c-0.155,0.601-0.604,1.074-1.021,1.074c-0.041,0-0.081-0.006-0.119-0.015
			c-0.187-0.049-0.345-0.21-0.44-0.452C57.286,26.609,57.274,26.244,57.371,25.876z"/>
	</g>
</g>
</svg>
