<?xml version="1.0" encoding="iso-8859-1"?>
<!-- Generator: Adobe Illustrator 16.0.0, SVG Export Plug-In . SVG Version: 6.00 Build 0)  -->
<!DOCTYPE svg PUBLIC "-//W3C//DTD SVG 1.1//EN" "http://www.w3.org/Graphics/SVG/1.1/DTD/svg11.dtd">
<svg version="1.1" id="Layer_1" xmlns="http://www.w3.org/2000/svg" xmlns:xlink="http://www.w3.org/1999/xlink" x="0px" y="0px"
	 width="39.237px" height="44.778px" viewBox="0 0 39.237 44.778" style="enable-background:new 0 0 39.237 44.778;"
	 xml:space="preserve">
<g>
	<path d="M20.351,6.49c0.072-0.05,0.129-0.115,0.172-0.195c0.043-0.08,0.072-0.17,0.087-0.27s0.023-0.199,0.023-0.299
		c0-0.099-0.008-0.199-0.023-0.298s-0.044-0.188-0.087-0.266c-0.043-0.078-0.101-0.142-0.172-0.191
		c-0.071-0.05-0.166-0.075-0.282-0.075s-0.211,0.025-0.282,0.075c-0.072,0.05-0.129,0.113-0.172,0.191
		c-0.043,0.078-0.072,0.167-0.087,0.266s-0.023,0.199-0.023,0.298c0,0.1,0.008,0.199,0.023,0.299s0.044,0.189,0.087,0.27
		c0.043,0.08,0.101,0.145,0.172,0.195c0.071,0.05,0.166,0.074,0.282,0.074S20.279,6.54,20.351,6.49z"/>
	<polygon points="23.159,12.834 22.564,14.732 23.729,14.732 23.176,12.834 	"/>
	<path d="M35.04,14.548c0.062,0.002,0.119-0.004,0.172-0.021c0.053-0.018,0.099-0.047,0.138-0.09
		c0.039-0.043,0.068-0.104,0.088-0.185c0.062-0.247-0.053-0.407-0.345-0.48l-0.787-0.199l-0.191,0.76l0.735,0.185
		C34.915,14.535,34.978,14.544,35.04,14.548z"/>
	<path d="M23.696,2.464c0.076-0.017,0.134-0.037,0.174-0.062c0.04-0.024,0.06-0.066,0.062-0.126
		c0.001-0.041-0.018-0.079-0.058-0.115c-0.039-0.035-0.09-0.054-0.152-0.055c-0.078-0.002-0.145,0.02-0.2,0.063
		c-0.055,0.045-0.086,0.114-0.093,0.208l-0.004,0.165c0.042-0.02,0.086-0.035,0.132-0.047C23.604,2.485,23.65,2.475,23.696,2.464z"
		/>
	<path d="M35.489,12.994c0.087-0.027,0.148-0.106,0.181-0.239c0.026-0.103,0.006-0.186-0.062-0.247
		c-0.067-0.061-0.166-0.108-0.294-0.141L34.652,12.2l-0.155,0.616l0.662,0.167C35.292,13.016,35.401,13.02,35.489,12.994z"/>
	<path d="M34.633,20.181c-0.044-0.021-0.091-0.032-0.142-0.032c-0.05,0.001-0.102,0.011-0.155,0.03s-0.105,0.043-0.154,0.07
		c-0.049,0.027-0.096,0.059-0.141,0.094s-0.082,0.074-0.109,0.117c-0.027,0.043-0.044,0.089-0.049,0.139
		c-0.005,0.049,0.009,0.102,0.041,0.159c0.032,0.058,0.07,0.098,0.114,0.12c0.044,0.021,0.092,0.031,0.143,0.031
		c0.051-0.001,0.104-0.012,0.157-0.031c0.054-0.02,0.104-0.043,0.154-0.07c0.049-0.027,0.096-0.059,0.141-0.094
		c0.045-0.035,0.082-0.073,0.107-0.116c0.027-0.043,0.042-0.089,0.047-0.138s-0.008-0.102-0.04-0.16
		C34.715,20.244,34.677,20.204,34.633,20.181z"/>
	<path d="M29.199,13.485c0.133,0,0.247-0.039,0.339-0.118s0.143-0.199,0.15-0.36v-0.283c-0.071,0.035-0.146,0.064-0.224,0.085
		s-0.157,0.042-0.236,0.062c-0.13,0.031-0.228,0.069-0.295,0.112c-0.067,0.043-0.101,0.116-0.101,0.219
		c0,0.071,0.035,0.135,0.104,0.194S29.092,13.485,29.199,13.485z"/>
	<path d="M39.076,14.025C38.314,10.28,38.8,2.441,25.836,0.373C12.874-1.696,1.194,4.881,4.132,19.256
		c0,2.62-5.188,6.688-3.938,8.063s3.371,1.428,3.371,1.428s-1.379,2.62-0.759,3.344s2.344,0.414,2.344,0.414
		s-1.602,1.154-1.602,2.05s2.705,2.087,2.705,2.087S5.757,41.6,9.819,41.256s4.746-1.491,4.746-1.491l1.205,5.013h15.721
		l-0.552-10.895C30.939,33.884,40.593,23.403,39.076,14.025z M32.574,19.25c-0.129-0.1-0.239-0.232-0.331-0.399
		c-0.104-0.186-0.164-0.367-0.182-0.545s-0.001-0.346,0.051-0.505s0.137-0.305,0.255-0.437c0.118-0.133,0.261-0.247,0.43-0.341
		c0.179-0.1,0.358-0.163,0.536-0.19c0.178-0.027,0.348-0.02,0.509,0.023c0.161,0.044,0.31,0.121,0.447,0.23
		c0.136,0.11,0.253,0.254,0.352,0.432c0.174,0.317,0.23,0.605,0.169,0.865c-0.062,0.259-0.228,0.484-0.5,0.675l-0.381-0.687
		c0.02-0.016,0.044-0.04,0.076-0.071c0.031-0.032,0.058-0.071,0.078-0.119c0.021-0.048,0.032-0.103,0.035-0.164
		c0.002-0.062-0.017-0.129-0.057-0.201c-0.046-0.084-0.103-0.143-0.17-0.179c-0.067-0.035-0.14-0.053-0.219-0.053
		c-0.078,0-0.158,0.014-0.241,0.041c-0.083,0.025-0.164,0.061-0.24,0.104c-0.077,0.042-0.148,0.092-0.216,0.149
		c-0.066,0.056-0.12,0.117-0.161,0.184c-0.042,0.066-0.065,0.138-0.071,0.213c-0.005,0.076,0.015,0.155,0.062,0.239
		c0.033,0.06,0.071,0.105,0.114,0.137c0.042,0.03,0.088,0.051,0.139,0.061s0.104,0.011,0.161,0.003
		c0.057-0.008,0.116-0.021,0.175-0.04l0.385,0.692c-0.115,0.064-0.243,0.104-0.381,0.121c-0.139,0.018-0.278,0.007-0.419-0.031
		C32.835,19.419,32.701,19.35,32.574,19.25z M33.998,21.883l-0.34-0.612l0.183-0.102l-0.003-0.007
		c-0.037-0.005-0.075-0.012-0.115-0.022c-0.041-0.009-0.082-0.026-0.123-0.051c-0.042-0.024-0.084-0.06-0.127-0.104
		c-0.043-0.046-0.087-0.107-0.129-0.185c-0.065-0.117-0.096-0.234-0.093-0.352s0.031-0.228,0.084-0.332
		c0.052-0.104,0.123-0.201,0.211-0.287c0.089-0.088,0.186-0.16,0.291-0.218c0.098-0.055,0.205-0.101,0.319-0.136
		c0.114-0.035,0.229-0.05,0.341-0.043s0.221,0.042,0.326,0.104c0.104,0.062,0.195,0.163,0.272,0.302
		c0.053,0.096,0.083,0.194,0.086,0.296c0.005,0.101-0.015,0.195-0.058,0.284l0.004,0.006l0.808-0.449l0.353,0.635L33.998,21.883z
		 M35.872,11.476c0.266,0.067,0.476,0.155,0.627,0.265c0.153,0.109,0.264,0.228,0.335,0.354c0.071,0.127,0.109,0.255,0.113,0.383
		c0.003,0.129-0.007,0.244-0.033,0.347c-0.052,0.205-0.138,0.357-0.26,0.456c-0.122,0.099-0.269,0.17-0.443,0.216
		c0.084,0.054,0.162,0.117,0.233,0.192c0.073,0.074,0.131,0.161,0.175,0.259c0.044,0.099,0.071,0.21,0.083,0.334
		s-0.002,0.26-0.039,0.408c-0.052,0.205-0.138,0.375-0.258,0.508c-0.121,0.134-0.261,0.234-0.419,0.304
		c-0.159,0.068-0.331,0.108-0.515,0.119c-0.185,0.01-0.367-0.008-0.545-0.053l-2.31-0.582l1.026-4.071L35.872,11.476z M25.515,9.622
		h-0.873l-0.389-0.689l-0.128,0.139v0.55h-0.726V7.003h0.726v1.265l0.462-0.55h0.822L24.73,8.438L25.515,9.622z M23.404,1.74
		c0.009,0.025,0.015,0.054,0.019,0.084c0.003,0.031,0.004,0.06,0.001,0.085h0.007c0.076-0.081,0.164-0.135,0.264-0.162
		c0.101-0.027,0.207-0.039,0.317-0.036c0.087,0.002,0.168,0.014,0.244,0.037c0.075,0.022,0.14,0.057,0.197,0.103
		c0.056,0.047,0.1,0.104,0.131,0.172c0.032,0.068,0.046,0.15,0.044,0.244c-0.002,0.095-0.021,0.173-0.057,0.235
		c-0.035,0.062-0.081,0.113-0.138,0.155c-0.057,0.04-0.122,0.071-0.193,0.093c-0.072,0.021-0.145,0.037-0.22,0.049
		c-0.075,0.013-0.148,0.021-0.221,0.027c-0.073,0.007-0.138,0.015-0.195,0.024c-0.046,0.009-0.089,0.021-0.128,0.04
		s-0.06,0.057-0.062,0.114c-0.001,0.06,0.021,0.103,0.067,0.129s0.097,0.04,0.152,0.042c0.053,0.001,0.096-0.003,0.128-0.014
		c0.033-0.011,0.059-0.025,0.079-0.043c0.02-0.018,0.033-0.038,0.041-0.06c0.007-0.021,0.011-0.042,0.012-0.06l0.633,0.016
		c-0.008,0.126-0.041,0.227-0.101,0.303c-0.06,0.074-0.133,0.132-0.221,0.171c-0.088,0.039-0.187,0.064-0.293,0.076
		c-0.107,0.011-0.214,0.015-0.319,0.012c-0.213-0.005-0.377-0.029-0.491-0.072s-0.196-0.099-0.248-0.167
		c-0.051-0.067-0.08-0.143-0.085-0.228c-0.006-0.083-0.008-0.168-0.005-0.253l0.019-0.733c0.001-0.066-0.001-0.136-0.007-0.207
		s-0.028-0.137-0.066-0.194L23.404,1.74z M10.518,7.375l0.572,0.347l0.233-0.384l0.441,0.268l-0.232,0.384l0.654,0.397
		c0.088,0.052,0.16,0.077,0.216,0.074c0.057-0.004,0.113-0.052,0.169-0.143c0.031-0.053,0.061-0.11,0.088-0.17l0.543,0.33
		c-0.044,0.073-0.086,0.15-0.127,0.233c-0.04,0.083-0.084,0.163-0.131,0.24S12.847,9.1,12.791,9.17
		c-0.056,0.071-0.122,0.124-0.196,0.161c-0.076,0.037-0.162,0.052-0.26,0.045c-0.099-0.007-0.212-0.049-0.34-0.126l-0.898-0.544
		l-0.193,0.319l-0.441-0.268l0.193-0.319l-0.572-0.347L10.518,7.375z M11.472,11.331l-0.359,0.594l-1.932-0.556l-0.004,0.007
		l1.658,1.005l-0.455,0.753l-2.586-1.567l0.687-1.133l1.745,0.552l0.004-0.007L8.933,9.687L9.62,8.554l2.586,1.567l-0.457,0.753
		L10.09,9.869l-0.004,0.007L11.472,11.331z M13.197,14.906l-1.372-0.624l2.25-4.946l1.372,0.623L13.197,14.906z M15.674,7.525
		c-0.376,0-0.71-0.063-1-0.188c-0.29-0.125-0.536-0.296-0.737-0.513c-0.201-0.216-0.354-0.473-0.458-0.769
		c-0.104-0.296-0.156-0.616-0.156-0.958c0-0.364,0.055-0.695,0.166-0.993c0.11-0.299,0.268-0.554,0.474-0.766
		c0.206-0.212,0.452-0.376,0.74-0.493c0.288-0.117,0.611-0.175,0.97-0.175c0.641,0.004,1.135,0.166,1.483,0.483
		c0.348,0.318,0.553,0.77,0.613,1.354h-1.389c-0.009-0.043-0.024-0.103-0.045-0.178s-0.061-0.15-0.117-0.224
		s-0.131-0.139-0.224-0.195s-0.213-0.084-0.36-0.084c-0.168,0-0.309,0.037-0.422,0.11c-0.112,0.074-0.202,0.171-0.269,0.292
		c-0.067,0.121-0.116,0.257-0.146,0.409s-0.045,0.305-0.045,0.461s0.015,0.31,0.045,0.461s0.079,0.288,0.146,0.409
		c0.067,0.122,0.157,0.219,0.269,0.292c0.113,0.073,0.253,0.11,0.422,0.11c0.121,0,0.224-0.02,0.309-0.059s0.156-0.093,0.214-0.162
		c0.058-0.069,0.106-0.152,0.143-0.247c0.037-0.095,0.066-0.197,0.087-0.305h1.402c0,0.233-0.046,0.465-0.14,0.694
		c-0.093,0.229-0.229,0.436-0.409,0.62c-0.18,0.184-0.401,0.332-0.666,0.444C16.312,7.469,16.011,7.525,15.674,7.525z M17.1,16.209
		l-0.413-0.667l0.846-0.523l-0.004-0.007c-0.103-0.014-0.201-0.05-0.296-0.105s-0.187-0.155-0.274-0.296
		c-0.049-0.079-0.083-0.162-0.104-0.25c-0.019-0.087-0.022-0.174-0.008-0.26c0.013-0.085,0.047-0.168,0.101-0.246
		s0.131-0.148,0.232-0.211l1.2-0.742l0.413,0.667l-0.917,0.567c-0.049,0.029-0.094,0.061-0.134,0.092s-0.07,0.063-0.091,0.098
		c-0.021,0.035-0.031,0.071-0.03,0.109c0,0.039,0.016,0.083,0.047,0.133c0.018,0.028,0.041,0.057,0.069,0.082
		c0.029,0.026,0.063,0.044,0.104,0.055s0.088,0.012,0.143,0c0.054-0.01,0.116-0.036,0.186-0.079l0.923-0.571l0.413,0.668
		L17.1,16.209z M18.867,12.153l-1.583-1.583l-0.597,0.596l-0.545-0.545l1.849-1.849l0.545,0.545L17.94,9.913l1.583,1.583
		L18.867,12.153z M19.01,7.34c-0.177-0.106-0.325-0.244-0.441-0.416c-0.117-0.171-0.205-0.362-0.263-0.574
		c-0.059-0.212-0.088-0.424-0.088-0.636c0-0.199,0.021-0.402,0.065-0.61c0.043-0.208,0.119-0.396,0.227-0.564
		c0.108-0.169,0.255-0.308,0.441-0.416c0.186-0.108,0.42-0.163,0.701-0.163c0.195,0,0.372,0.04,0.532,0.12s0.29,0.192,0.39,0.334
		h0.013V2.78h1.285v4.635h-1.24v-0.37H20.62c-0.039,0.052-0.083,0.105-0.133,0.159s-0.111,0.103-0.185,0.146
		c-0.074,0.043-0.165,0.079-0.273,0.107C19.921,7.485,19.789,7.5,19.633,7.5C19.396,7.5,19.188,7.446,19.01,7.34z M24.367,16.932
		l-0.259-0.88H22.15l-0.276,0.88h-1.906l2.269-6.16h1.855l2.243,6.16H24.367z M26.172,7.117l3.783-3.782l1.115,1.116l-1.22,1.22
		l3.239,3.24l-1.342,1.342l-3.24-3.24l-1.219,1.22L26.172,7.117z M27.641,13.25c0-0.161,0.028-0.296,0.085-0.404
		c0.057-0.108,0.134-0.199,0.23-0.271c0.097-0.073,0.206-0.129,0.328-0.168c0.122-0.039,0.247-0.071,0.375-0.094
		s0.254-0.042,0.377-0.056c0.124-0.014,0.235-0.03,0.333-0.05c0.079-0.016,0.151-0.041,0.218-0.074c0.067-0.034,0.1-0.1,0.1-0.198
		c0-0.103-0.04-0.175-0.121-0.218s-0.168-0.065-0.263-0.065c-0.09,0-0.163,0.01-0.218,0.029c-0.055,0.02-0.099,0.045-0.133,0.077
		c-0.033,0.032-0.056,0.066-0.068,0.104c-0.012,0.037-0.018,0.072-0.018,0.103h-1.085c0.008-0.216,0.061-0.39,0.159-0.522
		s0.222-0.233,0.372-0.304s0.316-0.118,0.499-0.142c0.183-0.024,0.365-0.036,0.546-0.036c0.366,0,0.647,0.035,0.844,0.104
		c0.196,0.069,0.34,0.16,0.431,0.274c0.09,0.114,0.142,0.243,0.156,0.386c0.014,0.144,0.021,0.288,0.021,0.434v1.256
		c0,0.114,0.007,0.232,0.021,0.354c0.014,0.122,0.054,0.232,0.121,0.331h-1.192c-0.016-0.043-0.027-0.091-0.035-0.145
		s-0.01-0.101-0.006-0.145h-0.012c-0.126,0.142-0.274,0.238-0.446,0.289c-0.171,0.051-0.351,0.077-0.54,0.077
		c-0.149,0-0.289-0.018-0.419-0.053c-0.13-0.035-0.244-0.091-0.342-0.168c-0.098-0.077-0.176-0.173-0.233-0.289
		S27.641,13.411,27.641,13.25z M30.654,17.992l-0.496,1.59l-0.884-0.275l0.379-1.215c0.021-0.065,0.036-0.128,0.048-0.186
		c0.012-0.059,0.013-0.111,0.005-0.158c-0.009-0.047-0.029-0.087-0.059-0.121c-0.029-0.033-0.079-0.061-0.144-0.081
		c-0.038-0.013-0.08-0.019-0.125-0.02c-0.046-0.002-0.091,0.009-0.135,0.031c-0.044,0.021-0.086,0.059-0.127,0.109
		s-0.075,0.123-0.104,0.215l-0.382,1.224l-0.884-0.275l0.995-3.188l0.884,0.276l-0.35,1.12l0.008,0.003
		c0.103-0.065,0.218-0.11,0.346-0.135c0.127-0.024,0.286-0.006,0.474,0.052c0.104,0.033,0.199,0.08,0.283,0.144
		c0.085,0.062,0.155,0.137,0.21,0.224c0.054,0.088,0.088,0.187,0.1,0.299C30.71,17.736,30.695,17.858,30.654,17.992z"/>
</g>
<g>
</g>
<g>
</g>
<g>
</g>
<g>
</g>
<g>
</g>
<g>
</g>
<g>
</g>
<g>
</g>
<g>
</g>
<g>
</g>
<g>
</g>
<g>
</g>
<g>
</g>
<g>
</g>
<g>
</g>
</svg>
