<?xml version="1.0" encoding="utf-8"?>
<!-- Generator: Adobe Illustrator 16.0.4, SVG Export Plug-In . SVG Version: 6.00 Build 0)  -->
<!DOCTYPE svg PUBLIC "-//W3C//DTD SVG 1.1//EN" "http://www.w3.org/Graphics/SVG/1.1/DTD/svg11.dtd">
<svg version="1.1" id="Layer_1" xmlns="http://www.w3.org/2000/svg" xmlns:xlink="http://www.w3.org/1999/xlink" x="0px" y="0px"
	 width="50px" height="50px" viewBox="0 0 50 50" enable-background="new 0 0 50 50" xml:space="preserve">
<path d="M36.043,11.099c-2.06-2.299-4.781-4.433-11.506-4.48c-2.627-0.021-6.639,0.601-9.76,3.901
	c-1.889,1.993-3.279,4.511-2.883,8.627c0.086,0.893,1.361,1.926,0.465,3.65c0,0-1.924,3.387-1.857,3.95c0,0-0.035,1.031,1.559,1.063
	c0,0,0.398,0.052,0.283,0.93l-0.018,1.28c0,0,0.051,0.381,0.748,0.612c0,0,0.133,0.133-0.066,0.384c0,0-0.367,0.409,0.266,1.294
	c0.234,0.323,0.613,0.729,0.381,1.562c0,0-0.299,1.608,0.332,1.992c0,0,0.717,0.852,3.604,0.496
	c1.008-0.124,2.871-0.613,3.982,0.782c0,0,2.656,5.045,2.857,6.239c0,0,4.531-8.067,10.062-9.312c0,0-1.347-3.038,1.393-6.973
	c0,0,3.437-4.532,3.537-7.022C39.42,20.074,40.327,15.879,36.043,11.099z M27.669,10.16l1.543,0.571l-1.533,4.137l-1.541-0.57
	L27.669,10.16z M21.651,10.676l1.844,4.01l-1.494,0.687l-1.843-4.009L21.651,10.676z M19.415,18.667l-4.137-1.531l0.57-1.542
	l4.138,1.531L19.415,18.667z M24.393,25.651l-0.271-0.591c-1.533-0.304-2.904-1.308-3.606-2.834
	c-1.161-2.527-0.055-5.518,2.472-6.68c2.528-1.161,5.517-0.054,6.679,2.474c0.702,1.526,0.571,3.223-0.197,4.582l0.271,0.592
	L24.393,25.651z M24.574,26.044l5.346-2.457l0.239,0.521l-5.348,2.457L24.574,26.044z M29.938,25.99
	c0.106,0.597-0.443,1.346-1.343,1.759c-0.898,0.413-1.826,0.344-2.209-0.126c-0.511,0.203-1.096-0.018-1.327-0.521l-0.06-0.13
	l5.347-2.457l0.061,0.129C30.638,25.148,30.425,25.735,29.938,25.99z"/>
</svg>
