<?xml version="1.0" encoding="iso-8859-1"?>
<!-- Generator: Adobe Illustrator 17.1.0, SVG Export Plug-In . SVG Version: 6.00 Build 0)  -->
<!DOCTYPE svg PUBLIC "-//W3C//DTD SVG 1.1//EN" "http://www.w3.org/Graphics/SVG/1.1/DTD/svg11.dtd">
<svg version="1.1" id="Capa_1" xmlns="http://www.w3.org/2000/svg" xmlns:xlink="http://www.w3.org/1999/xlink" x="0px" y="0px"
	 viewBox="0 0 200 200" style="enable-background:new 0 0 200 200;" xml:space="preserve">
<g>
	<path d="M125.804,165.388c0-4.156-3.23-7.537-7.201-7.537H81.397c-3.971,0-7.201,3.381-7.201,7.537s3.23,7.537,7.201,7.537h37.206
		C122.573,172.925,125.804,169.544,125.804,165.388z"/>
	<path d="M85.262,180.164c-4.378,0-7.94,3.381-7.94,7.537s3.562,7.537,7.94,7.537h29.879c4.378,0,7.94-3.381,7.94-7.537
		s-3.562-7.537-7.94-7.537H85.262z"/>
	<path d="M100,28.5c-27.202,0-49.333,22.131-49.333,49.333c0,12.334,6.083,24.548,11.966,36.36c5.76,11.564,11.2,22.488,11.2,33.14
		c0,1.657,1.343,3,3,3h46.333c1.657,0,3-1.343,3-3c0-11.099,5.761-22.576,11.332-33.674c5.818-11.591,11.835-23.577,11.835-35.826
		C149.333,50.631,127.202,28.5,100,28.5z"/>
	<path d="M42.559,34.748c-0.46-0.266-0.979-0.403-1.501-0.403c-0.26,0-0.521,0.034-0.776,0.102
		c-0.769,0.206-1.425,0.709-1.822,1.399L32.5,46.18c-0.828,1.435-0.335,3.27,1.1,4.097l10.695,6.168
		c0.461,0.266,0.978,0.401,1.499,0.401c0.309,0,0.619-0.048,0.919-0.145c0.806-0.259,1.465-0.848,1.814-1.619
		c1.522-3.366,3.437-6.656,5.692-9.779c0.497-0.688,0.679-1.554,0.501-2.384c-0.177-0.83-0.698-1.545-1.432-1.97L42.559,34.748z"/>
	<path d="M94.356,22.267c0.671-0.07,1.335-0.161,1.998-0.252c1.266-0.173,2.461-0.337,3.646-0.337s2.38,0.164,3.646,0.337
		c0.663,0.091,1.327,0.182,1.998,0.252c0.105,0.011,0.21,0.017,0.314,0.017c0.737,0,1.454-0.272,2.007-0.771
		c0.632-0.569,0.993-1.379,0.993-2.229V6.762c0-1.657-1.343-3-3-3H94.042c-1.657,0-3,1.343-3,3v12.522
		c0,0.85,0.361,1.661,0.993,2.229c0.554,0.499,1.27,0.771,2.007,0.771C94.146,22.284,94.251,22.278,94.356,22.267z"/>
	<path d="M64.659,32.982c0.208,0.044,0.418,0.066,0.627,0.066c0.625,0,1.241-0.196,1.756-0.568c3.121-2.254,6.411-4.169,9.779-5.692
		c0.772-0.349,1.36-1.008,1.62-1.814c0.26-0.806,0.166-1.685-0.257-2.418l-6.168-10.695c-0.555-0.963-1.564-1.502-2.602-1.502
		c-0.508,0-1.024,0.129-1.496,0.401l-10.334,5.958c-0.69,0.398-1.193,1.054-1.399,1.823s-0.098,1.588,0.3,2.278l6.203,10.73
		C63.113,32.284,63.829,32.805,64.659,32.982z"/>
	<path d="M161.541,35.846c-0.398-0.69-1.053-1.193-1.822-1.399c-0.255-0.068-0.517-0.102-0.776-0.102
		c-0.523,0-1.041,0.137-1.501,0.403l-10.73,6.202c-0.734,0.424-1.255,1.14-1.432,1.97s0.005,1.696,0.501,2.384
		c2.276,3.152,4.195,6.442,5.704,9.779c0.349,0.772,1.008,1.36,1.815,1.62c0.3,0.096,0.61,0.144,0.919,0.144
		c0.521,0,1.039-0.136,1.5-0.402l10.683-6.168c1.434-0.828,1.926-2.662,1.099-4.097L161.541,35.846z"/>
	<path d="M123.187,26.787c3.383,1.535,6.671,3.447,9.772,5.683c0.515,0.371,1.13,0.566,1.755,0.566c0.21,0,0.42-0.022,0.629-0.066
		c0.829-0.178,1.545-0.699,1.969-1.433l6.191-10.718c0.829-1.435,0.338-3.269-1.097-4.098l-10.311-5.958
		c-0.46-0.266-0.979-0.402-1.501-0.402c-0.26,0-0.521,0.034-0.776,0.102c-0.769,0.207-1.424,0.709-1.822,1.399l-6.168,10.695
		c-0.423,0.733-0.516,1.61-0.257,2.417C121.829,25.779,122.416,26.438,123.187,26.787z"/>
	<path d="M25.501,72.303v11.917c0,1.657,1.343,3,3,3h12.545c0.857,0,1.673-0.366,2.242-1.006c0.569-0.64,0.838-1.493,0.738-2.344
		c-0.07-0.599-0.155-1.196-0.24-1.793c-0.189-1.332-0.368-2.59-0.368-3.814c0-1.185,0.164-2.38,0.337-3.646
		c0.091-0.663,0.181-1.328,0.252-1.999c0.089-0.846-0.185-1.689-0.754-2.321s-1.379-0.993-2.229-0.993H28.501
		C26.844,69.303,25.501,70.646,25.501,72.303z"/>
	<path d="M171.499,69.303h-12.522c-0.85,0-1.661,0.361-2.23,0.993c-0.569,0.632-0.843,1.476-0.754,2.322
		c0.071,0.67,0.161,1.333,0.251,1.995c0.173,1.267,0.337,2.463,0.337,3.649c0,1.224-0.179,2.482-0.368,3.814
		c-0.085,0.597-0.169,1.194-0.24,1.793c-0.1,0.851,0.168,1.704,0.738,2.344c0.569,0.64,1.385,1.006,2.242,1.006h12.545
		c1.657,0,3-1.343,3-3V72.303C174.499,70.646,173.156,69.303,171.499,69.303z"/>
	<path d="M147.69,116.131l9.752,5.632c0.46,0.266,0.978,0.402,1.5,0.402c0.26,0,0.521-0.034,0.776-0.102
		c0.769-0.206,1.424-0.709,1.822-1.398l5.958-10.322c0.398-0.689,0.506-1.508,0.299-2.277c-0.206-0.769-0.71-1.424-1.399-1.821
		l-10.823-6.238c-0.461-0.266-0.978-0.401-1.498-0.401c-0.329,0-0.658,0.054-0.976,0.163c-0.82,0.282-1.478,0.906-1.804,1.709
		c-1.44,3.551-3.056,7.164-4.803,10.738C145.803,113.633,146.325,115.343,147.69,116.131z"/>
	<path d="M46.859,99.795c-0.32-0.111-0.652-0.166-0.983-0.166c-0.521,0-1.038,0.135-1.499,0.401l-10.776,6.214
		c-0.689,0.397-1.193,1.053-1.399,1.821c-0.206,0.769-0.099,1.588,0.299,2.277l5.958,10.322c0.556,0.963,1.564,1.501,2.601,1.501
		c0.508,0,1.023-0.129,1.495-0.401l9.671-5.574c1.363-0.786,1.887-2.49,1.202-3.906c-1.774-3.667-3.378-7.29-4.767-10.768
		C48.339,100.708,47.681,100.081,46.859,99.795z"/>
</g>
</svg>
