<?xml version="1.0" encoding="iso-8859-1"?>
<!-- Generator: Adobe Illustrator 17.1.0, SVG Export Plug-In . SVG Version: 6.00 Build 0)  -->
<!DOCTYPE svg PUBLIC "-//W3C//DTD SVG 1.1//EN" "http://www.w3.org/Graphics/SVG/1.1/DTD/svg11.dtd">
<svg version="1.1" id="Capa_1" xmlns="http://www.w3.org/2000/svg" xmlns:xlink="http://www.w3.org/1999/xlink" x="0px" y="0px"
	 viewBox="0 0 200 200" style="enable-background:new 0 0 200 200;" xml:space="preserve">
<g>
	<path d="M82.3,162.9h35.4c3.261,0,5.9-2.639,5.9-5.9s-2.639-5.9-5.9-5.9H82.3c-3.261,0-5.9,2.639-5.9,5.9S79.039,162.9,82.3,162.9z
		"/>
	<path d="M82.3,179.6h35.4c3.261,0,5.9-2.639,5.9-5.9s-2.639-5.9-5.9-5.9H82.3c-3.261,0-5.9,2.639-5.9,5.9S79.039,179.6,82.3,179.6z
		"/>
	<path d="M112.7,184.8H87.3c-3.261,0-5.9,2.639-5.9,5.9s2.639,5.9,5.9,5.9h25.4c3.261,0,5.9-2.639,5.9-5.9
		S115.961,184.8,112.7,184.8z"/>
	<path d="M100,3.6c-32.588,0-59,26.412-59,59c0,20.707,10.791,38.726,26.947,49.245c1.388,0.904,2.553,2.917,2.553,4.574V133.4
		c0,6.522,5.278,11.8,11.8,11.8h35.4c6.511,0,11.8-5.278,11.8-11.8v-16.982c0-1.657,1.166-3.67,2.555-4.573
		C148.209,101.335,159,83.306,159,62.6C159,30.012,132.588,3.6,100,3.6z"/>
</g>
</svg>
