<?xml version="1.0" encoding="utf-8"?>
<!-- Generator: Adobe Illustrator 16.0.4, SVG Export Plug-In . SVG Version: 6.00 Build 0)  -->
<!DOCTYPE svg PUBLIC "-//W3C//DTD SVG 1.1//EN" "http://www.w3.org/Graphics/SVG/1.1/DTD/svg11.dtd">
<svg version="1.1" id="Capa_1" xmlns="http://www.w3.org/2000/svg" xmlns:xlink="http://www.w3.org/1999/xlink" x="0px" y="0px"
	 width="23.303px" height="15.628px" viewBox="0 0 23.303 15.628" enable-background="new 0 0 23.303 15.628" xml:space="preserve">
<g>
	<path d="M3.937,12.984l-0.123-2.367C3.776,9.852,3.647,9.265,3.426,8.859c-0.219-0.406-0.571-0.758-1.054-1.05
		c0.513-0.325,0.858-0.665,1.046-1.02c0.188-0.354,0.308-0.728,0.359-1.116C3.829,5.282,3.87,4.437,3.904,3.136
		c0.011-0.47,0.096-0.786,0.248-0.95c0.154-0.163,0.625-0.243,1.413-0.243V0H5.133c-0.757,0-1.34,0.067-1.751,0.2
		c-0.413,0.133-0.749,0.349-1.01,0.646c-0.26,0.298-0.426,0.669-0.491,1.109C1.812,2.396,1.778,3.075,1.778,3.99
		c0,1.201-0.148,1.976-0.446,2.319C1.033,6.652,0.591,6.828,0,6.833v1.952c0.601,0.021,1.01,0.161,1.228,0.418
		c0.215,0.258,0.361,0.541,0.438,0.851c0.075,0.31,0.112,1.018,0.112,2.124c0,1.002,0.105,1.73,0.318,2.18
		c0.21,0.452,0.552,0.775,1.023,0.975c0.472,0.195,1.142,0.297,2.011,0.297h0.422v-1.953c-0.661,0-1.082-0.059-1.267-0.174
		C4.102,13.384,3.986,13.212,3.937,12.984z"/>
	<path d="M23.301,8.785V6.831c-0.59-0.022-0.991-0.156-1.206-0.402c-0.213-0.246-0.361-0.519-0.445-0.815
		c-0.085-0.298-0.127-1.022-0.127-2.17c0-1.001-0.104-1.727-0.316-2.176c-0.211-0.449-0.554-0.773-1.026-0.971
		C19.708,0.101,19.039,0,18.17,0h-0.433v1.94c0.683,0,1.105,0.048,1.271,0.146c0.164,0.098,0.269,0.214,0.312,0.35
		c0.044,0.135,0.081,0.669,0.114,1.604c0.033,0.936,0.082,1.574,0.146,1.918c0.064,0.345,0.189,0.664,0.374,0.955
		c0.183,0.294,0.509,0.59,0.974,0.895c-0.438,0.254-0.76,0.553-0.963,0.895c-0.204,0.342-0.339,0.709-0.408,1.104
		c-0.066,0.394-0.116,1.284-0.148,2.672c-0.01,0.483-0.103,0.804-0.272,0.96c-0.17,0.158-0.632,0.236-1.387,0.236v1.953h0.43
		c0.756,0,1.338-0.068,1.751-0.2c0.411-0.134,0.749-0.349,1.009-0.647c0.259-0.298,0.422-0.669,0.485-1.109
		c0.068-0.443,0.099-1.125,0.099-2.047c0-1.195,0.149-1.965,0.448-2.311c0.296-0.348,0.74-0.523,1.33-0.529H23.301z"/>
	<path d="M18.456,7.783c-0.046-0.004-0.086-0.014-0.129-0.019c0.041-0.008,0.081-0.017,0.127-0.02h-0.262
		c-1.866-0.223-3.507-0.878-4.723-1.801c-0.923-1.215-1.578-2.855-1.8-4.724V0.96c-0.004,0.044-0.017,0.086-0.02,0.129
		c-0.006-0.043-0.017-0.085-0.021-0.129v0.259c-0.222,1.869-0.877,3.508-1.8,4.724C8.617,6.865,6.977,7.521,5.109,7.744H4.85
		c0.046,0.003,0.086,0.013,0.129,0.02C4.936,7.769,4.896,7.778,4.85,7.782h0.26C6.977,8.005,8.617,8.66,9.832,9.582
		c0.923,1.217,1.578,2.856,1.8,4.725v0.259c0.004-0.044,0.015-0.086,0.021-0.13c0.004,0.043,0.016,0.085,0.02,0.13v-0.259
		c0.222-1.868,0.877-3.508,1.8-4.725c1.216-0.922,2.855-1.577,4.723-1.798H18.456z M12.19,8.305
		c-0.252,0.237-0.438,0.536-0.538,0.877c-0.1-0.341-0.288-0.64-0.541-0.877c-0.236-0.253-0.536-0.441-0.881-0.541
		c0.345-0.1,0.645-0.289,0.881-0.542c0.253-0.238,0.441-0.538,0.541-0.877c0.1,0.34,0.286,0.64,0.538,0.877
		c0.237,0.253,0.538,0.442,0.879,0.542C12.728,7.864,12.427,8.052,12.19,8.305z"/>
</g>
</svg>
