<?xml version="1.0" encoding="utf-8"?>
<!-- Generator: Adobe Illustrator 16.0.4, SVG Export Plug-In . SVG Version: 6.00 Build 0)  -->
<!DOCTYPE svg PUBLIC "-//W3C//DTD SVG 1.1//EN" "http://www.w3.org/Graphics/SVG/1.1/DTD/svg11.dtd">
<svg version="1.1" id="Capa_1" xmlns="http://www.w3.org/2000/svg" xmlns:xlink="http://www.w3.org/1999/xlink" x="0px" y="0px"
	 width="18.363px" height="23.303px" viewBox="0 0 18.363 23.303" enable-background="new 0 0 18.363 23.303" xml:space="preserve">
<g>
	<path d="M9.181,5.504c-3.526,0-6.387,2.856-6.387,6.386c0,2.149,1.068,4.04,2.699,5.197h7.378c1.626-1.157,2.696-3.048,2.696-5.197
		C15.568,8.362,12.708,5.504,9.181,5.504z M9.178,16.012c-0.371,0-0.667-1.109-0.667-2.477c0-1.368,0.297-2.478,0.667-2.478
		c0.373,0,0.675,1.109,0.675,2.478C9.854,14.903,9.552,16.012,9.178,16.012z"/>
	<path d="M5.513,22.354h1.729c0.229,0.541,0.99,0.95,1.938,0.95c0.949,0,1.709-0.409,1.938-0.95h1.732v-4.518H5.513V22.354z
		 M6.315,18.793h5.732v0.81H6.315V18.793z M6.315,20.414h5.732v0.812H6.315V20.414z"/>
	<path d="M8.371,0h1.623v3.812H8.371V0z M-0.001,4.457L1.144,3.31l2.697,2.693L2.697,7.151L-0.001,4.457z M14.52,6.004l2.697-2.696
		l1.146,1.147l-2.697,2.696L14.52,6.004z"/>
</g>
</svg>
