<?xml version="1.0" encoding="utf-8"?>
<!-- Generator: Adobe Illustrator 16.0.0, SVG Export Plug-In . SVG Version: 6.00 Build 0)  -->
<!DOCTYPE svg PUBLIC "-//W3C//DTD SVG 1.1//EN" "http://www.w3.org/Graphics/SVG/1.1/DTD/svg11.dtd">
<svg version="1.1" id="Layer_1" xmlns="http://www.w3.org/2000/svg" xmlns:xlink="http://www.w3.org/1999/xlink" x="0px" y="0px"
	 width="50px" height="50px" viewBox="0 0 50 50" enable-background="new 0 0 50 50" xml:space="preserve">
<path d="M36.5,7.5h-23c-3.3,0-6,2.7-6,6v23c0,3.3,2.7,6,6,6h23c3.3,0,6-2.7,6-6v-23C42.5,10.2,39.8,7.5,36.5,7.5z M34.249,17.951
	c0.206,0.014,0.353,0.296,0.33,0.627c-0.024,0.333-0.209,0.591-0.415,0.577c-0.206-0.015-0.354-0.296-0.33-0.629
	C33.857,18.193,34.043,17.937,34.249,17.951z M33.376,16.809c0.258,0.019,0.443,0.371,0.414,0.787
	c-0.03,0.417-0.262,0.74-0.52,0.722c-0.257-0.019-0.442-0.371-0.413-0.786C32.887,17.113,33.12,16.791,33.376,16.809z
	 M31.994,15.778c0.348-0.019,0.656,0.423,0.686,0.986c0.031,0.563-0.227,1.035-0.575,1.054c-0.349,0.02-0.656-0.422-0.686-0.986
	C31.389,16.27,31.646,15.798,31.994,15.778z M30.033,15.049c0.429-0.024,0.808,0.519,0.845,1.214
	c0.038,0.695-0.278,1.276-0.708,1.299c-0.429,0.023-0.807-0.52-0.845-1.214C29.287,15.654,29.604,15.072,30.033,15.049z
	 M19.966,17.926c0.429,0.023,0.746,0.605,0.708,1.299c-0.038,0.695-0.417,1.237-0.846,1.215c-0.429-0.023-0.746-0.604-0.708-1.3
	C19.159,18.445,19.538,17.902,19.966,17.926z M18.005,18.656c0.348,0.019,0.605,0.49,0.575,1.054
	c-0.03,0.564-0.338,1.005-0.686,0.986c-0.348-0.02-0.605-0.491-0.575-1.054C17.35,19.078,17.657,18.637,18.005,18.656z
	 M16.623,19.686c0.257-0.018,0.49,0.305,0.519,0.723c0.03,0.416-0.156,0.768-0.413,0.786c-0.257,0.019-0.49-0.305-0.52-0.722
	C16.181,20.057,16.366,19.704,16.623,19.686z M15.75,20.827c0.206-0.014,0.391,0.244,0.414,0.576
	c0.024,0.333-0.124,0.614-0.329,0.629s-0.391-0.244-0.415-0.576C15.397,21.124,15.544,20.843,15.75,20.827z M20.76,26.362
	c-0.894,0.923-1.044,2.413-0.308,3.431c0.308,0.422,2.14,2.276,1.594,4.108c-0.275,0.93-0.899,1.346-1.715,1.516
	c-2.711,0.563-2.999-1.589-3.026-2.543c-0.026-0.896-0.159-1.767-0.528-2.587c-0.907-2.059-2.279-5.283-0.932-6.839
	c1.986-2.291,6.714-2.132,7.036-0.284C23.148,24.703,21.532,25.564,20.76,26.362z M23.524,19.24c-0.16,0.99-0.786,1.715-1.398,1.616
	c-0.613-0.1-0.98-0.982-0.821-1.974s0.786-1.715,1.397-1.617C23.316,17.364,23.683,18.248,23.524,19.24z M26.475,16.361
	c-0.159-0.99,0.208-1.875,0.821-1.974c0.612-0.097,1.238,0.627,1.397,1.617c0.16,0.992-0.207,1.876-0.82,1.974
	C27.261,18.078,26.635,17.354,26.475,16.361z M33.223,27.41c-0.37,0.82-0.502,1.69-0.528,2.586
	c-0.028,0.955-0.315,3.106-3.026,2.544c-0.816-0.17-1.439-0.586-1.715-1.516c-0.546-1.832,1.287-3.687,1.594-4.108
	c0.737-1.018,0.585-2.508-0.308-3.431c-0.772-0.799-2.388-1.659-2.121-3.199c0.321-1.847,5.049-2.006,7.036,0.286
	C35.501,22.127,34.129,25.352,33.223,27.41z"/>
</svg>
