<?xml version="1.0" encoding="iso-8859-1"?>
<!-- Generator: Adobe Illustrator 16.0.0, SVG Export Plug-In . SVG Version: 6.00 Build 0)  -->
<!DOCTYPE svg PUBLIC "-//W3C//DTD SVG 1.1//EN" "http://www.w3.org/Graphics/SVG/1.1/DTD/svg11.dtd">
<svg version="1.1" id="Layer_1" xmlns="http://www.w3.org/2000/svg" xmlns:xlink="http://www.w3.org/1999/xlink" x="0px" y="0px"
	 width="20.23px" height="31.042px" viewBox="0 0 20.23 31.042" style="enable-background:new 0 0 20.23 31.042;"
	 xml:space="preserve">
<g>
	<path d="M7.248,27.97v0.42c-0.053,0.218,0.017,0.518,0.06,0.666l0.069,0.239l5.199-0.576l0.256-0.083l0.01-0.252
		c0.012-0.079,0.028-0.234,0.027-0.71l-0.001-0.327L7.248,27.97z"/>
	<path d="M7.76,30.19c0.505,0.562,1.292,0.848,2.339,0.853h0.031l0,0c1.787,0,2.399-0.794,2.598-1.461l0.128-0.428l-5.482,0.608
		L7.76,30.19z"/>
	<path d="M20.23,1.4V0H0v1.4h3.067v4.558l1.225,0.361c-1.752,3.326-2.813,7.542-2.813,9.969c0,3.618,2.151,6.815,5.396,8.091v1.341
		c0,0.484,0.157,0.758,0.369,0.913v0.868l5.618-0.623l-0.021-0.688l0.224-0.13v-1.765c3.121-1.329,5.19-4.494,5.19-8.007
		c0-2.416-1.051-6.608-2.791-9.929l1.283-0.401V1.4h1.493v3.233h-0.746v2.735h2.322V4.633h-0.498V1.4H20.23z M10.925,25.377
		l-1.301,0.121L7.188,13.054c0.429,0.128,1.072,0.269,1.818,0.269c0.302,0,0.601-0.023,0.888-0.071
		c1.112-0.178,2.114-0.332,2.654-0.414L10.925,25.377z M17.073,16.288c0,3.163-1.93,5.997-4.803,7.05l-0.388,0.144v1.838
		c-0.073,0.011-0.171,0.018-0.303,0.021l1.717-13.267l-0.421,0.063c0,0-1.417,0.21-3.084,0.48c-0.254,0.04-0.518,0.062-0.786,0.062
		c-1.185,0-2.102-0.406-2.111-0.411l-0.568-0.255l2.652,13.546l-0.622,0.058c-0.11,0-0.209,0.004-0.299,0.008V23.54l-0.404-0.135
		c-2.986-0.999-4.992-3.86-4.992-7.117c0-2.498,1.104-6.581,2.753-9.638l4.7,1.382l4.237-1.325
		C15.984,9.759,17.073,13.806,17.073,16.288z"/>
</g>
<g>
</g>
<g>
</g>
<g>
</g>
<g>
</g>
<g>
</g>
<g>
</g>
<g>
</g>
<g>
</g>
<g>
</g>
<g>
</g>
<g>
</g>
<g>
</g>
<g>
</g>
<g>
</g>
<g>
</g>
</svg>
