<?xml version="1.0" encoding="utf-8"?>
<!-- Generator: Adobe Illustrator 16.0.0, SVG Export Plug-In . SVG Version: 6.00 Build 0)  -->
<!DOCTYPE svg PUBLIC "-//W3C//DTD SVG 1.1//EN" "http://www.w3.org/Graphics/SVG/1.1/DTD/svg11.dtd">
<svg version="1.1" id="Layer_1" xmlns="http://www.w3.org/2000/svg" xmlns:xlink="http://www.w3.org/1999/xlink" x="0px" y="0px"
	 width="50px" height="50px" viewBox="0 0 50 50" enable-background="new 0 0 50 50" xml:space="preserve">
<path d="M25,7.5C15.336,7.5,7.5,15.335,7.5,25S15.336,42.5,25,42.5c9.665,0,17.5-7.835,17.5-17.5S34.665,7.5,25,7.5z M27.754,16.407
	h1.213l0.341,1.171l-0.616,1.762l-0.977-0.181l-0.281-1.836L27.754,16.407z M25.335,15.686h1.353l0.381,1.307l-0.688,1.969
	l-1.091-0.202l-0.312-2.05L25.335,15.686z M22.845,15.172h1.454l0.405,1.4l-0.736,2.107l-1.169-0.216l-0.336-2.196L22.845,15.172z
	 M18.906,16.398l0.533-1.837h1.906l0.501,1.437l-0.427,2.557l-1.445,1.304L18.906,16.398z M29.543,26.892v5.212l-1.069,2.361
	l-5.88,1.068l-0.984-1.559l1.397-7.043l-2.866-5.454l1.872-2.472l7.53,1.068l1.069,1.292L29.543,26.892z M30.623,19.858l-0.75-0.138
	l-0.215-1.408l0.245-0.701h0.93l0.262,0.896L30.623,19.858z"/>
</svg>
