<?xml version="1.0" encoding="utf-8"?>
<!-- Generator: Adobe Illustrator 16.0.0, SVG Export Plug-In . SVG Version: 6.00 Build 0)  -->
<!DOCTYPE svg PUBLIC "-//W3C//DTD SVG 1.1//EN" "http://www.w3.org/Graphics/SVG/1.1/DTD/svg11.dtd">
<svg version="1.1" id="Layer_1" xmlns="http://www.w3.org/2000/svg" xmlns:xlink="http://www.w3.org/1999/xlink" x="0px" y="0px"
	 width="50px" height="50px" viewBox="0 0 50 50" enable-background="new 0 0 50 50" xml:space="preserve">
<path d="M36.5,7.5h-23c-3.3,0-6,2.7-6,6v23c0,3.3,2.7,6,6,6h23c3.3,0,6-2.7,6-6v-23C42.5,10.2,39.8,7.5,36.5,7.5z M35.049,19.136
	c-0.507,0.311-1.056,0.592-1.637,0.843c-0.018-0.635-0.094-1.219-0.21-1.755c0.549-0.218,1.077-0.457,1.569-0.725
	C34.902,18.012,34.994,18.56,35.049,19.136z M34.59,16.883c-0.484,0.269-1.004,0.509-1.547,0.727
	c-0.242-0.807-0.573-1.469-0.938-1.966c0.563-0.179,1.109-0.378,1.626-0.606C34.07,15.573,34.364,16.188,34.59,16.883z
	 M32.655,21.937c-0.051,0.323-0.107,0.639-0.167,0.952c-0.051,0.27-2.294,0.725-2.294,0.725c-0.157-0.41-0.34-0.83-0.54-1.273
	c-1.06-2.353-0.709-5.076,0.183-6.554c0.307-0.507,0.569-0.669,0.586-0.683c0.203,0,0.603,0.212,1,0.679
	C32.323,16.836,33.119,19.005,32.655,21.937z M30.269,12.793c1.089-0.066,2.208,0.574,3.099,1.725
	c-0.542,0.232-1.119,0.427-1.714,0.602c-0.416-0.404-0.86-0.648-1.231-0.648c-0.3,0.018-0.727,0.328-1.126,0.988
	c-0.033,0.057-0.06,0.123-0.091,0.181c-0.627,0.087-1.267,0.151-1.927,0.172C27.923,14.078,29.027,12.866,30.269,12.793z
	 M19.731,16.161c1.242,0.074,2.346,1.286,2.991,3.02c-0.658-0.021-1.295-0.085-1.921-0.171c-0.032-0.06-0.059-0.126-0.092-0.182
	c-0.4-0.66-0.827-0.972-1.126-0.987c-0.371,0-0.815,0.243-1.232,0.646c-0.596-0.175-1.175-0.369-1.718-0.602
	C17.522,16.736,18.642,16.095,19.731,16.161z M20.352,25.707c-0.2,0.445-0.383,0.866-0.541,1.276c0,0-2.244-0.464-2.293-0.726
	c-0.059-0.311-0.115-0.628-0.167-0.953c-0.464-2.932,0.332-5.101,1.23-6.153c0.398-0.467,0.798-0.679,0.951-0.683
	c0.067,0.017,0.329,0.179,0.636,0.686C21.061,20.633,21.411,23.355,20.352,25.707z M16.269,18.406
	c0.519,0.229,1.065,0.429,1.63,0.607c-0.365,0.498-0.696,1.159-0.938,1.968c-0.545-0.219-1.066-0.46-1.552-0.729
	C15.636,19.558,15.93,18.942,16.269,18.406z M15.229,20.868c0.495,0.269,1.023,0.509,1.574,0.726
	c-0.117,0.536-0.193,1.12-0.21,1.756c-0.583-0.252-1.134-0.533-1.643-0.846C15.006,21.928,15.098,21.38,15.229,20.868z
	 M14.909,23.215c0.528,0.306,1.094,0.581,1.691,0.826c0.016,0.438,0.051,0.888,0.126,1.362c0.031,0.198,0.07,0.379,0.105,0.571
	c-0.658-0.27-1.279-0.576-1.847-0.921C14.914,24.416,14.889,23.803,14.909,23.215z M19.264,37.211
	c-2.551,0.006-3.544-2.324-3.376-4.789c0.035-0.514,0.03-1.002,0.006-1.478l5.891,0.445c0.076,0.257,0.164,0.524,0.277,0.818
	C23.145,35.013,21.415,37.207,19.264,37.211z M22.458,26.659c-0.082,0.183-0.152,0.347-0.225,0.513
	c-0.594-0.033-1.172-0.102-1.738-0.188c0.129-0.324,0.271-0.658,0.432-1.017c0.115-0.256,0.204-0.517,0.29-0.78
	c0.562,0.062,1.134,0.109,1.719,0.12C22.809,25.763,22.658,26.215,22.458,26.659z M23.093,24.675
	c-0.581-0.006-1.148-0.049-1.707-0.106c0.148-0.624,0.225-1.25,0.234-1.861c0.552,0.048,1.113,0.082,1.686,0.082
	C23.292,23.41,23.225,24.043,23.093,24.675z M21.616,22.069c-0.05-0.871-0.233-1.679-0.498-2.368
	c0.593,0.07,1.199,0.111,1.817,0.124c0.206,0.721,0.337,1.507,0.371,2.33C22.731,22.154,22.169,22.12,21.616,22.069z M27.065,16.457
	c0.62-0.013,1.228-0.056,1.822-0.125c-0.264,0.689-0.447,1.497-0.497,2.367c-0.556,0.053-1.119,0.087-1.695,0.088
	C26.728,17.964,26.859,17.178,27.065,16.457z M26.695,19.421c0.574,0,1.136-0.034,1.691-0.083c0.009,0.611,0.085,1.236,0.233,1.86
	c-0.561,0.059-1.129,0.102-1.712,0.108C26.775,20.675,26.708,20.042,26.695,19.421z M27.064,21.938
	c0.586-0.011,1.159-0.057,1.724-0.12c0.085,0.263,0.175,0.526,0.29,0.78c0.161,0.358,0.303,0.692,0.432,1.016
	c-0.567,0.088-1.148,0.156-1.743,0.189c-0.072-0.166-0.143-0.33-0.225-0.513C27.342,22.847,27.191,22.394,27.064,21.938z
	 M30.736,33.843c-2.15-0.004-3.88-2.198-2.798-5.003c0.113-0.294,0.201-0.562,0.277-0.819l5.891-0.446
	c-0.024,0.478-0.029,0.965,0.006,1.478C34.28,31.518,33.287,33.847,30.736,33.843z M35.015,21.685
	c-0.566,0.343-1.185,0.648-1.841,0.92c0.034-0.192,0.073-0.373,0.104-0.569c0.075-0.475,0.11-0.927,0.127-1.365
	c0.594-0.244,1.159-0.519,1.686-0.824C35.111,20.435,35.086,21.047,35.015,21.685z"/>
</svg>
