<?xml version="1.0" encoding="utf-8"?>
<!-- Generator: Adobe Illustrator 16.0.0, SVG Export Plug-In . SVG Version: 6.00 Build 0)  -->
<!DOCTYPE svg PUBLIC "-//W3C//DTD SVG 1.1//EN" "http://www.w3.org/Graphics/SVG/1.1/DTD/svg11.dtd">
<svg version="1.1" id="Layer_1" xmlns="http://www.w3.org/2000/svg" xmlns:xlink="http://www.w3.org/1999/xlink" x="0px" y="0px"
	 width="50px" height="50px" viewBox="0 0 50 50" enable-background="new 0 0 50 50" xml:space="preserve">
<path d="M36.5,7.5h-23c-3.3,0-6,2.7-6,6v23c0,3.3,2.7,6,6,6h23c3.3,0,6-2.7,6-6v-23C42.5,10.2,39.8,7.5,36.5,7.5z M31.5,15.806
	c0.21-0.063,0.558,0.162,0.631,0.472c0.055,0.231,0.055,0.487,0.025,0.727c-0.035,0.291-0.22,0.465-0.517,0.444
	c-0.343,0.003-0.634-0.225-0.732-0.559C30.793,16.5,31.108,15.923,31.5,15.806z M29.384,15.471c0.04-0.325,0.469-0.784,0.756-0.793
	c0.406-0.015,0.583,0.295,0.659,0.601c0.077,0.304,0.074,0.646,0.022,0.956c-0.049,0.287-0.276,0.456-0.597,0.457
	c-0.52,0.004-0.857-0.374-0.841-0.958C29.383,15.646,29.375,15.557,29.384,15.471z M28.374,14.451
	c0.453-0.004,0.583,0.098,0.663,0.563c0.134,0.794-0.183,1.459-0.655,2.058c-0.097,0.123-0.3,0.194-0.464,0.229
	c-0.506,0.106-0.679-0.344-0.851-0.638C26.566,15.808,27.39,14.456,28.374,14.451z M20.963,18.219
	c0.08-0.466,0.209-0.566,0.663-0.563c0.984,0.007,1.808,1.357,1.307,2.213c-0.172,0.294-0.345,0.745-0.851,0.639
	c-0.165-0.036-0.367-0.106-0.464-0.229C21.146,19.678,20.829,19.015,20.963,18.219z M19.201,18.483
	c0.076-0.306,0.252-0.615,0.659-0.602c0.287,0.011,0.716,0.469,0.756,0.794c0.01,0.086,0.001,0.175,0.001,0.262
	c0.016,0.585-0.322,0.962-0.841,0.959c-0.321-0.001-0.548-0.171-0.597-0.457C19.126,19.128,19.124,18.786,19.201,18.483z
	 M17.869,19.482c0.074-0.309,0.421-0.536,0.631-0.472c0.392,0.117,0.707,0.695,0.592,1.085c-0.099,0.332-0.39,0.56-0.733,0.558
	c-0.296,0.02-0.481-0.152-0.516-0.445C17.813,19.97,17.813,19.714,17.869,19.482z M15.987,22.259
	c-0.022-0.261,0.039-0.567,0.173-0.789c0.139-0.234,0.415-0.143,0.635-0.03c-0.015-0.267-0.066-0.537-0.037-0.798
	c0.032-0.28,0.216-0.485,0.521-0.497c0.254-0.01,0.608,0.368,0.635,0.64c0.059,0.615-0.294,0.874-1.032,0.756
	c0.33,0.535,0.199,0.931-0.335,1.039C16.256,22.64,16.011,22.539,15.987,22.259z M22.378,24.673
	c-0.236,0.134-0.41,0.061-0.433-0.216c-0.14,0-0.231-0.008-0.32,0.004c-0.062,0.007-0.162,0.025-0.177,0.063
	c-0.126,0.338-0.408,0.286-0.67,0.282c-0.138-0.003-0.275-0.021-0.412-0.031c0.016,0.143,0.032,0.286,0.063,0.561
	c-0.135-0.178-0.204-0.283-0.287-0.375c-0.066-0.072-0.149-0.129-0.225-0.192c-0.019,0.028-0.037,0.056-0.056,0.085
	c0.076,0.133,0.151,0.265,0.248,0.433c-0.32-0.117-0.477-0.275-0.365-0.592c0.008-0.02-0.063-0.074-0.107-0.101
	c-0.013-0.008-0.055,0.021-0.078,0.04c-0.074,0.06-0.146,0.122-0.225,0.19c0.012,0.047,0.034,0.134,0.055,0.22
	c-0.085-0.033-0.171-0.067-0.291-0.114c0,0.124,0,0.278,0,0.499c0.106-0.122,0.169-0.195,0.305-0.351
	c-0.017,0.219-0.027,0.337-0.036,0.453c0.104,0.03,0.192,0.057,0.281,0.081c-0.054,0.086-0.11,0.171-0.162,0.258
	c-0.04,0.068-0.106,0.14-0.108,0.211c-0.011,0.47-0.02,0.939-0.006,1.408c0.021,0.787,0.281,1.492,0.699,2.161
	c0.569,0.909,1.122,1.831,1.638,2.772c0.308,0.562,0.5,1.176,0.352,1.841c-0.096,0.428-0.289,0.785-0.705,0.976
	c-1.622,0.74-2.863,0.383-3.263-1.376c-0.273-1.208-0.351-2.46-0.573-3.682c-0.138-0.753-0.371-1.49-0.583-2.227
	c-0.212-0.742-0.527-1.462-0.661-2.216c-0.16-0.898,0.095-1.773,0.488-2.591c0.496-1.034,1.167-1.94,2.262-2.377
	c1.19-0.474,2.397-0.533,3.521,0.241C23.497,21.666,23.914,23.808,22.378,24.673z M33.723,22.535
	c-0.134,0.753-0.449,1.474-0.661,2.215c-0.212,0.737-0.445,1.475-0.583,2.227c-0.222,1.222-0.3,2.475-0.573,3.682
	c-0.399,1.759-1.641,2.116-3.263,1.376c-0.417-0.19-0.609-0.549-0.705-0.976c-0.148-0.664,0.044-1.278,0.352-1.841
	c0.516-0.94,1.069-1.863,1.638-2.772c0.418-0.668,0.678-1.375,0.699-2.161c0.014-0.469,0.004-0.938-0.006-1.408
	c-0.001-0.071-0.068-0.142-0.108-0.211c-0.052-0.086-0.108-0.173-0.162-0.257c0.089-0.026,0.177-0.051,0.281-0.081
	c-0.009-0.116-0.019-0.234-0.036-0.454c0.135,0.155,0.199,0.229,0.305,0.352c0-0.221,0-0.377,0-0.5
	c-0.12,0.047-0.206,0.082-0.291,0.115c0.021-0.088,0.043-0.174,0.055-0.221c-0.079-0.067-0.151-0.131-0.225-0.19
	c-0.023-0.019-0.065-0.047-0.078-0.039c-0.043,0.025-0.115,0.08-0.107,0.1c0.111,0.317-0.045,0.476-0.365,0.592
	c0.097-0.168,0.172-0.3,0.248-0.433c-0.019-0.028-0.037-0.057-0.056-0.085c-0.076,0.063-0.159,0.12-0.225,0.193
	c-0.083,0.091-0.152,0.196-0.287,0.375c0.031-0.276,0.048-0.419,0.063-0.562c-0.137,0.011-0.274,0.03-0.412,0.031
	c-0.262,0.006-0.543,0.057-0.67-0.28c-0.015-0.038-0.115-0.057-0.177-0.063c-0.089-0.012-0.18-0.004-0.32-0.004
	c-0.023,0.276-0.197,0.349-0.433,0.216c-1.536-0.866-1.119-3.007-0.171-3.66c1.124-0.775,2.331-0.715,3.521-0.242
	c1.095,0.437,1.766,1.343,2.262,2.377C33.627,20.762,33.882,21.637,33.723,22.535z M33.452,19.374
	c-0.534-0.108-0.665-0.504-0.335-1.039c-0.737,0.119-1.09-0.14-1.032-0.756c0.027-0.271,0.381-0.649,0.635-0.639
	c0.305,0.012,0.489,0.217,0.521,0.496c0.029,0.262-0.022,0.532-0.037,0.798c0.221-0.112,0.496-0.203,0.635,0.03
	c0.134,0.222,0.196,0.529,0.173,0.789C33.989,19.335,33.744,19.436,33.452,19.374z"/>
</svg>
