<?xml version="1.0" encoding="iso-8859-1"?>
<!-- Generator: Adobe Illustrator 17.1.0, SVG Export Plug-In . SVG Version: 6.00 Build 0)  -->
<!DOCTYPE svg PUBLIC "-//W3C//DTD SVG 1.1//EN" "http://www.w3.org/Graphics/SVG/1.1/DTD/svg11.dtd">
<svg version="1.1" id="Capa_1" xmlns="http://www.w3.org/2000/svg" xmlns:xlink="http://www.w3.org/1999/xlink" x="0px" y="0px"
	 viewBox="0 0 200 200" style="enable-background:new 0 0 200 200;" xml:space="preserve">
<g>
	<path d="M118.252,160.52H81.748c-3.363,0-6.084,2.721-6.084,6.084s2.721,6.084,6.084,6.084h36.504c3.363,0,6.084-2.721,6.084-6.084
		S121.615,160.52,118.252,160.52z"/>
	<path d="M49.6,38.754l-5.615-3.246c-0.925-0.535-1.976-0.817-3.041-0.817h0c-2.169,0-4.188,1.167-5.271,3.045l-3.002,5.207
		c-1.676,2.906-0.675,6.635,2.231,8.311l5.576,3.216c0.904,0.521,1.921,0.797,2.942,0.797c2.194,0,4.201-1.246,5.239-3.252
		c0.864-1.669,1.833-3.331,2.879-4.939c0.916-1.406,1.211-3.054,0.832-4.639C51.998,40.879,51.014,39.571,49.6,38.754z"/>
	<path d="M97.327,20.705c0.793-0.101,1.729-0.203,2.673-0.203s1.88,0.103,2.672,0.203c0.252,0.032,0.507,0.048,0.758,0.048
		c3.17,0,5.654-2.512,5.654-5.719V8.418c0-3.355-2.73-6.085-6.085-6.085h-5.998c-3.355,0-6.085,2.73-6.085,6.085v6.616
		c0,3.207,2.483,5.719,5.654,5.719C96.82,20.753,97.076,20.737,97.327,20.705z"/>
	<path d="M65.442,30.871c1.157,0,2.295-0.343,3.29-0.99c1.609-1.047,3.271-2.016,4.94-2.88c1.489-0.771,2.561-2.056,3.019-3.619
		c0.449-1.532,0.249-3.153-0.564-4.562l-3.216-5.576c-1.083-1.879-3.104-3.046-5.274-3.046h0c-1.063,0-2.113,0.282-3.037,0.814
		l-5.207,3.002c-1.409,0.812-2.416,2.124-2.837,3.694c-0.421,1.57-0.204,3.21,0.609,4.617l3.246,5.615
		C61.472,29.776,63.353,30.871,65.442,30.871z"/>
	<path d="M164.327,37.736c-1.083-1.878-3.102-3.045-5.271-3.045h0c-1.065,0-2.117,0.283-3.041,0.817l-5.615,3.246
		c-1.415,0.818-2.399,2.126-2.771,3.684c-0.378,1.585-0.082,3.233,0.835,4.639c1.054,1.616,2.025,3.278,2.888,4.94
		c1.039,2.003,3.046,3.248,5.238,3.248c1.021,0,2.039-0.276,2.944-0.798l5.565-3.213c2.905-1.677,3.905-5.406,2.23-8.312
		L164.327,37.736z"/>
	<path d="M126.337,27.002c1.672,0.865,3.33,1.831,4.93,2.87c0.995,0.646,2.131,0.987,3.287,0.987c2.091,0,3.973-1.096,5.033-2.931
		l3.236-5.602c1.678-2.905,0.68-6.634-2.225-8.313l-5.186-2.997c-0.924-0.534-1.976-0.817-3.041-0.817h0
		c-2.168,0-4.188,1.167-5.271,3.044l-3.216,5.576c-0.813,1.41-1.014,3.031-0.565,4.564
		C123.778,24.947,124.849,26.232,126.337,27.002z"/>
	<path d="M23.991,75.343v5.999c0,3.355,2.73,6.085,6.085,6.085h6.64c1.674,0,3.245-0.695,4.311-1.907
		c1.064-1.211,1.552-2.855,1.338-4.51c-0.096-0.741-0.206-1.715-0.206-2.666c0-0.943,0.103-1.88,0.203-2.672
		c0.209-1.65-0.282-3.291-1.348-4.5c-1.07-1.215-2.646-1.911-4.322-1.911h-6.616C26.721,69.258,23.991,71.988,23.991,75.343z"/>
	<path d="M176.009,81.341v-5.999c0-3.355-2.73-6.085-6.085-6.085h-6.616c-1.676,0-3.252,0.697-4.322,1.911
		c-1.066,1.21-1.557,2.85-1.348,4.5c0.1,0.792,0.203,1.729,0.203,2.672c0,0.951-0.11,1.925-0.206,2.666
		c-0.214,1.655,0.274,3.299,1.338,4.51c1.066,1.212,2.637,1.908,4.311,1.908h6.64C173.279,87.426,176.009,84.697,176.009,81.341z"/>
	<path d="M165.096,105.431l-5.706-3.288c-0.897-0.517-1.901-0.79-2.903-0.79c0,0,0,0,0,0c-2.254,0-4.3,1.382-5.212,3.519
		c-0.767,1.798-1.586,3.626-2.432,5.433c-1.388,2.966-0.266,6.565,2.557,8.195l4.615,2.666c0.924,0.534,1.976,0.816,3.04,0.816
		c2.168,0,4.189-1.166,5.272-3.043l3-5.197c0.813-1.408,1.028-3.048,0.607-4.618C167.513,107.554,166.505,106.242,165.096,105.431z"
		/>
	<path d="M43.462,101.377L43.462,101.377c-1.001,0-2.004,0.273-2.901,0.79l-5.659,3.263c-1.408,0.812-2.416,2.124-2.837,3.694
		c-0.421,1.57-0.206,3.21,0.607,4.618l3,5.197c1.084,1.878,3.105,3.044,5.275,3.044c1.063,0,2.113-0.281,3.037-0.814l4.529-2.611
		c2.82-1.626,3.951-5.223,2.574-8.191c-0.851-1.834-1.665-3.67-2.419-5.457C47.762,102.764,45.719,101.377,43.462,101.377z"/>
	<path d="M119.126,184.633c0-3.354-2.713-6.067-6.067-6.067H86.941c-3.353,0-6.067,2.713-6.067,6.067s2.713,6.067,6.067,6.067
		h26.119C116.413,190.7,119.126,187.987,119.126,184.633z"/>
	<path d="M60.882,115.442c5.555,11.153,10.802,21.687,11.662,32.047c0.272,3.271,2.997,5.833,6.205,5.833h42.503
		c3.218,0,5.94-2.568,6.199-5.846c0.847-10.764,6.419-21.863,11.806-32.596c6.104-12.161,12.416-24.735,12.416-37.567
		c0-28.492-23.18-51.672-51.672-51.672s-51.672,23.18-51.672,51.672C48.328,90.235,54.71,103.05,60.882,115.442z M100,43.809
		c18.474,0,33.504,15.03,33.504,33.504c0,8.522-5.081,18.651-10.46,29.374l-0.023,0.046c-4.414,8.773-8.979,17.848-11.622,27.645
		c-0.104,0.385-0.626,0.776-0.925,0.776H89.467c-0.306,0-0.842-0.399-0.951-0.792c-2.615-9.444-7.071-18.378-11.38-27.017
		c-5.479-11.016-10.64-21.394-10.64-30.032C66.496,58.839,81.526,43.809,100,43.809z"/>
</g>
</svg>
