<?xml version="1.0" encoding="utf-8"?>
<!-- Generator: Adobe Illustrator 16.0.0, SVG Export Plug-In . SVG Version: 6.00 Build 0)  -->
<!DOCTYPE svg PUBLIC "-//W3C//DTD SVG 1.1//EN" "http://www.w3.org/Graphics/SVG/1.1/DTD/svg11.dtd">
<svg version="1.1" id="Layer_1" xmlns="http://www.w3.org/2000/svg" xmlns:xlink="http://www.w3.org/1999/xlink" x="0px" y="0px"
	 width="512px" height="512px" viewBox="0 0 512 512" enable-background="new 0 0 512 512" xml:space="preserve">
<path d="M320,416c0,8.844-7.156,16-16,16h-96c-8.844,0-16-7.156-16-16s7.156-16,16-16h96C312.844,400,320,407.156,320,416z M304,448
	h-96c-8.844,0-16,7.156-16,16s7.156,16,16,16c0,17.688,14.313,32,32,32h32c17.688,0,32-14.313,32-32c8.844,0,16-7.156,16-16
	S312.844,448,304,448z M416,160C416,71.625,344.375,0,256,0S96,71.625,96,160c0,59.063,32.375,110.063,80,137.813V352
	c0,17.688,14.313,32,32,32h96c17.656,0,32-14.313,32-32v-54.188C383.625,270.094,416,219.063,416,160z"/>
</svg>
