<?xml version="1.0" encoding="utf-8"?>
<!-- Generator: Adobe Illustrator 17.0.0, SVG Export Plug-In . SVG Version: 6.00 Build 0)  -->
<!DOCTYPE svg PUBLIC "-//W3C//DTD SVG 1.1//EN" "http://www.w3.org/Graphics/SVG/1.1/DTD/svg11.dtd">
<svg version="1.1" id="Capa_1" xmlns="http://www.w3.org/2000/svg" xmlns:xlink="http://www.w3.org/1999/xlink" x="0px" y="0px"
	 width="64px" height="64px" viewBox="0 0 64 64" enable-background="new 0 0 64 64" xml:space="preserve">
<path d="M31.908,15.114c0-0.552-0.447-1-1-1c-5.773,0-10.47,4.697-10.47,10.47c0,0.552,0.447,1,1,1c0.553,0,1-0.448,1-1
	c0-4.67,3.8-8.47,8.47-8.47C31.461,16.114,31.908,15.667,31.908,15.114z"/>
<path d="M16.236,24.584c0,3.432,1.109,6.677,3.208,9.384c0.01,0.013,0.021,0.026,0.032,0.039c4.377,6.076,3.289,8.966,3.289,8.971
	c-0.234,0.5-0.018,1.095,0.482,1.33c0.137,0.064,0.281,0.095,0.423,0.094c0.376,0,0.736-0.213,0.906-0.576
	c0.181-0.384,1.611-3.963-3.53-11.061c-0.023-0.031-0.046-0.061-0.072-0.089c-1.791-2.34-2.737-5.136-2.737-8.093
	c0-7.348,5.979-13.326,13.326-13.326s13.326,5.978,13.326,13.326c0,2.965-0.952,5.772-2.771,8.138
	c-5.144,7.103-3.656,10.723-3.47,11.113c0.235,0.489,0.812,0.689,1.306,0.468c0.494-0.221,0.718-0.809,0.509-1.309
	c-0.012-0.029-1.158-2.977,3.258-9.076c2.072-2.696,3.168-5.923,3.168-9.333c0-8.451-6.875-15.326-15.326-15.326
	S16.236,16.134,16.236,24.584z"/>
<path d="M40.488,48.252v-0.85c0-1.355-1.103-2.457-2.457-2.457H24.555c-1.355,0-2.457,1.102-2.457,2.457v0.85
	c0,1.354,1.102,2.457,2.457,2.457h13.477C39.386,50.709,40.488,49.607,40.488,48.252z M24.098,48.252v-0.85
	c0-0.252,0.205-0.457,0.457-0.457h13.477c0.252,0,0.457,0.205,0.457,0.457v0.85c0,0.252-0.205,0.457-0.457,0.457H24.555
	C24.303,48.709,24.098,48.504,24.098,48.252z"/>
<path d="M26.174,52.229c-0.553,0-1,0.448-1,1v2.641c0,0.392,0.229,0.747,0.585,0.91l5.389,2.459c0.132,0.06,0.273,0.09,0.415,0.09
	c0.146,0,0.292-0.032,0.427-0.096l5.404-2.55c0.35-0.165,0.573-0.517,0.573-0.904v-2.549c0-0.552-0.447-1-1-1s-1,0.448-1,1v1.916
	l-4.411,2.082l-4.382-2v-1.998C27.174,52.676,26.727,52.229,26.174,52.229z"/>
<path d="M54.86,42.654c0.328-0.444,0.233-1.07-0.211-1.398l-6.784-5.002c-0.445-0.328-1.07-0.234-1.398,0.211
	c-0.328,0.444-0.233,1.07,0.211,1.398l6.784,5.002c0.179,0.132,0.387,0.195,0.593,0.195C54.361,43.061,54.664,42.92,54.86,42.654z"
	/>
<path d="M15.111,14.591c0.179,0.132,0.387,0.195,0.593,0.195c0.307,0,0.609-0.141,0.806-0.407c0.328-0.444,0.233-1.07-0.211-1.398
	L9.362,7.867c-0.444-0.329-1.07-0.233-1.398,0.211C7.636,8.523,7.73,9.149,8.175,9.477L15.111,14.591z"/>
<path d="M15.426,35.91l-7.25,5.346c-0.444,0.328-0.539,0.954-0.211,1.398c0.196,0.266,0.499,0.407,0.806,0.407
	c0.206,0,0.414-0.063,0.593-0.195l7.25-5.346c0.444-0.328,0.539-0.954,0.211-1.398C16.495,35.677,15.87,35.583,15.426,35.91z"/>
<path d="M46.974,12.651c-0.444,0.328-0.539,0.954-0.211,1.398c0.196,0.266,0.499,0.407,0.806,0.407c0.206,0,0.414-0.064,0.593-0.195
	l6.489-4.784c0.444-0.328,0.539-0.954,0.211-1.398c-0.328-0.444-0.953-0.54-1.398-0.211L46.974,12.651z"/>
<path d="M58.791,24.367h-7.649c-0.553,0-1,0.448-1,1c0,0.552,0.447,1,1,1h7.649c0.553,0,1-0.448,1-1
	C59.791,24.815,59.344,24.367,58.791,24.367z"/>
<path d="M12.805,25.367c0-0.552-0.447-1-1-1H3.912c-0.553,0-1,0.448-1,1c0,0.552,0.447,1,1,1h7.893
	C12.357,26.367,12.805,25.919,12.805,25.367z"/>
</svg>
