<?xml version="1.0" encoding="utf-8"?>
<!-- Generator: Adobe Illustrator 16.0.4, SVG Export Plug-In . SVG Version: 6.00 Build 0)  -->
<!DOCTYPE svg PUBLIC "-//W3C//DTD SVG 1.1//EN" "http://www.w3.org/Graphics/SVG/1.1/DTD/svg11.dtd">
<svg version="1.1" id="Capa_1" xmlns="http://www.w3.org/2000/svg" xmlns:xlink="http://www.w3.org/1999/xlink" x="0px" y="0px"
	 width="100px" height="100px" viewBox="0 0 100 100" enable-background="new 0 0 100 100" xml:space="preserve">
<g>
	<path fill="#010101" d="M51.165,39.267c0.838,0,1.519-0.681,1.519-1.519v-5.443c0-0.838-0.681-1.519-1.519-1.519
		c-0.837,0-1.519,0.681-1.519,1.519v5.443C49.646,38.586,50.328,39.267,51.165,39.267z"/>
	<path fill="#010101" d="M38.035,43.816c0.286,0.287,0.667,0.444,1.073,0.444c0.406,0,0.787-0.157,1.074-0.445
		c0.592-0.592,0.592-1.555,0-2.147l-3.85-3.849c-0.287-0.287-0.667-0.444-1.073-0.444c-0.406,0-0.788,0.157-1.074,0.445
		c-0.287,0.286-0.445,0.668-0.445,1.072c0,0.406,0.158,0.787,0.445,1.074L38.035,43.816z"/>
	<path fill="#010101" d="M64.294,65.779c-0.287-0.285-0.668-0.442-1.073-0.442c-0.404,0-0.787,0.157-1.074,0.444
		s-0.443,0.668-0.442,1.072c0,0.405,0.155,0.787,0.444,1.072l3.85,3.852c0.286,0.287,0.667,0.445,1.072,0.445
		c0.406,0,0.787-0.158,1.074-0.445c0.59-0.594,0.59-1.555,0-2.147L64.294,65.779z"/>
	<path fill="#010101" d="M35.632,54.799c0-0.838-0.681-1.52-1.518-1.52h-5.443c-0.837,0-1.518,0.682-1.518,1.52
		c0,0.837,0.681,1.518,1.518,1.518h5.443C34.952,56.316,35.632,55.636,35.632,54.799z"/>
	<path fill="#010101" d="M73.658,53.279h-5.443c-0.838,0-1.52,0.682-1.52,1.52c0,0.837,0.682,1.518,1.52,1.518h5.443
		c0.837,0,1.519-0.681,1.519-1.518C75.177,53.961,74.495,53.279,73.658,53.279z"/>
	<path fill="#010101" d="M39.108,65.337c-0.405,0-0.787,0.157-1.074,0.444l-3.849,3.849c-0.592,0.593-0.592,1.556,0,2.147
		c0.286,0.287,0.667,0.445,1.073,0.445c0.405,0,0.787-0.158,1.074-0.445l3.849-3.852c0.287-0.285,0.444-0.667,0.444-1.072
		c0-0.404-0.158-0.785-0.445-1.074C39.895,65.494,39.514,65.337,39.108,65.337z"/>
	<path fill="#010101" d="M63.221,44.26c0.405,0,0.787-0.157,1.074-0.444l3.85-3.851c0.285-0.285,0.443-0.666,0.443-1.072
		c0-0.404-0.158-0.787-0.445-1.074c-0.285-0.286-0.666-0.443-1.072-0.443c-0.404,0-0.786,0.157-1.073,0.444l-3.849,3.849
		c-0.289,0.287-0.444,0.668-0.444,1.072c0,0.406,0.155,0.788,0.444,1.075C62.434,44.104,62.814,44.26,63.221,44.26z"/>
	<path fill="#010101" d="M51.225,43.728c-6.093,0-11.05,4.956-11.05,11.049c0,4.384,2.51,9.209,5.966,11.681v6.456
		c0,0.678,0.458,1.271,1.115,1.441l3.596,0.932c0.123,0.031,0.248,0.047,0.373,0.047s0.25-0.016,0.373-0.047l3.596-0.932
		c0.656-0.17,1.115-0.766,1.115-1.441v-6.456c3.457-2.472,5.965-7.298,5.965-11.681C62.273,48.684,57.316,43.728,51.225,43.728z
		 M53.331,71.76L53.331,71.76l-2.106,0.545L49.12,71.76v-1.816h4.211V71.76z M53.958,64.434c-0.585,0.336-0.872,1.021-0.696,1.674
		c0.018,0.069,0.039,0.137,0.067,0.201v1.399h-4.211v-1.399c0.028-0.064,0.051-0.133,0.069-0.201c0.173-0.65-0.113-1.34-0.698-1.674
		c-2.993-1.719-5.337-5.959-5.337-9.656c0-4.449,3.62-8.07,8.073-8.07c4.449,0,8.069,3.621,8.069,8.07
		C59.295,58.475,56.951,62.715,53.958,64.434z"/>
</g>
</svg>
