<?xml version="1.0" encoding="utf-8"?>
<!-- Generator: Adobe Illustrator 16.0.0, SVG Export Plug-In . SVG Version: 6.00 Build 0)  -->
<!DOCTYPE svg PUBLIC "-//W3C//DTD SVG 1.1//EN" "http://www.w3.org/Graphics/SVG/1.1/DTD/svg11.dtd">
<svg version="1.1" id="Layer_1" xmlns="http://www.w3.org/2000/svg" xmlns:xlink="http://www.w3.org/1999/xlink" x="0px" y="0px"
	 width="50px" height="50px" viewBox="0 0 50 50" enable-background="new 0 0 50 50" xml:space="preserve">
<g>
	<path d="M38.02,21.861c-0.991-1.068-1.274-2.512-2.858-2.512c-1.662,0-1.963,1.479-2.957,2.626c-0.793,0.916-2.46,1.206-2.46,2.813
		c0,2.099,2.425,3.327,5.417,3.327s5.418-1.228,5.418-3.327C40.579,23.027,38.9,22.811,38.02,21.861z"/>
	<path d="M30.375,20.25c-0.407-0.873-1.875-1.75-1.896-4.311c-0.511,1.498-0.459,3.358-0.459,4.321c0,0.964,0.782,1.747,1.747,1.747
		C30.73,22.008,30.812,21.188,30.375,20.25z"/>
	<path d="M41.522,15.939c0.228,1.998-1.803,3.432-2.116,4.342c-0.312,0.906-0.136,1.727,0.828,1.727
		c0.963,0,1.745-0.783,1.745-1.747C41.979,19.298,42.076,16.848,41.522,15.939z"/>
	<path d="M32.586,18.307c0.963,0,1.539-0.838,1.258-1.838c-0.261-0.927-1.383-1.312-1.02-4.209
		c-0.448,0.492-1.449,3.371-1.449,4.334C31.375,17.558,31.621,18.307,32.586,18.307z"/>
	<path d="M37.169,18.327c0.963,0,1.55-0.738,1.55-1.702c0-0.963-0.506-3.605-1.55-4.365c0.8,2.646-0.968,3.459-1.294,4.365
		C35.594,17.406,36.205,18.327,37.169,18.327z"/>
	<path d="M17.8,31.975c-0.994-1.148-1.295-2.626-2.957-2.626c-1.584,0-1.867,1.444-2.858,2.512c-0.881,0.95-2.56,1.166-2.56,2.928
		c0,2.099,2.426,3.327,5.418,3.327s5.417-1.228,5.417-3.327C20.26,33.181,18.593,32.891,17.8,31.975z"/>
	<path d="M19.629,30.25c-0.438,0.938-0.355,1.758,0.607,1.758c0.965,0,1.747-0.783,1.747-1.747c0-0.963,0.052-2.823-0.459-4.321
		C21.504,28.5,20.036,29.377,19.629,30.25z"/>
	<path d="M10.598,30.281c-0.313-0.91-2.344-2.344-2.116-4.342c-0.554,0.908-0.457,3.358-0.457,4.321
		c0,0.964,0.782,1.747,1.745,1.747C10.733,32.008,10.91,31.188,10.598,30.281z"/>
	<path d="M17.418,28.307c0.965,0,1.211-0.749,1.211-1.713c0-0.963-1.001-3.842-1.449-4.334c0.363,2.896-0.759,3.282-1.02,4.209
		C15.879,27.469,16.455,28.307,17.418,28.307z"/>
	<path d="M12.835,28.327c0.964,0,1.575-0.921,1.294-1.702c-0.326-0.906-2.094-1.719-1.294-4.365c-1.044,0.76-1.55,3.402-1.55,4.365
		C11.285,27.589,11.872,28.327,12.835,28.327z"/>
</g>
<g id="Favorite">
</g>
</svg>
