<?xml version="1.0" encoding="iso-8859-1"?>
<!-- Generator: Adobe Illustrator 16.0.0, SVG Export Plug-In . SVG Version: 6.00 Build 0)  -->
<!DOCTYPE svg PUBLIC "-//W3C//DTD SVG 1.1//EN" "http://www.w3.org/Graphics/SVG/1.1/DTD/svg11.dtd">
<svg version="1.1" id="Capa_1" xmlns="http://www.w3.org/2000/svg" xmlns:xlink="http://www.w3.org/1999/xlink" x="0px" y="0px"
	 width="21.992px" height="22.831px" viewBox="0 0 21.992 22.831" style="enable-background:new 0 0 21.992 22.831;"
	 xml:space="preserve">
<g>
	<path style="fill-rule:evenodd;clip-rule:evenodd;" d="M14.798,0c0,0-1.163,0.039-1.2,1.124c-0.009,0.211-0.055,0.407-0.033,0.623
		c0.067,0.541,0.963,1.579-0.104,1.56c-0.395-0.008-0.732,0.081-1.24,0.283c-0.493,0.07-0.957,0.049-1.448,0.173
		c0.081-0.501,0.263-1.417,0.765-1.668c0,0,0.893,0.467,1.13,0.078c0,0,0.423-0.312,0.077-0.815c0,0-0.43-0.893-0.699-0.777
		c0,0-0.543-0.038-0.933,0.815c0,0-2.327,2.562-2.019,3.22c0,0-0.035,0.816,1.165,0.816l1.939,0.039c0,0,0.506,2.637,0.311,4.616
		l0.429,0.193c0,0-0.701,3.452-1.207,4.462c-0.209,0.426-0.229,0.938-0.422,1.366c-0.114,0.252-0.385,0.403-0.49,0.633
		c-0.123,0.274,0.085,0.434,0.078,0.695c-0.004,0.402-0.301,0.99-0.475,1.351C10.217,19.196,10,19.685,9.75,20.066
		c-0.236,0.353-0.627,0.611-0.731,1.039c0,0-0.312,1.24-0.233,1.396c0,0-0.193,0.429,0.891,0.271c0,0,0.931-0.349,1.124-0.93
		c0,0,0.08-0.933,0.351-1.358c0,0,1.009-1.592,2.095-3.103c0,0,0.815-1.204,1.861-3.377c0,0,0.43-0.737,1.009,0.271
		c0,0,0.973,1.317,1.205,1.668c0,0-0.193,0.97,0.657,2.91c0,0,0.625,0.892,0.856,2.135v0.968h0.271c0,0-0.038,0.582,0.115,0.701
		c0,0,2.64,0.113,2.755,0.077c0,0,0.154-0.351-0.464-0.737c0,0-0.969-0.351-1.047-1.088c0,0-0.309-3.686-0.622-4.616
		c0,0,0.037-1.241-2.368-5.007c0,0-0.27-0.075-0.309-0.893l0.232-0.077c0,0-0.893-2.714-0.854-3.763V6.129l2.445,0.039
		c0,0,0.776-0.311,0.776-0.853c0-0.543,0-2.716,0-2.716s0.035-0.623-0.39-0.66c0,0-0.97,0.037-1.009,0.699
		c0,0,0.236,0.503,0.661,0.426c0,0,0.039,1.008-0.348,1.435c0,0-0.158,0.234-0.931,0.195c0,0-0.661-0.506-1.167-0.699
		c0,0-0.004,0.004-0.351-0.383c0,0-0.349-0.354-0.928-0.354c0,0-0.39-0.387,0.192-0.465c0,0,0.545,0.153,0.584-1.24
		C16.08,1.553,16.273,0.039,14.798,0z"/>
	<path style="fill-rule:evenodd;clip-rule:evenodd;" d="M10.078,4.534l0.966-2.361c0,0-6.61-2.269-8.922,0.721
		c0,0-1.497,1.641-1.449,3.954c0,0-0.53,3.186,4.295,5.212c0,0,4.82,1.011,4.388,4.629c0,0-0.244,3.52-4.194,3.326
		c0,0-1.784,0.435-4.389-1.59L0,21.22c0,0,5.644,3.811,9.839-0.29c0,0,2.603-2.408,2.074-6.076c0,0,0-3.567-6.127-5.546
		c0,0-2.896-0.386-2.603-3.038c0,0,0.097-2.17,2.938-2.217C6.121,4.053,7.377,4.003,10.078,4.534z"/>
</g>
<g>
</g>
<g>
</g>
<g>
</g>
<g>
</g>
<g>
</g>
<g>
</g>
<g>
</g>
<g>
</g>
<g>
</g>
<g>
</g>
<g>
</g>
<g>
</g>
<g>
</g>
<g>
</g>
<g>
</g>
</svg>
