<?xml version="1.0" encoding="utf-8"?>
<!-- Generator: Adobe Illustrator 17.0.0, SVG Export Plug-In . SVG Version: 6.00 Build 0)  -->
<!DOCTYPE svg PUBLIC "-//W3C//DTD SVG 1.1//EN" "http://www.w3.org/Graphics/SVG/1.1/DTD/svg11.dtd">
<svg version="1.1" id="Layer_1" xmlns="http://www.w3.org/2000/svg" xmlns:xlink="http://www.w3.org/1999/xlink" x="0px" y="0px"
	 width="28.166px" height="26.915px" viewBox="0 0 28.166 26.915" enable-background="new 0 0 28.166 26.915" xml:space="preserve">
<g>
	<path d="M3.583,26.319h3.835c0.053,0.334,0.33,0.595,0.68,0.595h8.72c0.35,0,0.627-0.26,0.68-0.595h3.835
		c0.649,0,1.174-0.525,1.174-1.174H2.41C2.41,25.794,2.936,26.319,3.583,26.319z"/>
	<path d="M27.126,14.253c-0.976-0.792-2.353-0.805-3.261-0.705c0.026-0.632,0.04-1.278,0.04-1.95H0
		c0,6.46,0.978,11.124,7.165,12.862h9.576c2.451-0.688,4.076-1.842,5.154-3.379c2.348-0.046,6.125-0.97,6.266-4.212
		C28.222,15.449,27.632,14.662,27.126,14.253z M22.878,19.227c0.45-1.154,0.716-2.455,0.863-3.885c0.636-0.104,1.729-0.17,2.28,0.28
		c0.103,0.083,0.419,0.341,0.382,1.171C26.329,18.473,24.244,19.037,22.878,19.227z"/>
	<path d="M9.739,10.691c0,0,4.55-0.334,2.465-4.171c-1.675-3.08-1.292-4.887,0.85-6.52c0,0-7.018,1.788-2.925,7.32
		C11.631,9.73,9.739,10.691,9.739,10.691z"/>
	<path d="M12.806,10.384c0,0,3.645-0.768,1.662-3.7c-0.72-1.271,0.273-1.725,0.273-1.725s-2.347,0.074-1.356,2.091
		C14.177,8.67,13.942,9.591,12.806,10.384z"/>
</g>
</svg>
