<?xml version="1.0" encoding="utf-8"?>
<!-- Generator: Adobe Illustrator 17.0.0, SVG Export Plug-In . SVG Version: 6.00 Build 0)  -->
<!DOCTYPE svg PUBLIC "-//W3C//DTD SVG 1.1//EN" "http://www.w3.org/Graphics/SVG/1.1/DTD/svg11.dtd">
<svg version="1.1" id="Icons" xmlns="http://www.w3.org/2000/svg" xmlns:xlink="http://www.w3.org/1999/xlink" x="0px" y="0px"
	 width="28.006px" height="28.006px" viewBox="-1.686 -2.581 28.006 28.006" enable-background="new -1.686 -2.581 28.006 28.006"
	 xml:space="preserve">
<path d="M22.786,11.73c0.225-0.459,0.383-0.939,0.557-1.42c0.004-0.01,0.011-0.015,0.015-0.025c-0.001,0-0.002,0-0.003,0
	c0.947-3.163,0.274-7.034-1.689-8.626c0.48-1.303,0.158-3.082-0.338-4.154c-1.034,0.035-1.799,0.18-2.704,0.56
	c-0.693,0.292-1.481,1.054-2.196,1.118c-0.728,0.065-1.734-0.348-2.701-0.399c-2.299-0.121-4.064,0.105-5.743,0.559
	C6.631-1.511,5.324-2.404,3.17-2.496C2.456-1.475,2.285,0.668,2.833,1.978C0.938,3.51,0.615,7.569,1.441,10.212
	c0.098,0.19,0.192,0.381,0.286,0.573c0.062,0.076,0.098,0.178,0.132,0.281c0.038,0.057,0.071,0.118,0.106,0.176
	c0.007-0.001,0.014-0.001,0.022-0.001c1.292,2.399,4.069,3.394,7.432,3.832c-0.677,0.479-1.136,1.162-1.351,2.078
	c-0.767,0.172-1.199,0.428-2.027,0.399c-2.703-0.089-2.819-3.722-5.828-3.034c0.23,0.781,1.023,0.86,1.519,1.437
	c0.499,0.577,0.602,1.345,1.014,1.996c0.922,1.452,2.807,1.979,5.237,1.518c-0.165,1.386,0.295,2.736-0.169,3.674
	c-0.333,0.673-1.117,0.555-1.266,1.277c1.146,0.433,2.657,0.011,3.125-0.958c0.813-1.685-0.637-4.969,0.676-5.91
	c-0.288,2.06,0.457,4.604-0.17,6.311c-0.214,0.583-0.776,0.8-0.676,1.437c3.439,0.406,2.77-3.755,2.787-6.789
	c0.001-0.347-0.261-1.159,0.337-1.199c0.648,3.106-1.009,8.371,2.957,7.987c0.173-0.599-0.457-0.854-0.676-1.518
	c-0.554-1.687-0.004-4.341-0.084-6.23c1.135,1.175,0.094,3.859,0.506,5.591c0.241,1.011,2.357,2.079,3.21,1.119
	c-0.349-0.508-0.867-0.524-1.183-1.119c-0.66-1.241,0.009-3.969-0.252-5.831c-0.176-1.247-0.893-1.542-1.267-2.316
	C19.066,14.77,21.452,13.746,22.786,11.73z"/>
</svg>
