<?xml version="1.0" encoding="utf-8"?>
<!-- Generator: Adobe Illustrator 17.0.0, SVG Export Plug-In . SVG Version: 6.00 Build 0)  -->
<!DOCTYPE svg PUBLIC "-//W3C//DTD SVG 1.1//EN" "http://www.w3.org/Graphics/SVG/1.1/DTD/svg11.dtd">
<svg version="1.1" id="Capa_1" xmlns="http://www.w3.org/2000/svg" xmlns:xlink="http://www.w3.org/1999/xlink" x="0px" y="0px"
	 width="28.429px" height="29.513px" viewBox="0 0 28.429 29.513" enable-background="new 0 0 28.429 29.513" xml:space="preserve">
<g>
	<path d="M19.129,0c0,0-1.503,0.05-1.551,1.453c-0.012,0.273-0.071,0.526-0.043,0.805c0.087,0.699,1.245,2.041-0.134,2.017
		c-0.511-0.01-0.946,0.105-1.603,0.366c-0.637,0.09-1.237,0.063-1.872,0.224c0.105-0.648,0.34-1.832,0.989-2.156
		c0,0,1.154,0.604,1.461,0.101c0,0,0.547-0.403,0.1-1.054c0,0-0.556-1.154-0.904-1.004c0,0-0.702-0.049-1.206,1.054
		c0,0-3.008,3.312-2.61,4.162c0,0-0.045,1.055,1.506,1.055l2.506,0.05c0,0,0.654,3.409,0.402,5.967l0.555,0.249
		c0,0-0.906,4.462-1.56,5.768c-0.27,0.551-0.296,1.213-0.545,1.766c-0.147,0.326-0.498,0.521-0.633,0.818
		c-0.159,0.354,0.11,0.561,0.101,0.898c-0.005,0.52-0.389,1.28-0.614,1.746c-0.265,0.529-0.545,1.161-0.869,1.653
		c-0.305,0.456-0.81,0.79-0.945,1.343c0,0-0.403,1.603-0.301,1.805c0,0-0.249,0.555,1.152,0.35c0,0,1.203-0.451,1.453-1.202
		c0,0,0.103-1.206,0.454-1.755c0,0,1.304-2.058,2.708-4.011c0,0,1.054-1.556,2.406-4.365c0,0,0.556-0.953,1.304,0.35
		c0,0,1.258,1.702,1.558,2.156c0,0-0.249,1.254,0.849,3.762c0,0,0.808,1.153,1.107,2.76v1.251h0.35c0,0-0.049,0.752,0.149,0.906
		c0,0,3.413,0.146,3.561,0.1c0,0,0.199-0.454-0.6-0.953c0,0-1.253-0.454-1.353-1.406c0,0-0.399-4.765-0.804-5.967
		c0,0,0.048-1.604-3.061-6.472c0,0-0.349-0.097-0.399-1.154l0.3-0.1c0,0-1.154-3.508-1.104-4.864V7.923l3.161,0.05
		c0,0,1.003-0.402,1.003-1.103c0-0.702,0-3.511,0-3.511s0.045-0.805-0.504-0.853c0,0-1.254,0.048-1.304,0.904
		c0,0,0.305,0.65,0.854,0.551c0,0,0.05,1.303-0.45,1.855c0,0-0.204,0.302-1.203,0.252c0,0-0.854-0.654-1.509-0.904
		c0,0-0.005,0.005-0.454-0.495c0,0-0.451-0.458-1.2-0.458c0,0-0.504-0.5,0.248-0.601c0,0,0.704,0.198,0.755-1.603
		C20.786,2.007,21.035,0.05,19.129,0z"/>
	<path d="M13.027,5.861l1.249-3.052c0,0-8.544-2.933-11.533,0.932c0,0-1.935,2.121-1.873,5.111c0,0-0.685,4.118,5.552,6.737
		c0,0,6.231,1.307,5.672,5.984c0,0-0.315,4.55-5.421,4.299c0,0-2.306,0.562-5.673-2.055L0,27.43c0,0,7.296,4.926,12.718-0.375
		c0,0,3.365-3.113,2.681-7.854c0,0,0-4.611-7.92-7.169c0,0-3.744-0.499-3.365-3.927c0,0,0.125-2.805,3.798-2.866
		C7.912,5.239,9.536,5.174,13.027,5.861z"/>
</g>
</svg>
