<?xml version="1.0" encoding="utf-8"?>
<!-- Generator: Adobe Illustrator 17.0.0, SVG Export Plug-In . SVG Version: 6.00 Build 0)  -->
<!DOCTYPE svg PUBLIC "-//W3C//DTD SVG 1.1//EN" "http://www.w3.org/Graphics/SVG/1.1/DTD/svg11.dtd">
<svg version="1.1" id="Capa_1" xmlns="http://www.w3.org/2000/svg" xmlns:xlink="http://www.w3.org/1999/xlink" x="0px" y="0px"
	 width="28.006px" height="28.006px" viewBox="0 0 28.006 28.006" enable-background="new 0 0 28.006 28.006" xml:space="preserve">
<path fill="#2D2D2D" d="M20.208,1.114v-1.139h-1.816v1.139h-8.78v-1.139H7.795v1.139H4v26.892h20.003V1.114H20.208z M22.962,26.969
	L22.962,26.969H5.042V2.155h2.752V3.61h1.817V2.155h8.782V3.61h1.816V2.155h2.752C22.962,2.155,22.962,26.969,22.962,26.969z
	 M12.436,7.72c0,0-0.198-0.706,0.092-0.569c-0.203-1.073-0.051-1.437-0.051-1.437c0.261-0.81,1.163-1.201,1.163-1.201
	c0.198-0.22,0.202-0.146,0.185-0.081c0.055-0.07,0.111-0.112,0.111-0.112c-0.056,0.057-0.093,0.116-0.122,0.171l0.1,0.048
	c0.056-0.093,0.123-0.154,0.123-0.154c-0.046,0.054-0.079,0.114-0.103,0.164l0.046,0.025c0.053-0.187,0.209-0.291,0.276-0.329
	c0.084-0.103,0.18-0.152,0.18-0.152c-0.09,0.077-0.144,0.171-0.177,0.269c0.081-0.122,0.225-0.189,0.225-0.189
	c0,0.215,0.228,0.408,0.345,0.492c-0.026-0.053-0.044-0.086-0.044-0.086c0.043,0.044,0.079,0.086,0.106,0.13
	c0.016,0.002,0.029,0.007,0.048,0.012c-0.045-0.065-0.084-0.104-0.084-0.104c0.042,0.039,0.081,0.075,0.115,0.111
	c0.036,0.009,0.074,0.016,0.108,0.027c-0.019-0.028-0.032-0.044-0.032-0.044c0.025,0.018,0.046,0.035,0.068,0.053
	c0.618,0.185,0.872,0.533,0.872,0.533c0.54,0.609,0.26,1.59,0.174,1.842c0.242-0.071,0.06,0.582,0.06,0.582
	c-0.028,0.188-0.108,0.271-0.154,0.305c-0.128,0.902-0.939,1.943-1.796,1.943c-0.745,0-1.563-0.989-1.678-1.943
	C12.543,7.991,12.465,7.909,12.436,7.72z M9.931,14.104c0,0,0.079-2.207,0.747-3.199c0,0,0.191-0.26,0.642-0.434
	c0,0,1.547-0.47,1.651-0.87c0,0,1.141,2.957,2.644-0.007c0,0,0.008,0.268,0.769,0.536c0,0,1.436,0.454,1.671,0.976
	c0,0,0.781,1.782,0.599,3.363c0,0-0.007,0.133-0.269,0.295c0,0-1.804,0.756-4.279,0.703c0,0-2.414-0.121-3.95-0.807
	C10.156,14.661,9.938,14.608,9.931,14.104z M7.657,21.643h11.228v0.647H7.657V21.643z M7.72,23.658h10.19v0.65H7.72V23.658z
	 M7.657,19.594h12.268v0.652H7.657V19.594z M7.657,17.482h13.307v0.647H7.657V17.482z"/>
</svg>
