<?xml version="1.0" encoding="utf-8"?>
<!-- Generator: Adobe Illustrator 15.0.0, SVG Export Plug-In . SVG Version: 6.00 Build 0)  -->
<!DOCTYPE svg PUBLIC "-//W3C//DTD SVG 1.1//EN" "http://www.w3.org/Graphics/SVG/1.1/DTD/svg11.dtd">
<svg version="1.1" id="Layer_1" xmlns="http://www.w3.org/2000/svg" xmlns:xlink="http://www.w3.org/1999/xlink" x="0px" y="0px"
	 width="26px" height="26px" viewBox="0 0 26 26" enable-background="new 0 0 26 26" xml:space="preserve">
<rect fill="none" width="26" height="26"/>
<g>
	<path fill="#000000" d="M13,2.188c5.962,0,10.813,4.851,10.813,10.813S18.962,23.813,13,23.813S2.188,18.962,2.188,13
		S7.038,2.188,13,2.188 M13,0.188C5.924,0.188,0.188,5.924,0.188,13S5.924,25.813,13,25.813S25.813,20.076,25.813,13
		S20.076,0.188,13,0.188L13,0.188z"/>
</g>
<path fill="#000000" d="M13,18.094c-2.016,0-3.817-0.938-3.817,0.219c0,1.359,1.786,1.544,3.817,1.544
	c3.542,0,5.925-1.207,6.923-4.276C18.051,18.233,16.063,18.094,13,18.094z"/>
<path fill="#000000" d="M22,10.173c0,3.847-2.846,4.722-4.5,4.722S14,13.966,14,11c0-1.657,0.953-2,3.5-2
	C21.511,9,22,9.042,22,10.173z"/>
<path fill="#000000" d="M4,10.173c0,3.847,2.846,4.722,4.5,4.722S12,13.966,12,11c0-1.657-0.953-2-3.5-2C4.489,9,4,9.042,4,10.173z"
	/>
<path fill="none" stroke="#000000" stroke-width="1.7746" stroke-linecap="round" stroke-linejoin="round" stroke-miterlimit="10" d="
	M9.493,12.942c0-1.615,1.556-2.925,3.475-2.925s3.475,1.31,3.475,2.925"/>
<path fill="none" stroke="#000000" stroke-width="2" stroke-linecap="round" stroke-linejoin="round" stroke-miterlimit="10" d="
	M20,11c0,0,3.36,0.155,5-0.982"/>
<path fill="none" stroke="#000000" stroke-width="2" stroke-linecap="round" stroke-linejoin="round" stroke-miterlimit="10" d="
	M6,11c0,0-3.36,0.155-5-0.982"/>
</svg>
