<?xml version="1.0" encoding="utf-8"?>
<!-- Generator: Adobe Illustrator 17.0.0, SVG Export Plug-In . SVG Version: 6.00 Build 0)  -->
<!DOCTYPE svg PUBLIC "-//W3C//DTD SVG 1.1//EN" "http://www.w3.org/Graphics/SVG/1.1/DTD/svg11.dtd">
<svg version="1.1" id="Layer_1" xmlns="http://www.w3.org/2000/svg" xmlns:xlink="http://www.w3.org/1999/xlink" x="0px" y="0px"
	 width="17.273px" height="17.273px" viewBox="9.971 9.971 17.273 17.273" enable-background="new 9.971 9.971 17.273 17.273"
	 xml:space="preserve">
<path d="M24.718,12.498c-3.369-3.37-8.851-3.37-12.22-0.001c-3.369,3.369-3.369,8.851,0,12.22c3.368,3.369,8.85,3.369,12.219-0.001
	C28.087,21.348,28.086,15.866,24.718,12.498z M23.775,23.775c-2.849,2.849-7.485,2.849-10.335,0c-2.85-2.85-2.849-7.486,0-10.335
	c2.849-2.849,7.485-2.849,10.335,0C26.625,16.289,26.624,20.926,23.775,23.775z M22.763,19.916c0.043,0.066,0.05,0.149,0.019,0.221
	c-0.698,1.613-2.332,2.655-4.163,2.655c-1.871,0-3.515-1.047-4.188-2.668c-0.03-0.072-0.022-0.155,0.021-0.219
	c0.043-0.065,0.116-0.104,0.194-0.104c0,0,0,0,0,0l7.921,0.01C22.647,19.811,22.72,19.85,22.763,19.916z M15.385,16.269
	c0-0.557,0.452-1.01,1.01-1.01c0.557,0,1.01,0.452,1.01,1.01c0,0.558-0.452,1.01-1.01,1.01
	C15.837,17.279,15.385,16.827,15.385,16.269z M19.964,16.269c0-0.557,0.453-1.01,1.01-1.01c0.557,0,1.01,0.452,1.01,1.01
	c0,0.558-0.452,1.01-1.01,1.01C20.417,17.279,19.964,16.827,19.964,16.269z"/>
</svg>
