<?xml version="1.0" encoding="utf-8"?>
<!-- Generator: Adobe Illustrator 17.0.0, SVG Export Plug-In . SVG Version: 6.00 Build 0)  -->
<!DOCTYPE svg PUBLIC "-//W3C//DTD SVG 1.1//EN" "http://www.w3.org/Graphics/SVG/1.1/DTD/svg11.dtd">
<svg version="1.1" id="Layer_1" xmlns="http://www.w3.org/2000/svg" xmlns:xlink="http://www.w3.org/1999/xlink" x="0px" y="0px"
	 width="18.798px" height="18.798px" viewBox="9.971 9.971 18.798 18.798" enable-background="new 9.971 9.971 18.798 18.798"
	 xml:space="preserve">
<path d="M26.019,26.019c3.666-3.666,3.666-9.632,0-13.298c-3.667-3.667-9.633-3.667-13.299-0.001c-3.667,3.666-3.666,9.632,0,13.299
	C16.387,29.686,22.353,29.686,26.019,26.019z M13.747,13.746c3.101-3.101,8.146-3.101,11.247,0c3.101,3.101,3.1,8.146,0,11.247
	c-3.101,3.101-8.146,3.101-11.247,0C10.645,21.892,10.646,16.847,13.747,13.746z M20.403,17.356c0-0.85,0.692-1.542,1.543-1.542
	c0.85,0,1.542,0.692,1.542,1.542c0,0.245-0.198,0.443-0.443,0.443s-0.443-0.198-0.443-0.443c0-0.362-0.294-0.656-0.656-0.656
	c-0.362,0-0.656,0.294-0.656,0.656c0,0.245-0.198,0.443-0.443,0.443S20.403,17.601,20.403,17.356z M15.489,17.352
	c0-0.85,0.692-1.542,1.543-1.542c0.85,0,1.542,0.692,1.542,1.542c0,0.245-0.198,0.443-0.443,0.443s-0.443-0.198-0.443-0.443
	c0-0.362-0.294-0.656-0.656-0.656c-0.362,0-0.656,0.294-0.656,0.656c0,0.245-0.198,0.443-0.443,0.443S15.489,17.596,15.489,17.352z
	 M15.293,21.313c-0.113-0.271,0.016-0.582,0.287-0.695c0.067-0.028,0.136-0.041,0.204-0.041c0.208,0,0.406,0.123,0.491,0.328
	c0.492,1.185,1.711,1.95,3.106,1.95c1.363,0,2.575-0.766,3.088-1.952c0.117-0.27,0.43-0.394,0.699-0.277
	c0.27,0.117,0.393,0.429,0.277,0.699c-0.681,1.575-2.276,2.593-4.064,2.593C17.555,23.919,15.95,22.896,15.293,21.313z"/>
</svg>
