<?xml version="1.0" encoding="utf-8"?>
<!-- Generator: Adobe Illustrator 17.0.0, SVG Export Plug-In . SVG Version: 6.00 Build 0)  -->
<!DOCTYPE svg PUBLIC "-//W3C//DTD SVG 1.1//EN" "http://www.w3.org/Graphics/SVG/1.1/DTD/svg11.dtd">
<svg version="1.1" id="Layer_1_copy" xmlns="http://www.w3.org/2000/svg" xmlns:xlink="http://www.w3.org/1999/xlink" x="0px"
	 y="0px" width="29.803px" height="29.344px" viewBox="39.765 42.913 29.803 29.344"
	 enable-background="new 39.765 42.913 29.803 29.344" xml:space="preserve">
<path d="M58.404,48.511c0-3.077,2.504-5.58,5.582-5.58c3.077,0,5.58,2.503,5.58,5.58c0,0.886-0.718,1.603-1.603,1.603
	c-0.886,0-1.603-0.718-1.603-1.603c0-1.309-1.065-2.374-2.374-2.374c-1.31,0-2.375,1.065-2.375,2.374
	c0,0.886-0.718,1.603-1.603,1.603C59.122,50.114,58.404,49.396,58.404,48.511z M40.625,48.493c0-3.077,2.504-5.58,5.582-5.58
	c3.077,0,5.58,2.503,5.58,5.58c0,0.886-0.718,1.603-1.603,1.603c-0.886,0-1.603-0.718-1.603-1.603c0-1.309-1.065-2.374-2.374-2.374
	c-1.31,0-2.375,1.065-2.375,2.374c0,0.886-0.718,1.603-1.603,1.603S40.625,49.379,40.625,48.493z M39.913,62.828
	c-0.408-0.981,0.057-2.107,1.039-2.515c0.241-0.1,0.491-0.148,0.738-0.148c0.754,0,1.47,0.446,1.777,1.186
	c1.781,4.287,6.192,7.057,11.238,7.057c4.932,0,9.317-2.772,11.173-7.062c0.422-0.975,1.555-1.425,2.529-1.002
	c0.975,0.422,1.424,1.554,1.002,2.529c-2.465,5.7-8.237,9.382-14.705,9.382C48.099,72.258,42.293,68.556,39.913,62.828z"/>
</svg>
