<?xml version="1.0" encoding="utf-8"?>
<!-- Generator: Adobe Illustrator 17.0.0, SVG Export Plug-In . SVG Version: 6.00 Build 0)  -->
<!DOCTYPE svg PUBLIC "-//W3C//DTD SVG 1.1//EN" "http://www.w3.org/Graphics/SVG/1.1/DTD/svg11.dtd">
<svg version="1.1" id="Layer_1" xmlns="http://www.w3.org/2000/svg" xmlns:xlink="http://www.w3.org/1999/xlink" x="0px" y="0px"
	 width="15.757px" height="16.741px" viewBox="13.582 10.495 15.757 16.741" enable-background="new 13.582 10.495 15.757 16.741"
	 xml:space="preserve">
<g>
	<path fill="#010101" d="M16.448,21.161c0.184,0.533,0.448,0.99,0.792,1.371c0.344,0.381,0.719,0.663,1.123,0.847
		s0.834,0.276,1.288,0.276c0.455,0,0.884-0.087,1.288-0.262c0.404-0.174,0.774-0.452,1.109-0.833
		c0.335-0.381,0.59-0.847,0.765-1.398h-4.078L16.448,21.161L16.448,21.161z"/>
	<path fill="#010101" d="M17.518,19.814c0.744,0,1.35-0.605,1.35-1.35c0-0.744-0.606-1.35-1.35-1.35c-0.744,0-1.35,0.605-1.35,1.35
		C16.169,19.209,16.774,19.814,17.518,19.814z M17.518,17.673c0.436,0,0.791,0.355,0.791,0.791c0,0.436-0.355,0.791-0.791,0.791
		c-0.436,0-0.791-0.355-0.791-0.791C16.727,18.028,17.082,17.673,17.518,17.673z"/>
	<circle fill="#010101" cx="17.658" cy="18.604" r="0.42"/>
	<circle fill="#010101" cx="25.367" cy="26.096" r="0.419"/>
	<path fill="#010101" d="M29.339,11.027l-0.477-0.532l-1.895,1.701l-0.598-0.666l-0.323,0.29l0.498,0.555
		c-0.288,0.259-1.907,1.712-3.096,2.779c-0.437-0.352-0.928-0.647-1.475-0.883c-0.744-0.321-1.525-0.482-2.342-0.482
		s-1.598,0.161-2.342,0.482c-0.744,0.322-1.387,0.751-1.929,1.288c-0.542,0.537-0.974,1.18-1.295,1.929
		c-0.322,0.749-0.482,1.532-0.482,2.349c0,0.818,0.161,1.598,0.482,2.342c0.321,0.744,0.753,1.387,1.295,1.929
		c0.542,0.542,1.185,0.973,1.929,1.295c0.744,0.322,1.525,0.482,2.342,0.482c0.817,0,1.598-0.161,2.342-0.482
		c0.744-0.322,1.387-0.753,1.929-1.295c0.542-0.542,0.973-1.185,1.295-1.929c0.017-0.04,0.032-0.081,0.049-0.121
		c0.223,0.856,0.352,1.732,0.437,2.48c-0.012,0-0.024-0.002-0.036-0.002c-0.744,0-1.35,0.605-1.35,1.35s0.606,1.35,1.35,1.35
		c0.744,0,1.35-0.605,1.35-1.35c0-0.634-0.44-1.166-1.031-1.31c-0.101-0.892-0.262-1.95-0.561-2.954
		c0.182-0.574,0.274-1.169,0.274-1.784c0-0.817-0.161-1.6-0.482-2.349c-0.149-0.347-0.323-0.671-0.52-0.973l-0.488-0.607l3.06-2.747
		l0.581,0.647l0.323-0.29l-0.71-0.79L29.339,11.027z M26.438,25.887c0,0.436-0.355,0.791-0.791,0.791s-0.791-0.355-0.791-0.791
		s0.355-0.791,0.791-0.791c0.042,0,0.082,0.004,0.122,0.01c0.042,0.05,0.114,0.067,0.17,0.046
		C26.231,25.269,26.438,25.554,26.438,25.887z M24.06,22.408c-0.455,0.785-1.075,1.405-1.86,1.86
		c-0.785,0.455-1.642,0.682-2.569,0.682c-0.928,0-1.784-0.227-2.569-0.682c-0.785-0.455-1.405-1.075-1.86-1.86
		c-0.454-0.785-0.682-1.642-0.682-2.569c0-0.928,0.228-1.784,0.682-2.57c0.455-0.785,1.075-1.405,1.86-1.86
		c0.785-0.455,1.642-0.682,2.569-0.682c0.928,0,1.784,0.227,2.569,0.682c0.195,0.113,0.378,0.236,0.553,0.37
		c-0.124,0.111-0.233,0.209-0.323,0.29c-0.594,0.534-0.854,1.299-0.967,1.813l-0.415-0.415l-0.099,0.099l0.48,0.48
		c-0.026,0.146-0.04,0.26-0.046,0.325l-0.434,0.434l0.099,0.099l0.62-0.62l0.62,0.62l0.099-0.099l-0.519-0.519
		c1.385,0.069,2.266,1,2.835,2.216C24.618,21.178,24.404,21.813,24.06,22.408z M24.008,17.185c0.017,0.028,0.035,0.055,0.052,0.083
		c0.455,0.785,0.682,1.642,0.682,2.57c0,0.048-0.003,0.095-0.004,0.142c-0.601-1.085-1.484-1.885-2.796-1.971l0.444-0.444
		l-0.02-0.02l1.135-1.019L24.008,17.185z"/>
</g>
</svg>
