<?xml version="1.0" encoding="utf-8"?>
<!-- Generator: Adobe Illustrator 17.0.0, SVG Export Plug-In . SVG Version: 6.00 Build 0)  -->
<!DOCTYPE svg PUBLIC "-//W3C//DTD SVG 1.1//EN" "http://www.w3.org/Graphics/SVG/1.1/DTD/svg11.dtd">
<svg version="1.1" id="Layer_1" xmlns="http://www.w3.org/2000/svg" xmlns:xlink="http://www.w3.org/1999/xlink" x="0px" y="0px"
	 width="29.058px" height="29.058px" viewBox="9.971 9.971 29.058 29.058" enable-background="new 9.971 9.971 29.058 29.058"
	 xml:space="preserve">
<path d="M34.778,34.777c5.668-5.667,5.667-14.888,0.001-20.555c-5.668-5.668-14.89-5.668-20.557-0.001
	c-5.668,5.668-5.668,14.89,0.001,20.558C19.889,40.446,29.111,40.446,34.778,34.777z M15.807,15.806
	c4.793-4.793,12.592-4.793,17.386,0.001c4.793,4.793,4.792,12.593-0.001,17.386C28.4,37.985,20.6,37.986,15.807,33.193
	C11.013,28.399,11.014,20.599,15.807,15.806z M15.85,20.622V20.51c0-1.327,0.932-2.403,2.082-2.403h3.557
	c0.931,0,1.719,0.705,1.985,1.678h2.308c0.267-0.973,1.055-1.678,1.985-1.678h3.557c1.15,0,2.082,1.076,2.082,2.403v0.112
	c0,1.327-0.932,2.403-2.082,2.403h-3.557c-1.131,0-2.049-1.041-2.079-2.338h-2.12c-0.03,1.297-0.949,2.338-2.079,2.338h-3.557
	C16.783,23.025,15.85,21.949,15.85,20.622z M30.798,27.524c-1.053,2.435-3.519,4.008-6.282,4.008c-2.822,0-5.303-1.581-6.319-4.028
	c-0.174-0.419,0.024-0.9,0.444-1.074c0.103-0.043,0.21-0.063,0.315-0.063c0.322,0,0.628,0.191,0.759,0.507
	c0.761,1.832,2.645,3.015,4.801,3.015c2.107,0,3.98-1.184,4.773-3.017c0.18-0.417,0.664-0.609,1.081-0.428
	C30.787,26.624,30.979,27.107,30.798,27.524z"/>
</svg>
