<?xml version="1.0" encoding="utf-8"?>
<!-- Generator: Adobe Illustrator 17.0.0, SVG Export Plug-In . SVG Version: 6.00 Build 0)  -->
<!DOCTYPE svg PUBLIC "-//W3C//DTD SVG 1.1//EN" "http://www.w3.org/Graphics/SVG/1.1/DTD/svg11.dtd">
<svg version="1.1" id="Layer_1_copy" xmlns="http://www.w3.org/2000/svg" xmlns:xlink="http://www.w3.org/1999/xlink" x="0px"
	 y="0px" width="29.692px" height="29.466px" viewBox="36.047 42.441 29.692 29.466"
	 enable-background="new 36.047 42.441 29.692 29.466" xml:space="preserve">
<path d="M62.941,57.668c-0.443,0-0.94,0.073-1.515,0.229c-3.459,1.495-7.05,2.253-10.674,2.253c-6.156,0-10.331-2.22-10.372-2.242
	c-0.019-0.01-0.04-0.018-0.06-0.024c-0.466-0.124-1.002-0.201-1.47-0.211v0.003c-0.018-0.003-0.035-0.005-0.053-0.005
	c-0.004,0-0.051-0.002-0.056-0.002c-0.026,0-0.051,0.004-0.076,0.012c-0.852,0.04-1.511,0.362-1.958,0.957
	c-1.155,1.536-0.449,4.349-0.414,4.485c2.654,8.152,11.377,8.786,13.988,8.786c0.37,0,0.593-0.013,0.595-0.015
	c0.032,0.002,0.254,0.015,0.625,0.015c2.611,0,11.334-0.633,13.993-8.802c0.031-0.121,0.751-2.974-0.435-4.505
	C64.581,57.981,63.868,57.668,62.941,57.668z M62.894,62.577c-2.131,6.431-9.276,6.93-11.415,6.93c-0.286,0-0.454-0.01-0.459-0.01
	c-0.042-0.003-0.084-0.005-0.127-0.005c-0.042,0-0.084,0.002-0.122,0.004c-0.024,0.001-0.191,0.01-0.466,0.01
	c-2.139,0-9.284-0.5-11.407-6.906c-0.203-0.848-0.226-2.109,0.048-2.461c0.037-0.047,0.186-0.067,0.301-0.07
	c0.18,0.004,0.48,0.03,0.75,0.09c1.132,0.558,5.113,2.295,10.761,2.295c3.737,0,7.437-0.771,10.953-2.277
	c0.296-0.073,0.556-0.11,0.773-0.11c0.145,0,0.313,0.018,0.354,0.07C63.113,60.492,63.09,61.752,62.894,62.577z M39.993,45.856
	c0-1.886,1.529-3.415,3.415-3.415c1.885,0,3.415,1.529,3.415,3.415c0,1.887-1.529,3.416-3.415,3.416
	C41.522,49.273,39.993,47.743,39.993,45.856z M55.478,45.856c0-1.886,1.531-3.415,3.416-3.415c1.885,0,3.415,1.529,3.415,3.415
	c0,1.887-1.529,3.416-3.415,3.416C57.009,49.273,55.478,47.743,55.478,45.856z"/>
</svg>
