<?xml version="1.0" encoding="utf-8"?>
<!-- Generator: Adobe Illustrator 17.0.0, SVG Export Plug-In . SVG Version: 6.00 Build 0)  -->
<!DOCTYPE svg PUBLIC "-//W3C//DTD SVG 1.1//EN" "http://www.w3.org/Graphics/SVG/1.1/DTD/svg11.dtd">
<svg version="1.1" id="Capa_1" xmlns="http://www.w3.org/2000/svg" xmlns:xlink="http://www.w3.org/1999/xlink" x="0px" y="0px"
	 width="30.5px" height="30.5px" viewBox="0 0 30.5 30.5" enable-background="new 0 0 30.5 30.5" xml:space="preserve">
<path d="M15.25,30.5c8.422,0,15.25-6.828,15.25-15.25S23.672,0,15.25,0S0,6.828,0,15.25S6.828,30.5,15.25,30.5z M15.25,2.859
	c6.843,0,12.391,5.547,12.391,12.391S22.093,27.641,15.25,27.641S2.859,22.093,2.859,15.25S8.407,2.859,15.25,2.859z M16.166,21.178
	c4.177-0.825,7.42-2.727,8.592-5.26c-0.645,5.003-4.811,8.863-9.854,8.863c-3.552,0-6.668-1.915-8.426-4.794
	C8.574,21.627,12.271,21.947,16.166,21.178z M19.062,10.484c0,1.579,0.853,2.859,1.906,2.859s1.906-1.28,1.906-2.859
	s-0.853-2.859-1.906-2.859S19.062,8.905,19.062,10.484z M10.484,11.065c-1.245,0-2.303,0.466-2.696,1.117
	c-0.105-0.175-0.163-0.958-0.163-1.154c0-0.925,1.28-1.675,2.859-1.675s2.859,0.75,2.859,1.675c0,0.196-0.058,0.979-0.163,1.154
	C12.788,11.531,11.729,11.065,10.484,11.065z"/>
</svg>
