<?xml version="1.0" encoding="utf-8"?>
<!-- Generator: Adobe Illustrator 21.0.0, SVG Export Plug-In . SVG Version: 6.00 Build 0)  -->
<svg version="1.1" id="Layer_1" xmlns="http://www.w3.org/2000/svg" xmlns:xlink="http://www.w3.org/1999/xlink" x="0px" y="0px"
	 viewBox="0 0 1653.2 1433.9" style="enable-background:new 0 0 1653.2 1433.9;" xml:space="preserve">
<style type="text/css">
	.st0{fill:#FFFFFF;}
</style>
<g>
	<path class="st0" d="M1417.9,36.9c18.8-6.1,37.6-14.9,50.9-30c1.4,11.8,0.8,24.1-3.3,35.3c-6.2,17.2-17.3,32.1-28.5,46.3
		c8-1.8,16.3-2.8,24.2-5.3c26.8-7.9,53.5-15.9,80.3-23.7c10.7,19,13.1,41.2,14.6,62.6c1.1,23.6,0.2,47.3-2.1,70.8
		c-2.4,24.6-5.5,49.4-12.1,73.3c-9.1,34.4-25.5,66.3-33.6,101c25.4,20.3,45.5,46.6,61.6,74.8c20.5,36.1,34.7,75.4,45.1,115.5
		c11.6,45.3,18.2,91.8,21.1,138.5c2.9,48.7,1.6,97.6-3.9,146.1c-4.5,38.8-11.8,77.3-22.9,114.7c-2.1,6.5-3.6,13.3-6.6,19.4
		c-6-21.2-12.4-42.2-19.5-63.1c-0.3-1-0.7-2-1-2.9c-1-3-2-6-3.1-8.9c-2-5.7-3.7-11.4-6-17c-2.1-6.4-4.4-12.8-7.1-19
		c-0.8-2.7-1.8-5.4-3-7.9c-0.9-2.7-1.8-5.4-3-8c-0.7-1.7-1.3-3.3-2-5c-6.3-15.8-12.8-31.6-20-47c-1.6-4.5-4-8.7-6-12.9
		c-0.7-1.4-1.3-2.7-2-4.1c-3.5-8.2-7.4-16.2-12-23.9c-0.7-1.3-1.4-2.7-2.1-4c-2.3-4.3-4.2-8.9-6.9-13c-1.5-3.1-3.1-6.2-4.9-9
		c-0.9-1.7-1.9-3.4-3-5c-1.2-2.4-2.4-4.8-4-7c-1.2-2.1-2.4-4.1-3.6-6.1c-1.1-1.8-2.1-3.6-3.2-5.4c-0.3-0.3-0.9-0.9-1.3-1.3
		c-1.5-3.5-3.8-6.4-5.8-9.6c-3.3-5-6.8-10-9.9-15.1c-0.3-0.3-0.9-1-1.2-1.3c-1.7-3-3.8-5.7-5.8-8.5c-3.8-5.5-7.9-10.7-12-15.9
		c-2.2-3.1-4.8-5.9-6.9-9.1c-1.8-1.9-3.7-3.7-5-6c-3.3-3.2-5.6-7.2-9-10.2c-3-2.8-4.9-6.4-8-9.1c-10.6-10.1-20.2-21.1-31.5-30.4
		c-10.2-9.1-20.9-17.7-32.2-25.3c-0.3-0.3-1-0.9-1.3-1.2c-4.2-2.5-8.1-5.3-12.1-8c-3.7-2.3-7.5-4.7-11.3-6.8c-1.6-1.1-3.3-2-4.9-3
		c-1.4-0.6-2.8-1.3-4.2-1.9c-0.3-0.3-1-1-1.4-1.4c-6.9-3.1-13.3-7.1-20.4-9.7c-3-1.5-5.9-2.9-9-4c-1.7-0.7-3.3-1.3-5-2
		c-42.6-17-88.8-24.5-134.6-23.6c-64.5,1.4-127.9,17.9-187.6,41.5c-10.3,3.9-20.5,8.3-30.7,12.6l-0.1,0.4c-3,1-5.9,2.4-8.8,3.6
		l-0.2,0.4c-5.4,1.8-10.4,4.6-15.4,7.3c-0.4,0-1.1-0.1-1.5-0.1l0,1.4c-0.5-0.2-1.5-0.5-2-0.6l0.1,1c-7.7,2.7-14.7,7.2-22.1,10.6v1
		c-0.5-0.2-1.5-0.5-2-0.6l0,1.5c-0.5-0.1-1.5-0.4-2-0.5l-0.1,1.5c-0.5-0.1-1.4-0.3-1.9-0.4l-0.1,0.9c-5.1,2.2-9.9,5-14.8,7.6
		l-0.2,0.5c-1.8,0.7-3.7,1.3-5.5,1.9c2.1-8.8,5.3-17.3,7.3-26.2c3.2-13.1,6.6-26.5,5.9-40.1c-0.3-7.7-3.8-15.8-10.8-19.7
		c-5.4-2.2-11.4-3.2-17.2-2c-14,1.5-27.5,5.9-40.9,10c-43.3,13.8-86.9,28.7-132.5,32.3c-5.4,0.1-10.6,1.2-16,1
		c-6.7-0.3-13.3,1-19.9,1c-7.4,0.2-14.8-0.1-22.1,0.9c-11.7,0.4-23.3-0.2-35,1c-21.7,0.6-43.4-0.2-65.1,1.2c-21-0.1-42,0.2-62.9,0.4
		c-13,1.2-26.1,0.3-39.1,1c-8.9,1.2-17.9,0.2-26.8,1.3c-41.3,2.2-83,6.2-122.4,19.3c-12.3,4.5-24.4,9.5-35.6,16.3
		c-3.8,2.2-7.3,4.8-11,7.1c-4,2.7-7.8,5.7-11.5,8.8c-21.5,17.6-37.5,41.1-49.5,66c-14.3,30-23.4,62.2-30.4,94.5
		c-13.9,65.9-19.7,133.3-24.1,200.4c-0.8-0.8-1.4-1.7-1.8-2.6c-10.6-29.7-21.1-59.3-32-88.9c-0.4-1-0.7-2-1.1-2.9
		c-1.2-3.7-2.4-7.4-4-11c-4.1-12.3-8.9-24.3-13.3-36.5c-17-50.5-27.3-103.4-29.6-156.7c-1-15.3-0.4-30.7-0.3-46
		c0.9-6.6,0.6-13.3,1.4-19.9c3.1-41.7,11.8-83,25.9-122.3c1.1-2.6,2.1-5.3,3-7.9c0.7-1.7,1.4-3.3,2.1-5c0.7-1.7,1.3-3.3,2-5
		c1.1-2.3,2.1-4.6,3-7c1.8-4,3.7-7.9,5.5-11.8c17.3-35.7,39.8-68.9,67.3-97.5c24.8-26.1,53.6-48.3,84.8-66.3
		c9.3-5.4,18.9-10.1,28.8-14.3c13.6-5.9,28.2-11.1,38.6-22.2c6.2-6.1,10.5-13.7,14.8-21.3c20.9-29.3,47.4-54.5,76.9-75.1
		c32.2-22.5,67.8-39.7,104.7-53c41.1-14.8,83.8-24.9,126.8-32.3c81.6-13.7,164.5-17.6,247.1-18.3c115-0.6,229.9,6.3,344.9,8.7
		c48.7,0.6,97.6,0.9,146.1-3.8C1369.2,48.2,1394.1,44.4,1417.9,36.9z"/>
	<path class="st0" d="M246.2,1008.2c54-2.5,108-3.8,162-4.1c27.3-0.5,54.7,0.1,82,0.4c48.3,0.9,96.7,2.5,144.8,7.7
		c21.5,2.3,43,6.4,63.4,13.5c21.7,7.3,42.1,17.6,63.6,25.4c38.2,14.3,81,16.1,120.1,4.6c21.4-6.1,41.3-16,61.9-24.2
		c18.8-7.5,38.3-13.3,58.3-16.5c22.2-3.5,44.6-5.3,66.9-6.8c52.6-3.4,105.3-4.1,157.9-4.4c104.4,0.4,209,3.5,313,13
		c32.6,3.3,65.3,7,97.3,14.2c-1.3,43.7-2.4,87.6-7.1,131.1c-1.4,11-2.8,22.1-6.3,32.6c-1.8,5.3-4.5,10.8-9.7,13.5
		c-5.2,2.4-11.1,2-16.5,3.9c-8.6,2.7-15.1,9.4-20.2,16.5c-8.4,11.8-14.4,25.2-19.8,38.6c-6.3,15.5-10.9,31.6-15.7,47.5
		c-4.6,15.3-10.1,30.6-19.5,43.7c-6.8,9.3-14.6,18.3-24.9,24c-4.3,2.5-8.9,4.6-13.5,6.7c-30,11.9-62,17.3-93.7,22
		c-44.9,6.2-90.1,9.2-135.4,9.8c-13,0.6-26,0.5-39,0.1c-48.5-0.7-97.2-4-145-12.8c-21.5-4.1-42.9-9.4-63.1-17.8
		c-13.3-5.8-26.7-13-35.8-24.7c-12.3-16.9-21.5-35.8-28.5-55.4c-6.8-18.6-11.7-37.8-18.9-56.2c-5.6-14.3-13-28.1-23.3-39.7
		c-6.1-6-11.8-12.5-18.9-17.4c-1.4-1-2.7-2-4-3c-2.9-2.2-6-4.1-9-6c-2.3-1.6-4.7-2.9-7.1-4.1c-7-4.4-14.7-7.7-22.2-11.1
		c-6.4-0.1-12.9,0-19.3-0.1c-3.6-0.3-6.7,1.8-9.9,3c-5.3,2.6-10.7,5-15.6,8.2c-2.4,1.2-4.7,2.5-7,3.9c-6.9,4.2-13.4,9-19.6,14.3
		c-6.5,6.5-13.6,12.7-18.8,20.3c-9.7,13.2-16.2,28.5-21.4,43.9c-6.6,19.4-11.9,39.3-20,58.2c-6.3,14.7-13.9,28.9-23.4,41.8
		c-10.3,12.9-25.7,20.4-40.7,26.4c-21.9,8.6-45.1,13.5-68.3,17.4c-49.7,8.3-100.1,10.7-150.4,11.2c-51.1-0.3-102.2-2.7-152.9-9.6
		c-24.4-3.3-48.7-7.6-72.5-14c-16.3-4.7-32.9-9.8-46.9-19.6c-15.1-12.1-25.8-28.9-32.4-46.9c-7.2-19.7-11.8-40.2-19.4-59.7
		c-6.3-16.2-13.2-32.5-24.2-46.2c-4.1-5.7-10.1-9.9-16.5-12.7c-6.2-1.9-12.7-2.3-18.9-4.2c-2.6-2.4-5-5.1-6.9-8.1
		c-1.5-4-3.1-8-4-12.1c-3.7-17.2-5.5-34.8-6.6-52.3c-1-5.8-0.4-11.8-1.4-17.6c-0.6-6,0-12-1-18c-0.5-7.4-0.2-14.9-0.6-22.4
		c-0.8-9-0.5-18-0.9-27c-0.2-6.7-0.6-13.3-0.5-20c24.4-5.4,49.2-8.9,74.1-11.7C145.3,1013.8,195.8,1010.6,246.2,1008.2
		 M278.2,1039.9c-24.3,1.6-48.7,4.5-71.9,12.1c-12,3.8-23.4,9.4-33.7,16.6l0.1,0.4c-2.7,1.5-5.2,3.4-7.4,5.6
		c-3.5,3.5-7.3,6.7-10,10.8c-2.1,2.4-4.1,4.9-5.9,7.6c-11.9,17.6-17.2,38.8-19.3,59.8c-2.5,25.8-0.6,51.9,3,77.6
		c4.8,33.6,14.3,67.5,34.5,95.3c11.2,15.4,25.7,28.4,42.1,37.9c31.1,18,67.3,24.7,102.6,28.1c26.5,2.5,53.3,3.1,79.9,3.1
		c28.5-0.1,57-0.1,85.4-1c24-0.5,47.9-1.7,71.7-4.4c20.4-2.5,40.8-6.1,60-13.6c14.3-5.5,27.9-13.3,39.1-23.8
		c15.6-14.2,26.5-32.8,34.3-52.2c7-17.5,12.3-35.7,16.1-54.2c0.8-3,1.5-6,2-9c4.3-21.1,8.3-42.2,9.4-63.7
		c-0.1-20.9-3.6-42.3-14.1-60.8c-0.6-0.9-1.2-1.9-1.8-2.8c-3-5.4-6.9-10.4-11.3-14.8c-1.9-3-4.3-5.9-7.5-7.5l0.3-0.3
		c-2.1-1.6-4-3.5-6.3-4.8l0.5-0.4c-1.5-0.8-2.9-1.7-4.3-2.5l0.1-0.5c-6.4-4.2-12.9-8.3-19.8-11.6c-3-1.4-5.9-2.8-9-4.1
		c-1.7-0.7-3.3-1.3-5-2c-28.1-10.7-58-15.4-87.8-18.4c-24.6-2.2-49.3-3.4-74.1-3.4c-10.6-0.7-21.3-0.3-32-0.5c-30,0-60-0.3-90-0.4
		C324.9,1038.4,301.5,1038.3,278.2,1039.9 M1088.3,1045.8c-21,3.3-42,7.6-61.8,15.3c-1.7,0.6-3.3,1.3-5,2c-3.7,1.5-7.4,3.3-11,5.1
		c-8.3,3.9-15.7,9.2-23,14.6c-1.1,1-2.2,2.1-3.3,3.1c-2.9,2.2-5.7,4.6-8.2,7.3c-0.1,0.4-0.4,1.3-0.5,1.7c-2.6,1.5-4.4,4-6,6.5
		l-0.4,0.1c-6.5,8.9-11.8,18.8-15.1,29.4c-7.1,21.7-6.9,45.1-3.7,67.6c3,19.1,6.5,38.1,11.2,56.8c4.8,19.4,10.7,38.6,19.4,56.6
		c7.8,16.1,18.1,31.3,31.8,42.9c10.8,9.3,23.4,16.4,36.7,21.4c19.6,7.4,40.3,11.1,61,13.5c23.3,2.6,46.7,3.8,70,4.3
		c29,1,58,1,87,1.1c25,0,49.9-0.6,74.8-2.8c32.8-3,66.1-8.5,96-23c26.7-12.8,49.3-34.1,63.1-60.3c1.9-3.4,3.8-6.8,4.9-10.5l0.5,0
		c13-29.4,18.6-61.4,21.3-93.2c1.2-7.3,0.3-14.8,1.3-22.1c0.3-5.3,0.3-10.5-0.3-15.8c-0.7-20-3.7-40.5-11.9-58.9
		c-1.3-3.9-3.4-7.5-5.5-11c-5.1-8.9-11.8-16.8-19.4-23.6c-1-0.6-1.9-1.3-2.7-2.1c-4.1-3.6-8.6-6.5-13.2-9.4c-0.2,0-0.7,0-0.9,0
		c-3.3-2.4-7.1-4.1-10.9-5.7c-17.8-7.7-37-11.6-56.2-14.1c-26.2-3.2-52.6-4.1-79-4.1c-29.3-0.1-58.6,0.3-87.9,0.3
		C1190.2,1039,1138.9,1038.6,1088.3,1045.8z"/>
</g>
</svg>
